<svg width="51" height="49" viewBox="0 0 51 49" fill="none" xmlns="http://www.w3.org/2000/svg">
<rect x="0.3" y="0.3" width="50.3999" height="48.2297" rx="4.7" fill="white" fill-opacity="0.07" stroke="url(#paint0_linear_1482_20470)" stroke-width="0.6"/>
<rect x="17.2279" y="14" width="27" height="3" rx="1.5" transform="rotate(45 17.2279 14)" fill="#C4C4C4"/>
<mask id="path-3-outside-1_1482_20470" maskUnits="userSpaceOnUse" x="14.6213" y="13.6211" width="22" height="22" fill="black">
<rect fill="white" x="14.6213" y="13.6211" width="22" height="22"/>
<path fill-rule="evenodd" clip-rule="evenodd" d="M16.0607 32.031C15.4749 32.6168 15.4749 33.5665 16.0607 34.1523C16.6465 34.7381 17.5962 34.7381 18.182 34.1523L25.6599 26.6744L33.1379 34.1524C33.7236 34.7382 34.6734 34.7382 35.2592 34.1524C35.845 33.5666 35.845 32.6169 35.2592 32.0311L27.7812 24.5531L35.1526 17.1818C35.7383 16.596 35.7383 15.6462 35.1526 15.0604C34.5668 14.4746 33.617 14.4746 33.0312 15.0604L25.6599 22.4318L18.2886 15.0605C17.7028 14.4747 16.7531 14.4747 16.1673 15.0605C15.5815 15.6463 15.5815 16.5961 16.1673 17.1818L23.5386 24.5531L16.0607 32.031Z"/>
</mask>
<path fill-rule="evenodd" clip-rule="evenodd" d="M16.0607 32.031C15.4749 32.6168 15.4749 33.5665 16.0607 34.1523C16.6465 34.7381 17.5962 34.7381 18.182 34.1523L25.6599 26.6744L33.1379 34.1524C33.7236 34.7382 34.6734 34.7382 35.2592 34.1524C35.845 33.5666 35.845 32.6169 35.2592 32.0311L27.7812 24.5531L35.1526 17.1818C35.7383 16.596 35.7383 15.6462 35.1526 15.0604C34.5668 14.4746 33.617 14.4746 33.0312 15.0604L25.6599 22.4318L18.2886 15.0605C17.7028 14.4747 16.7531 14.4747 16.1673 15.0605C15.5815 15.6463 15.5815 16.5961 16.1673 17.1818L23.5386 24.5531L16.0607 32.031Z" fill="#C4C4C4"/>
<path d="M16.0607 34.1523L16.2375 33.9755L16.2375 33.9755L16.0607 34.1523ZM16.0607 32.031L16.2375 32.2078L16.2375 32.2078L16.0607 32.031ZM18.182 34.1523L18.0052 33.9755L18.0052 33.9755L18.182 34.1523ZM25.6599 26.6744L25.8367 26.4977L25.6599 26.3209L25.4831 26.4977L25.6599 26.6744ZM33.1379 34.1524L32.9611 34.3292L32.9611 34.3292L33.1379 34.1524ZM35.2592 34.1524L35.436 34.3292L35.436 34.3292L35.2592 34.1524ZM35.2592 32.0311L35.436 31.8543L35.436 31.8543L35.2592 32.0311ZM27.7812 24.5531L27.6044 24.3763L27.4277 24.5531L27.6044 24.7299L27.7812 24.5531ZM35.1526 17.1818L35.3293 17.3585L35.3293 17.3585L35.1526 17.1818ZM35.1526 15.0604L35.3293 14.8837L35.3293 14.8837L35.1526 15.0604ZM33.0312 15.0604L33.208 15.2372L33.208 15.2372L33.0312 15.0604ZM25.6599 22.4318L25.4831 22.6086L25.6599 22.7853L25.8367 22.6086L25.6599 22.4318ZM18.2886 15.0605L18.4654 14.8837L18.4654 14.8837L18.2886 15.0605ZM16.1673 15.0605L16.3441 15.2373L16.3441 15.2373L16.1673 15.0605ZM16.1673 17.1818L16.3441 17.0051L16.3441 17.0051L16.1673 17.1818ZM23.5386 24.5531L23.7153 24.7299L23.8921 24.5531L23.7153 24.3763L23.5386 24.5531ZM16.2375 33.9755C15.7493 33.4874 15.7493 32.6959 16.2375 32.2078L15.8839 31.8542C15.2005 32.5376 15.2005 33.6457 15.8839 34.3291L16.2375 33.9755ZM18.0052 33.9755C17.5171 34.4637 16.7256 34.4637 16.2375 33.9755L15.8839 34.3291C16.5673 35.0125 17.6754 35.0125 18.3588 34.3291L18.0052 33.9755ZM25.4831 26.4977L18.0052 33.9755L18.3588 34.3291L25.8367 26.8512L25.4831 26.4977ZM33.3146 33.9756L25.8367 26.4977L25.4831 26.8512L32.9611 34.3292L33.3146 33.9756ZM35.0824 33.9756C34.5942 34.4638 33.8028 34.4638 33.3146 33.9756L32.9611 34.3292C33.6445 35.0126 34.7525 35.0126 35.436 34.3292L35.0824 33.9756ZM35.0824 32.2079C35.5706 32.696 35.5706 33.4875 35.0824 33.9756L35.436 34.3292C36.1194 33.6458 36.1194 32.5377 35.436 31.8543L35.0824 32.2079ZM27.6044 24.7299L35.0824 32.2079L35.436 31.8543L27.958 24.3763L27.6044 24.7299ZM34.9758 17.005L27.6044 24.3763L27.958 24.7299L35.3293 17.3585L34.9758 17.005ZM34.9758 15.2372C35.4639 15.7254 35.4639 16.5168 34.9758 17.005L35.3293 17.3585C36.0128 16.6751 36.0128 15.5671 35.3293 14.8837L34.9758 15.2372ZM33.208 15.2372C33.6962 14.7491 34.4876 14.7491 34.9758 15.2372L35.3293 14.8837C34.6459 14.2002 33.5379 14.2002 32.8545 14.8837L33.208 15.2372ZM25.8367 22.6086L33.208 15.2372L32.8545 14.8837L25.4831 22.255L25.8367 22.6086ZM18.1118 15.2373L25.4831 22.6086L25.8367 22.255L18.4654 14.8837L18.1118 15.2373ZM16.3441 15.2373C16.8322 14.7491 17.6237 14.7491 18.1118 15.2373L18.4654 14.8837C17.782 14.2003 16.6739 14.2003 15.9905 14.8837L16.3441 15.2373ZM16.3441 17.0051C15.8559 16.5169 15.8559 15.7255 16.3441 15.2373L15.9905 14.8837C15.3071 15.5672 15.3071 16.6752 15.9905 17.3586L16.3441 17.0051ZM23.7153 24.3763L16.3441 17.0051L15.9905 17.3586L23.3618 24.7299L23.7153 24.3763ZM16.2375 32.2078L23.7153 24.7299L23.3618 24.3763L15.8839 31.8542L16.2375 32.2078Z" fill="#C4C4C4" mask="url(#path-3-outside-1_1482_20470)"/>
<defs>
<linearGradient id="paint0_linear_1482_20470" x1="-6.81347e-06" y1="-40.1488" x2="98.7522" y2="4.77578" gradientUnits="userSpaceOnUse">
<stop stop-color="#FCE986"/>
<stop offset="0.577873" stop-color="#FCE986" stop-opacity="0"/>
</linearGradient>
</defs>
</svg>
