<svg width="8" height="53" viewBox="0 0 8 53" fill="none" xmlns="http://www.w3.org/2000/svg">
<path d="M5.08643 2.42871C2.20679 10.8838 -1.8247 32.3892 5.08643 50.7698" stroke="#F9F9F9" stroke-opacity="0.5"/>
<circle cx="5.00049" cy="3.00098" r="1" fill="#F9F9F9"/>
<circle cx="5.00049" cy="50.001" r="1" fill="#F9F9F9"/>
<path d="M3.15411 2.01237C3.3041 1.73986 3.61128 1.34387 4.03333 1.06069C4.45103 0.780435 4.96944 0.617175 5.56383 0.774133L5.67314 0.360169C4.93114 0.164233 4.28716 0.374784 3.79478 0.705154C3.30676 1.0326 2.95617 1.48406 2.77902 1.80592L3.15411 2.01237ZM5.56383 0.774133C6.15823 0.931091 6.52845 1.32901 6.75333 1.77894C6.98055 2.23358 7.05218 2.72959 7.04808 3.04062L7.4762 3.04627C7.48104 2.67891 7.39905 2.11322 7.13631 1.58753C6.87122 1.05714 6.41515 0.556105 5.67314 0.360169L5.56383 0.774133Z" fill="#F9F9F9" fill-opacity="0.5"/>
<path d="M2.99731 50.8968C3.15508 51.1834 3.47791 51.5996 3.92162 51.8973C4.36097 52.1921 4.90705 52.3642 5.53325 52.1989L5.64256 52.6128C4.86875 52.8172 4.19711 52.5977 3.68307 52.2528C3.17339 51.9108 2.80715 51.4392 2.62222 51.1032L2.99731 50.8968ZM5.53325 52.1989C6.15945 52.0335 6.54933 51.6142 6.78587 51.1409C7.02475 50.663 7.10004 50.1417 7.09573 49.8145L7.52384 49.8089C7.5289 50.1924 7.44325 50.7833 7.16885 51.3324C6.89211 51.8861 6.41637 52.4085 5.64256 52.6128L5.53325 52.1989Z" fill="#F9F9F9" fill-opacity="0.5"/>
</svg>
