<svg width="58" height="58" viewBox="0 0 58 58" fill="none" xmlns="http://www.w3.org/2000/svg">
<circle cx="29.2781" cy="28.575" r="27.575" stroke="#01AEC4" stroke-width="2"/>
<path d="M38.3304 20.4712C36.7153 19.7301 34.9833 19.1841 33.1725 18.8714C33.1395 18.8654 33.1066 18.8805 33.0896 18.9106C32.8668 19.3068 32.6201 19.8236 32.4473 20.2299C30.4996 19.9383 28.5619 19.9383 26.6542 20.2299C26.4814 19.8146 26.2257 19.3068 26.0019 18.9106C25.985 18.8815 25.952 18.8664 25.919 18.8714C24.1092 19.1831 22.3772 19.7291 20.7612 20.4712C20.7472 20.4772 20.7352 20.4873 20.7272 20.5004C17.4421 25.4083 16.5421 30.1956 16.9836 34.9235C16.9856 34.9466 16.9986 34.9687 17.0166 34.9828C19.184 36.5745 21.2835 37.5408 23.3441 38.1813C23.3771 38.1914 23.412 38.1793 23.433 38.1522C23.9204 37.4865 24.3549 36.7847 24.7274 36.0466C24.7494 36.0034 24.7284 35.9521 24.6835 35.935C23.9943 35.6736 23.3381 35.3548 22.7068 34.9929C22.6569 34.9637 22.6529 34.8923 22.6988 34.8581C22.8317 34.7586 22.9646 34.655 23.0914 34.5504C23.1144 34.5313 23.1463 34.5273 23.1733 34.5393C27.3204 36.4328 31.8101 36.4328 35.9082 34.5393C35.9352 34.5263 35.9672 34.5303 35.9911 34.5494C36.118 34.654 36.2508 34.7586 36.3847 34.8581C36.4306 34.8923 36.4276 34.9637 36.3777 34.9929C35.7464 35.3619 35.0902 35.6736 34.4 35.934C34.3551 35.9511 34.3351 36.0034 34.3571 36.0466C34.7376 36.7837 35.1721 37.4855 35.6505 38.1512C35.6705 38.1793 35.7065 38.1914 35.7394 38.1813C37.81 37.5408 39.9095 36.5745 42.0769 34.9828C42.0959 34.9687 42.1079 34.9476 42.1099 34.9245C42.6383 29.4585 41.2249 24.7105 38.3633 20.5014C38.3563 20.4873 38.3444 20.4772 38.3304 20.4712ZM25.3467 32.0447C24.0982 32.0447 23.0694 30.8984 23.0694 29.4907C23.0694 28.0829 24.0782 26.9367 25.3467 26.9367C26.6252 26.9367 27.644 28.093 27.624 29.4907C27.624 30.8984 26.6152 32.0447 25.3467 32.0447ZM33.7668 32.0447C32.5182 32.0447 31.4895 30.8984 31.4895 29.4907C31.4895 28.0829 32.4983 26.9367 33.7668 26.9367C35.0453 26.9367 36.064 28.093 36.0441 29.4907C36.0441 30.8984 35.0453 32.0447 33.7668 32.0447Z" fill="#01AEC4"/>
</svg>
