<svg width="53" height="54" viewBox="0 0 53 54" fill="none" xmlns="http://www.w3.org/2000/svg">
<path d="M28.3045 1.66774C29.9149 1.03361 31.7387 1.41879 32.9653 2.65683L36.6289 6.35433C37.2585 6.98985 38.0238 7.47087 38.8667 7.75971L43.758 9.43588C45.3998 9.9985 46.5681 11.4999 46.7235 13.2753L47.1752 18.4327C47.2545 19.3382 47.538 20.213 48.0045 20.9892L50.6562 25.4009C51.5734 26.9269 51.5112 28.8676 50.4966 30.3358L47.5816 34.5536C47.0645 35.3018 46.7247 36.1605 46.5881 37.0624L45.8166 42.1553C45.5483 43.9265 44.2772 45.3607 42.5923 45.8186L37.6341 47.1661C36.77 47.4009 35.971 47.8341 35.2983 48.4313L31.4273 51.8678C30.1185 53.0297 28.2691 53.2984 26.7035 52.5618L22.0062 50.3518C21.2009 49.9729 20.3202 49.7861 19.4315 49.8061L14.2526 49.9227C12.528 49.9615 10.9373 48.9647 10.1973 47.3642L8.01496 42.6447C7.63637 41.8259 7.07741 41.1058 6.38017 40.5407L2.37341 37.293C1.00822 36.1864 0.413074 34.3527 0.869994 32.6213L2.18374 27.6433C2.41642 26.7617 2.44567 25.8377 2.26909 24.9436L1.27237 19.8966C0.924824 18.1367 1.6395 16.3361 3.08076 15.3139L7.25958 12.35C7.99611 11.8276 8.60366 11.1404 9.03589 10.3425L11.4955 5.80211C12.3406 4.24218 14.0024 3.34309 15.7272 3.49434L20.8722 3.9455C21.7592 4.02328 22.652 3.89347 23.4822 3.56656L28.3045 1.66774Z" stroke="white" stroke-width="1.43634"/>
<path d="M29.1974 38.7834L29.1211 38.905H29.2646H31.432H31.477L31.5001 38.8664L33.1244 36.1498L34.7488 38.8664L34.7719 38.905H34.8169H36.9842H37.1278L37.0515 38.7834L34.3505 34.4806L37.0515 30.1777L37.1278 30.0561H36.9842H34.8169H34.7718L34.7487 30.0949L33.1244 32.8232L31.5002 30.0949L31.4771 30.0561H31.432H29.2646H29.1211L29.1974 30.1777L31.8983 34.4806L29.1974 38.7834Z" fill="white" stroke="white" stroke-width="0.158786"/>
<path d="M16.2792 23.6327V23.7121H16.3586H18.3312H18.4105V23.6327V20.7078H21.57H21.6494V20.6285V18.9773V18.8979H21.57H18.4105V16.7104H21.57H21.6494V16.631V14.9426V14.8632H21.57H16.3586H16.2792V14.9426V23.6327Z" fill="white" stroke="white" stroke-width="0.158786"/>
<path d="M30.7114 23.6327V23.7121H30.7908H35.929H36.0084V23.6327V21.8451V21.7657H35.929H32.8427V14.9426V14.8632H32.7633H30.7908H30.7114V14.9426V23.6327Z" fill="white" stroke="white" stroke-width="0.158786"/>
<path d="M16.0033 38.276L16.0037 38.2764C16.6389 38.8473 17.4999 39.1285 18.5772 39.1285C19.6545 39.1285 20.5155 38.8473 21.1507 38.2764C21.7878 37.7037 22.1024 36.9023 22.1024 35.8834V30.1355V30.0561H22.023H20.0505H19.9711V30.1355V35.7593C19.9711 36.2328 19.8416 36.5913 19.592 36.8458L19.5911 36.8467C19.3494 37.1008 19.0148 37.2317 18.5772 37.2317C18.1399 37.2317 17.8007 37.101 17.5506 36.8462C17.309 36.5919 17.1833 36.2331 17.1833 35.7593V30.1355V30.0561H17.1039H15.1436H15.0642V30.1355V35.8834C15.0642 36.9019 15.3745 37.7033 16.0033 38.276Z" fill="white" stroke="white" stroke-width="0.158786"/>
</svg>
