<svg width="58" height="58" viewBox="0 0 58 58" fill="none" xmlns="http://www.w3.org/2000/svg">
<circle cx="28.575" cy="28.575" r="27.575" stroke="#01AEC4" stroke-width="2"/>
<path d="M28.3096 18.2603C31.6692 18.2603 32.0677 18.2729 33.3952 18.3337C36.8052 18.4889 38.398 20.1068 38.5532 23.4917C38.614 24.8181 38.6256 25.2166 38.6256 28.5763C38.6256 31.937 38.613 32.3344 38.5532 33.6608C38.397 37.0425 36.8084 38.6636 33.3952 38.8188C32.0677 38.8796 31.6713 38.8922 28.3096 38.8922C24.9499 38.8922 24.5515 38.8796 23.225 38.8188C19.8066 38.6626 18.2222 37.0373 18.067 33.6598C18.0062 32.3333 17.9936 31.9359 17.9936 28.5752C17.9936 25.2155 18.0072 24.8181 18.067 23.4906C18.2232 20.1068 19.8118 18.4878 23.225 18.3326C24.5525 18.2729 24.9499 18.2603 28.3096 18.2603ZM28.3096 15.9922C24.8922 15.9922 24.4644 16.0069 23.1222 16.0677C18.5525 16.2774 16.0128 18.8129 15.8031 23.3868C15.7412 24.73 15.7266 25.1579 15.7266 28.5752C15.7266 31.9925 15.7412 32.4214 15.8021 33.7636C16.0118 38.3333 18.5473 40.873 23.1212 41.0827C24.4644 41.1435 24.8922 41.1582 28.3096 41.1582C31.7269 41.1582 32.1558 41.1435 33.498 41.0827C38.0635 40.873 40.6095 38.3375 40.8161 33.7636C40.8779 32.4214 40.8926 31.9925 40.8926 28.5752C40.8926 25.1579 40.8779 24.73 40.8171 23.3879C40.6116 18.8223 38.073 16.2785 33.499 16.0687C32.1558 16.0069 31.7269 15.9922 28.3096 15.9922V15.9922ZM28.3096 22.1138C24.7412 22.1138 21.8482 25.0069 21.8482 28.5752C21.8482 32.1435 24.7412 35.0376 28.3096 35.0376C31.8779 35.0376 34.771 32.1446 34.771 28.5752C34.771 25.0069 31.8779 22.1138 28.3096 22.1138ZM28.3096 32.7695C25.9933 32.7695 24.1152 30.8926 24.1152 28.5752C24.1152 26.2589 25.9933 24.3809 28.3096 24.3809C30.6259 24.3809 32.5039 26.2589 32.5039 28.5752C32.5039 30.8926 30.6259 32.7695 28.3096 32.7695ZM35.0268 20.3491C34.1921 20.3491 33.5158 21.0254 33.5158 21.859C33.5158 22.6926 34.1921 23.369 35.0268 23.369C35.8604 23.369 36.5357 22.6926 36.5357 21.859C36.5357 21.0254 35.8604 20.3491 35.0268 20.3491Z" fill="#01AEC4"/>
</svg>
