<svg width="123" height="27" viewBox="0 0 123 27" fill="none" xmlns="http://www.w3.org/2000/svg">
<g opacity="0.8">
<mask id="mask0_895_11663" style="mask-type:alpha" maskUnits="userSpaceOnUse" x="72" y="0" width="20" height="27">
<path d="M76.8622 18.6354L76.6817 18.5039V18.7272V26.1982H72.6512V1.31078H76.6817V2.32085V2.54415L76.8622 2.41267C78.3271 1.34555 80.0947 0.721024 81.9989 0.721024C87.0445 0.721024 91.1485 5.10276 91.1485 10.524C91.1485 15.9453 87.0445 20.327 81.9989 20.327C80.0947 20.327 78.3271 19.7025 76.8622 18.6354ZM81.9989 16.0992C84.8872 16.0992 87.2147 13.596 87.2147 10.524C87.2147 7.45205 84.8872 4.94824 81.9989 4.94824C79.1117 4.94824 76.7832 7.45203 76.7832 10.524C76.7832 13.596 79.1117 16.0992 81.9989 16.0992Z" fill="white" stroke="white" stroke-width="0.227204"/>
</mask>
<g mask="url(#mask0_895_11663)">
<path d="M91.2028 0.70076V26.2017H72.5875V0.70076H91.2028Z" fill="#F9F9F9" stroke="white" stroke-width="0.227204"/>
</g>
<mask id="mask1_895_11663" style="mask-type:alpha" maskUnits="userSpaceOnUse" x="93" y="0" width="14" height="21">
<path d="M97.1959 10.3912V18.3595L97.1927 18.3577V18.5519V19.9313H93.1627V1.31079H97.1927V2.49622V2.7281L97.3759 2.58599C98.8829 1.41712 100.728 0.721024 102.729 0.721024C104.127 0.721024 105.447 1.06451 106.633 1.66651C105.486 2.71994 104.549 4.02347 103.89 5.49659C103.336 5.26475 102.733 5.13564 102.101 5.13564C99.4962 5.13564 97.3819 7.30423 97.2129 10.0291H97.1959V10.1427V10.3687C97.1956 10.3716 97.1953 10.3755 97.1953 10.3799C97.1953 10.3843 97.1956 10.3882 97.1959 10.3912ZM97.1974 10.4019C97.1974 10.4023 97.1974 10.4022 97.1973 10.4017L97.1974 10.4019ZM97.2347 18.64L97.2349 18.6402L97.2347 18.64Z" fill="white" stroke="white" stroke-width="0.227204"/>
</mask>
<g mask="url(#mask1_895_11663)">
<path d="M106.72 0.70076V19.9318H93.1041V0.70076H106.72Z" fill="#F9F9F9" stroke="white" stroke-width="0.227204"/>
</g>
<mask id="mask2_895_11663" style="mask-type:alpha" maskUnits="userSpaceOnUse" x="104" y="0" width="19" height="21">
<path d="M113.736 0.721024C118.781 0.721024 122.885 5.10283 122.885 10.5242C122.885 15.9456 118.781 20.3274 113.736 20.3274C108.69 20.3274 104.586 15.9456 104.586 10.5242C104.586 5.10283 108.69 0.721024 113.736 0.721024ZM113.736 16.1739C116.662 16.1739 119.021 13.6371 119.021 10.5242C119.021 7.41132 116.662 4.87385 113.736 4.87385C110.81 4.87385 108.451 7.41133 108.451 10.5242C108.451 13.6371 110.81 16.1739 113.736 16.1739Z" fill="white" stroke="white" stroke-width="0.227204"/>
</mask>
<g mask="url(#mask2_895_11663)">
<path d="M122.931 0.700028V20.3634H104.572V0.700028H122.931Z" fill="#F9F9F9" stroke="white" stroke-width="0.227204"/>
</g>
<path fill-rule="evenodd" clip-rule="evenodd" d="M0.476562 18.1506L2.77259 15.2059C4.36203 16.6107 6.02678 17.5019 8.04615 17.5019C9.63506 17.5019 10.5937 16.8269 10.5937 15.7194V15.6654C10.5937 14.612 9.98809 14.072 7.0362 13.2613C3.47866 12.2895 1.18262 11.2355 1.18262 7.48069V7.42664C1.18262 3.99613 3.75638 1.72715 7.36413 1.72715C9.93842 1.72715 12.133 2.59258 13.9243 4.13186L11.906 7.26508C10.3417 6.10296 8.80295 5.40089 7.31339 5.40089C5.82489 5.40089 5.04353 6.12999 5.04353 7.04887V7.10232C5.04353 8.34492 5.79979 8.75031 8.85262 9.58752C12.4358 10.5875 14.4546 11.9646 14.4546 15.26V15.314C14.4546 19.0688 11.7805 21.1757 7.96978 21.1757C5.29508 21.1757 2.59528 20.1763 0.476562 18.1506ZM16.2449 11.5058V11.4517C16.2449 6.07654 20.0294 1.6731 25.4541 1.6731C28.7847 1.6731 30.7779 2.86224 32.4181 4.59071L29.9452 7.64284C28.5828 6.31977 27.1952 5.50899 25.429 5.50899C22.4515 5.50899 20.3071 8.15634 20.3071 11.3977V11.4517C20.3071 14.693 22.4013 17.3944 25.429 17.3944C27.4473 17.3944 28.6837 16.5302 30.0713 15.1795L32.5441 17.8533C30.7271 19.9337 28.7088 21.2303 25.3024 21.2303C20.1053 21.2303 16.2449 16.935 16.2449 11.5058ZM40.894 1.86228H44.4766L52.0462 20.9054H47.9845L46.3689 16.6653H38.9013L37.2862 20.9054H33.3249L40.894 1.86228ZM44.9819 12.991L42.6351 6.85969L40.2889 12.991H44.9819ZM53.9625 1.99741H60.8512C66.4014 1.99741 70.2372 6.07594 70.2372 11.3977V11.4517C70.2372 16.7728 66.4014 20.906 60.8512 20.906H53.9625V1.99741ZM60.8512 17.1512C64.0306 17.1512 66.1744 14.8552 66.1744 11.5058V11.4517C66.1744 8.10229 64.0306 5.75222 60.8512 5.75222H57.8485V17.1512H60.8512Z" stroke="white" stroke-width="0.61227"/>
</g>
</svg>
