<?xml version="1.0" encoding="utf-8"?>
<!-- Generator: Adobe Illustrator 25.2.3, SVG Export Plug-In . SVG Version: 6.00 Build 0)  -->
<svg class="startupLogo" version="1.1" xmlns="http://www.w3.org/2000/svg" xmlns:xlink="http://www.w3.org/1999/xlink" x="0px" y="0px"
	 viewBox="0 0 612 384.68" style="enable-background:new 0 0 612 384.68;" xml:space="preserve">
<style type="text/css">
	.st0{fill:#FFFFFF;}
</style>
<g id="Layer_2">
</g>
<g id="Layer_1">
	<g>
		<path class="st0" d="M395.76,136.56c8.6,11.56,16.9,22.72,25.56,34.36c-9.46,3.38-18.42,6.58-27.93,9.97
			c-7.48-10.78-14.93-21.52-22.55-32.5c-2.73,0.92-5.3,1.78-7.86,2.65c-2.21,0.74-4.42,1.45-6.62,2.23
			c-3.14,1.11-3.34,1.36-3.35,4.74c-0.03,10.7-0.01,21.39-0.01,32.09c0,1.1,0.15,2.23-0.08,3.28c-0.18,0.83-0.67,2.02-1.32,2.26
			c-7.4,2.77-14.86,5.39-22.74,8.21c0-38.4,0-76.19,0-114.37c1.45-0.61,3.02-1.36,4.66-1.93c16.77-5.94,33.55-11.89,50.34-17.77
			c4.69-1.64,9.53-2.41,14.53-2.3c11.34,0.24,19.47,6.97,21.6,18.22c2.58,13.63-1.18,25.76-9.07,36.83
			C406.97,128.04,402.08,132.59,395.76,136.56z M353.25,102.24c-0.83,10.62-0.46,27.47,0.72,30.46c7.29-2.64,14.65-5.15,21.89-7.97
			c3.66-1.43,7.39-2.99,10.58-5.22c5.78-4.04,9.13-9.77,9.22-17c0.1-7.87-5.22-12.22-12.92-10.45c-3.97,0.92-7.83,2.35-11.69,3.7
			C365.13,97.84,359.26,100.05,353.25,102.24z"/>
		<path class="st0" d="M353.08,222.55c0,6.54-0.01,12.27,0.01,17.99c0.01,1.74-1.11,2.24-2.52,2.72c-7.27,2.46-14.49,5.04-21.75,7.5
			c-13.35,4.52-26.73,8.97-40.09,13.49c-12.96,4.39-25.89,8.84-38.85,13.24c-31.11,10.56-62.24,21.08-93.35,31.65
			c-31.36,10.66-62.7,21.36-94.05,32.04c-19.3,6.58-38.6,13.16-57.9,19.73c-1.13,0.39-2.32,0.62-3.85,1.02c0-6.57,0-12.79,0-19.66
			C117.65,302.55,234.87,262.72,353.08,222.55z"/>
		<path class="st0" d="M394.13,206.12c8.02-2.82,15.97-5.62,24.51-8.63c0.07,2.21,0.17,3.8,0.17,5.39
			c0.01,20.02-0.06,40.05,0.07,60.07c0.02,3.79,0.36,7.7,1.35,11.35c2.55,9.41,11.2,11.63,17.55,10.43
			c7.79-1.47,14.99-4.18,21.15-9.36c9.07-7.62,13.52-17.3,13.49-29.14c-0.05-20.16-0.01-40.32-0.01-60.48c0-1.23-0.01-2.47,0-3.7
			c0.04-3.77,0.05-3.76,3.46-4.97c6.19-2.19,12.38-4.39,18.58-6.57c0.75-0.26,1.53-0.42,2.71-0.74c0.15,1.45,0.37,2.6,0.37,3.76
			c0.02,21.53,0.17,43.06-0.04,64.59c-0.18,18.49-6.55,34.54-20.06,47.46c-8.75,8.36-19.01,14.26-30.36,18.36
			c-8.29,3-16.72,5.28-25.63,5.03c-5.27-0.15-10.3-1.28-14.83-4.2c-7.12-4.58-10.21-11.6-11.69-19.49
			c-0.63-3.35-0.9-6.81-0.91-10.22c-0.08-21.67-0.04-43.34-0.03-65C393.96,208.85,394.06,207.63,394.13,206.12z"/>
		<path class="st0" d="M519.99,275.67c-0.07-1.6-0.19-2.91-0.19-4.23c-0.01-35.25-0.01-70.5,0-105.75c0-4.11-0.01-4.19,3.8-5.55
			c14.57-5.21,29.13-10.46,43.75-15.51c5.42-1.87,10.97-3.41,16.54-4.72c4.61-1.09,9.3-0.57,13.76,1.08
			c8.01,2.97,11.98,9.23,13.55,17.25c2.34,11.92-0.68,22.87-6.67,33.07c-7.16,12.2-17.86,20.22-31.01,25.04
			c-8.61,3.16-17.3,6.08-25.92,9.19c-3.25,1.17-3.26,1.27-3.27,4.72c-0.03,10.97,0,21.94-0.02,32.92c0,4.26-0.03,4.25-4.18,5.7
			c-5.94,2.08-11.86,4.19-17.8,6.27C521.71,275.38,521.05,275.45,519.99,275.67z M544.55,204.77c2.09-0.62,3.52-0.98,4.92-1.47
			c6.71-2.37,13.37-4.88,20.11-7.12c4.56-1.51,8.35-4.12,11.58-7.54c4.56-4.85,6.74-10.57,5.45-17.3c-0.74-3.87-3.01-6.27-6.94-7.19
			c-3.55-0.84-6.8,0.18-10.03,1.26c-5.97,2-11.89,4.13-17.83,6.23c-2.42,0.86-4.82,1.79-7.26,2.71
			C544.55,184.46,544.55,194.28,544.55,204.77z"/>
		<path class="st0" d="M1.05,298.78c3.95-7.49,7.82-14.83,11.42-21.66c4.8,1.78,9,4.03,13.46,4.84c11.73,2.13,22.26-1.11,31.26-8.9
			c3.15-2.72,5.44-6.2,5.84-10.51c0.48-5.14-1.35-7.68-6.48-7.97c-5.31-0.29-10.67,0.02-15.99,0.35
			c-6.84,0.42-13.69,1.14-20.48-0.24c-9.14-1.86-14-7.1-15.46-16.33c-1.45-9.17,0.46-17.81,4.78-25.83
			c9.39-17.43,24.42-27.24,43.49-31.34c6.78-1.46,13.6-1.86,20.33,0.09c3.23,0.94,6.29,2.45,9.89,3.88
			c-3.89,8.02-7.82,15.26-12.2,22.55c-5.76-3.3-11.68-4.72-17.99-4.23c-7.21,0.57-14.03,2.38-19.87,6.89
			c-3.62,2.8-5.9,6.45-6.37,11.09c-0.36,3.48,0.86,5.77,4.28,6.44c3.31,0.64,6.79,0.71,10.17,0.57c5.61-0.24,11.19-1.11,16.8-1.23
			c3.94-0.09,7.99,0.2,11.83,1.05c9.77,2.15,14.71,7.92,15.39,18.61c1.05,16.49-4.72,30.31-17.24,41.2
			c-14.04,12.21-30.33,18.23-48.99,17.65C12.72,305.54,6.65,303.2,1.05,298.78z"/>
		<path class="st0" d="M310.89,209.03c-8.42,3.01-16.36,5.85-24.82,8.88c-11.07-26.66-22-53-32.94-79.34
			c-0.3,0.03-0.6,0.05-0.9,0.08c-1.01,2.92-2.09,5.83-3.03,8.77c-9.13,28.7-18.43,57.36-27.21,86.17
			c-1.79,5.88-4.56,9.28-10.49,10.82c-5.28,1.37-10.34,3.61-15.5,5.44c-1.11,0.39-2.26,0.66-4.03,1.16c1.2-3.63,2.2-6.7,3.23-9.75
			c9.99-29.43,19.99-58.86,29.98-88.29c3.08-9.08,6.25-18.12,9.2-27.24c1.1-3.39,2.81-5.32,6.48-6.41
			c7.6-2.24,14.97-5.26,22.44-7.93c1-0.36,2.06-0.57,3.53-0.96C281.47,143.15,296.03,175.75,310.89,209.03z"/>
		<path class="st0" d="M611.77,272.77c0,6.87,0,13.11,0,19.73c-1.98,0.71-4.01,1.47-6.06,2.17c-33.31,11.34-66.62,22.68-99.93,34
			c-24.37,8.28-48.75,16.52-73.11,24.8c-7.01,2.38-14.07,4.62-20.96,7.3c-5.78,2.25-11.56,0.99-17.59,1.45c0-5.32,0-10.07,0-15.47
			C466.37,322.19,538.85,297.56,611.77,272.77z"/>
		<path class="st0" d="M159.08,168.7c0,1.81,0,3.44,0,5.06c0,27.84,0,55.69,0,83.53c0,4.52-0.02,4.49-4.34,5.98
			c-4.66,1.61-9.28,3.33-13.93,4.95c-1.77,0.62-3.58,1.1-5.92,1.81c0-31,0-61.51,0-92.79c-11.49,4.05-22.33,7.88-33.62,11.86
			c0-7.41,0-14.19,0-21.51c30.07-10.69,60.31-21.44,91.02-32.35c0.14,1.84,0.3,3.03,0.31,4.21c0.03,4.39,0.03,8.78,0.01,13.17
			c-0.01,4.04-0.03,4.04-3.97,5.46C178.98,161.56,169.32,165.02,159.08,168.7z"/>
		<path class="st0" d="M472.79,154.21c0-31.35,0-61.9,0-93.07c-11.33,4.02-22.19,7.87-33.45,11.87c0-7.52,0-14.43,0-21.53
			c6.24-2.26,12.41-4.51,18.59-6.71c18.32-6.51,36.7-12.85,54.94-19.57c5.62-2.07,11.2-2.05,17.44-1.71
			c0.09,1.64,0.24,3.21,0.26,4.79c0.04,3.02-0.11,6.04,0.05,9.05c0.13,2.47-0.84,3.6-3.2,4.41c-9.46,3.23-18.84,6.69-28.24,10.08
			c-0.63,0.23-1.24,0.5-2.17,0.88c0,7.1,0,14.18,0,21.27c0.01,22.3,0.03,44.61,0.03,66.91c0,4.64-0.03,4.64-4.63,6.29
			C486.12,149.42,479.83,151.68,472.79,154.21z"/>
	</g>
</g>
</svg>
