<svg id="arrow" width="211" height="16" viewBox="0 0 211 16" fill="none" xmlns="http://www.w3.org/2000/svg">
<path d="M210.707 8.70711C211.098 8.31658 211.098 7.68342 210.707 7.29289L204.343 0.928932C203.953 0.538408 203.319 0.538408 202.929 0.928932C202.538 1.31946 202.538 1.95262 202.929 2.34315L208.586 8L202.929 13.6569C202.538 14.0474 202.538 14.6805 202.929 15.0711C203.319 15.4616 203.953 15.4616 204.343 15.0711L210.707 8.70711ZM0 9H2.01923V7H0L0 9ZM6.05769 9H10.0962V7H6.05769V9ZM14.1346 9H18.1731V7H14.1346V9ZM22.2115 9H26.25V7H22.2115V9ZM30.2885 9H34.3269V7H30.2885V9ZM38.3654 9H42.4038V7H38.3654V9ZM46.4423 9H50.4808V7H46.4423V9ZM54.5192 9H58.5577V7H54.5192V9ZM62.5961 9H66.6346V7H62.5961V9ZM70.6731 9H74.7115V7H70.6731V9ZM78.75 9H82.7884V7H78.75V9ZM86.8269 9H90.8654V7H86.8269V9ZM94.9038 9H98.9423V7H94.9038V9ZM102.981 9H107.019V7H102.981V9ZM111.058 9H115.096V7H111.058V9ZM119.135 9H123.173V7H119.135V9ZM127.211 9H131.25V7H127.211V9ZM135.288 9H139.327V7H135.288V9ZM143.365 9H147.404V7H143.365V9ZM151.442 9H155.481V7H151.442V9ZM159.519 9H163.558V7H159.519V9ZM167.596 9H171.635V7H167.596V9ZM175.673 9H179.712V7H175.673V9ZM183.75 9H187.789V7H183.75V9ZM191.827 9H195.865V7H191.827V9ZM199.904 9H203.942V7H199.904V9ZM207.981 9H210V7H207.981V9Z" fill="#01AEC4"/>
</svg>
