<svg width="166" height="181" viewBox="0 0 166 181" fill="none" xmlns="http://www.w3.org/2000/svg">
<g clip-path="url(#clip0_1424_20443)">
<path d="M116.67 131.177H49.2423C49.3829 127.497 50.338 124.203 52.6156 121.342L52.616 121.342C54.6606 118.77 57.3745 117.02 60.3439 115.422L60.3449 115.422C61.007 115.064 61.6723 114.708 62.3392 114.35C64.852 113.004 67.3864 111.646 69.8546 110.179C71.6514 109.133 73.0478 107.517 73.8223 105.587L73.8223 105.587C74.0786 104.948 74.2237 104.271 74.2512 103.583L74.2512 103.583L74.2515 103.574C74.3002 101.917 74.3002 100.26 74.2515 98.6028L74.2507 98.5776L74.2484 98.5525C74.1937 97.9487 73.9261 97.384 73.4935 96.9593L73.4935 96.9593L73.4875 96.9535C70.6862 94.2583 68.516 91.2651 67.5023 87.5468C67.4055 87.1913 67.1772 86.9352 67.0205 86.7824C66.8824 86.6477 66.7222 86.5219 66.6137 86.4367C66.5952 86.4222 66.5782 86.4088 66.5631 86.3968C66.3451 86.2238 66.1383 86.1335 65.9997 86.076L65.9736 86.0652C65.844 86.0115 65.8264 86.0042 65.8034 85.9888C64.8964 85.3741 64.2011 83.9619 63.9832 82.3055C63.7654 80.6504 64.0687 79.0833 64.772 78.2325L64.8311 78.161L64.8729 78.0782C65.0195 77.7876 65.1026 77.4691 65.1167 77.1439C65.1306 76.8225 65.0768 76.5019 64.9588 76.2027C62.7264 70.1939 63.3061 64.3447 66.1858 58.7136C68.7979 53.611 73.3051 51.063 78.9729 50.2428L78.9751 50.2425C81.6479 49.8482 84.2461 49.7674 86.7796 50.5188L86.7866 50.5209L86.7936 50.5228C88.885 51.1033 90.7124 52.387 91.9678 54.1575C92.304 54.6431 92.8116 54.9837 93.3888 55.1105L93.4434 55.1225L93.4991 55.127C96.9799 55.4104 99.1667 57.4038 100.442 60.5423L100.443 60.5463C102.598 65.7705 102.916 71.05 100.84 76.359L100.838 76.3648C100.766 76.5508 100.695 76.8021 100.662 77.0468C100.645 77.1677 100.634 77.322 100.651 77.4819C100.666 77.6158 100.716 77.9074 100.958 78.1422C101.752 78.9132 102.034 79.7141 102.072 80.5656C102.112 81.4645 101.881 82.4334 101.577 83.53L101.577 83.53L101.575 83.5391C101.205 84.9369 100.585 85.9466 99.3017 86.3712C98.9025 86.5011 98.679 86.8284 98.5801 86.9956C98.4599 87.1989 98.375 87.4246 98.3245 87.6233C97.3263 91.2999 95.1666 94.259 92.3957 96.9435L92.3891 96.9499L92.3826 96.9564C91.9416 97.4031 91.6683 97.9884 91.609 98.6134L91.6073 98.6313L91.6064 98.6494C91.5739 99.2862 91.5839 99.9233 91.5934 100.528C91.5944 100.591 91.5954 100.654 91.5964 100.716C91.6064 101.388 91.6105 102.023 91.5598 102.646L91.5597 102.647C91.3481 105.278 92.5502 107.312 94.3295 108.787L94.3294 108.787L94.3392 108.795C96.0901 110.203 97.9568 111.46 99.9193 112.554C101.208 113.297 102.529 113.982 103.831 114.658C104.01 114.751 104.189 114.844 104.367 114.937C105.85 115.708 107.304 116.477 108.698 117.333L108.7 117.334C112.934 119.917 115.593 123.608 116.357 128.547L116.36 128.563L116.363 128.579C116.521 129.386 116.587 130.187 116.662 131.08C116.664 131.112 116.667 131.145 116.67 131.177Z" stroke="#FCE986" stroke-width="1.65351"/>
<path d="M7.91737 43.5326C9.14779 42.9503 10.4576 42.5528 11.8041 42.353L11.9052 43.0345C12.5409 42.9401 13.1853 42.8922 13.8332 42.8921C14.2638 42.8942 14.6921 42.9174 15.1168 42.961L15.1871 42.2756C16.0905 42.3684 16.9782 42.549 17.8384 42.8125L17.6366 43.4712C18.458 43.7228 19.253 44.0539 20.0101 44.4597L20.3356 43.8525C21.1285 44.2775 21.882 44.7805 22.5841 45.3564L22.1472 45.8891C22.4776 46.1601 22.7962 46.4483 23.1014 46.7528C23.4065 47.0574 23.6953 47.3753 23.9671 47.7053L24.4988 47.2672C25.0762 47.9681 25.5806 48.7206 26.0073 49.5127L25.4007 49.8394C25.8081 50.5957 26.1408 51.39 26.3941 52.2108L27.0524 52.0077C27.3177 52.8674 27.5001 53.7548 27.5946 54.6579L26.9094 54.7296C26.9539 55.1542 26.9779 55.5824 26.9809 56.013C26.9822 56.661 26.9355 57.3055 26.8425 57.9414L27.5242 58.0411C27.3271 59.388 26.9323 60.6986 26.3526 61.9302L25.7292 61.6368C25.4552 62.2188 25.1378 62.7823 24.7785 63.3222C24.4191 63.8621 24.0219 64.3723 23.5907 64.8497L24.102 65.3115C23.1895 66.3217 22.1329 67.1918 20.9664 67.8934L20.6113 67.303C20.0601 67.6346 19.4831 67.9266 18.8843 68.1757C18.2854 68.4248 17.6716 68.6282 17.0478 68.7854L17.2162 69.4535C15.8963 69.7862 14.5343 69.9223 13.1746 69.8573L13.2075 69.1691C12.5649 69.1384 11.923 69.0605 11.2867 68.9347C10.6505 68.809 10.0271 68.637 9.42118 68.421L9.18985 69.07C7.90765 68.6129 6.69975 67.9691 5.60552 67.1594L6.01533 66.6055C5.49826 66.2229 5.00789 65.8013 4.54882 65.3432C4.08976 64.8851 3.66716 64.3956 3.28349 63.8793L2.7305 64.2902C1.91857 63.1976 1.27225 61.991 0.812601 60.7097L1.4611 60.4771C1.24389 59.8716 1.07054 59.2486 0.943531 58.6126C0.816518 57.9766 0.737261 57.3348 0.705249 56.6923L0.0171412 56.7266C-0.0506015 55.3671 0.0826914 54.0048 0.412679 52.6842L1.08109 52.8512C1.23703 52.2271 1.43919 51.6128 1.68707 51.0135C1.93496 50.4142 2.22578 49.8366 2.55624 49.2847L1.96514 48.9308C2.66444 47.7629 3.5324 46.7045 4.54071 45.79L5.00355 46.3004C5.48004 45.8682 5.98951 45.4699 6.52867 45.1095C7.06783 44.749 7.63062 44.4305 8.21206 44.1553L7.91737 43.5326Z" stroke="#01AEC4" stroke-width="1.37792" stroke-dasharray="2.76 2.76"/>
<path d="M15.2475 111.402C16.1507 111.499 17.0379 111.683 17.8972 111.95L17.6927 112.608C18.5132 112.864 19.3069 113.198 20.0625 113.607L20.3906 113.002C21.1819 113.43 21.9334 113.936 22.6331 114.516L22.1938 115.046C22.5231 115.319 22.8404 115.609 23.1443 115.915C23.4482 116.221 23.7356 116.54 24.0059 116.871L24.5397 116.436C25.114 117.139 25.6151 117.894 26.0381 118.689L25.4301 119.013C25.834 119.771 26.163 120.567 26.4124 121.389L27.0717 121.189C27.3329 122.05 27.5111 122.939 27.6012 123.843L26.9157 123.911C26.9581 124.336 26.98 124.764 26.9809 125.195C26.9792 125.843 26.9295 126.487 26.8335 127.123L27.5147 127.226C27.3114 128.572 26.9105 129.88 26.3251 131.109L25.7031 130.813C25.4265 131.394 25.1065 131.956 24.7447 132.494C24.3829 133.032 23.9833 133.54 23.5499 134.016L24.0591 134.48C23.1421 135.486 22.0815 136.351 20.9119 137.047L20.5595 136.455C20.0068 136.784 19.4285 137.074 18.8286 137.32C18.2287 137.566 17.6139 137.767 16.9895 137.921L17.1548 138.59C15.8335 138.917 14.4709 139.046 13.1116 138.975L13.1477 138.287C12.5053 138.254 11.8637 138.173 11.2281 138.044C10.5925 137.916 9.96993 137.741 9.36504 137.522L9.13078 138.17C7.85074 137.707 6.64585 137.058 5.55536 136.243L5.96767 135.691C5.45236 135.306 4.96393 134.882 4.50697 134.422C4.05 133.962 3.62964 133.471 3.24831 132.953L2.69348 133.361C1.88653 132.265 1.24567 131.056 0.79179 129.772L1.44132 129.543C1.22684 128.936 1.0563 128.313 0.932138 127.676C0.807978 127.04 0.731596 126.397 0.702457 125.755L0.0142028 125.786C-0.0474609 124.426 0.0919002 123.065 0.42774 121.746L1.0954 121.916C1.2541 121.292 1.45898 120.679 1.7095 120.081C1.96003 119.483 2.25339 118.906 2.58626 118.356L1.99673 117.999C2.70115 116.835 3.5737 115.78 4.58597 114.87L5.04656 115.383C5.52491 114.953 6.03609 114.557 6.5768 114.199C7.11751 113.84 7.68165 113.524 8.26426 113.252L7.9723 112.628C9.20519 112.051 10.5166 111.659 11.8639 111.465L11.962 112.147C12.5982 112.056 13.2427 112.011 13.8907 112.013C14.3214 112.017 14.7497 112.042 15.1743 112.088L15.2475 111.402Z" stroke="#01AEC4" stroke-width="1.37792" stroke-dasharray="2.76 2.76"/>
<path d="M153.434 111.401C154.337 111.494 155.225 111.674 156.085 111.938L155.883 112.597C156.705 112.849 157.5 113.18 158.257 113.586L158.583 112.979C159.375 113.404 160.129 113.908 160.831 114.484L160.393 115.017C160.724 115.288 161.042 115.576 161.347 115.881C161.652 116.186 161.941 116.504 162.213 116.834L162.745 116.396C163.322 117.098 163.826 117.851 164.252 118.643L163.645 118.969C164.052 119.726 164.384 120.521 164.636 121.342L165.295 121.14C165.559 122 165.741 122.887 165.834 123.791L165.149 123.862C165.193 124.286 165.217 124.715 165.219 125.145C165.22 125.793 165.173 126.438 165.08 127.074L165.761 127.174C165.563 128.521 165.168 129.831 164.587 131.063L163.964 130.769C163.69 131.351 163.372 131.914 163.013 132.454C162.653 132.993 162.255 133.503 161.824 133.98L162.335 134.442C161.422 135.452 160.365 136.322 159.198 137.023L158.843 136.432C158.292 136.763 157.714 137.055 157.115 137.304C156.517 137.552 155.903 137.755 155.279 137.912L155.447 138.58C154.127 138.912 152.764 139.048 151.405 138.982L151.438 138.294C150.796 138.263 150.154 138.184 149.517 138.058C148.881 137.932 148.258 137.76 147.652 137.543L147.421 138.192C146.139 137.734 144.931 137.09 143.837 136.28L144.247 135.726C143.731 135.343 143.24 134.921 142.782 134.463C142.323 134.004 141.901 133.515 141.517 132.998L140.964 133.409C140.153 132.316 139.507 131.109 139.048 129.827L139.697 129.595C139.48 128.989 139.307 128.366 139.18 127.73C139.054 127.094 138.975 126.452 138.943 125.81L138.255 125.844C138.188 124.484 138.322 123.122 138.653 121.801L139.321 121.969C139.478 121.345 139.68 120.731 139.928 120.131C140.177 119.532 140.468 118.955 140.798 118.403L140.208 118.049C140.908 116.881 141.776 115.823 142.785 114.91L143.247 115.42C143.724 114.988 144.234 114.59 144.773 114.23C145.313 113.87 145.876 113.552 146.457 113.277L146.163 112.654C147.394 112.073 148.704 111.676 150.05 111.477L150.151 112.158C150.787 112.064 151.431 112.017 152.079 112.017C152.51 112.019 152.938 112.042 153.363 112.086L153.434 111.401Z" stroke="#01AEC4" stroke-width="1.37792" stroke-dasharray="2.76 2.76"/>
<path d="M165.145 57.3769L165.83 57.4503C165.733 58.3532 165.549 59.2401 165.281 60.0992L164.623 59.8946C164.368 60.7148 164.034 61.5083 163.625 62.2637L164.23 62.5918C163.802 63.3829 163.296 64.1342 162.717 64.8338L162.186 64.3945C161.913 64.7238 161.624 65.0411 161.318 65.3449C161.012 65.6488 160.693 65.9361 160.362 66.2065L160.797 66.7402C160.094 67.3144 159.339 67.8156 158.545 68.2388L158.221 67.6308C157.463 68.0349 156.668 68.3641 155.846 68.6138L156.046 69.273C155.185 69.5345 154.297 69.713 153.393 69.8036L153.325 69.1181C152.9 69.1607 152.471 69.1829 152.041 69.1841C151.393 69.1825 150.749 69.133 150.113 69.0372L150.01 69.7184C148.664 69.5155 147.356 69.1149 146.126 68.5298L146.423 67.9077C145.842 67.6312 145.28 67.3114 144.741 66.9497C144.203 66.588 143.695 66.1885 143.219 65.7552L142.755 66.2645C141.749 65.3477 140.883 64.2872 140.187 63.1177L140.779 62.7652C140.45 62.2125 140.16 61.6342 139.914 61.0343C139.667 60.4344 139.466 59.8197 139.312 59.1953L138.643 59.3607C138.316 58.0393 138.186 56.6768 138.257 55.3174L138.945 55.3533C138.979 54.7109 139.059 54.0693 139.188 53.4336C139.316 52.7979 139.491 52.1752 139.71 51.5703L139.062 51.3361C139.524 50.0559 140.174 48.8509 140.988 47.7602L141.54 48.1724C141.925 47.657 142.349 47.1685 142.809 46.7114C143.269 46.2544 143.76 45.8339 144.278 45.4525L143.87 44.8977C144.966 44.0906 146.175 43.4495 147.458 42.9955L147.688 43.645C148.295 43.4304 148.918 43.2598 149.555 43.1355C150.192 43.0113 150.834 42.9348 151.476 42.9056L151.445 42.2174C152.805 42.1556 154.167 42.2948 155.486 42.6306L155.316 43.2983C155.939 43.4569 156.553 43.6618 157.151 43.9123C157.749 44.1627 158.325 44.4561 158.876 44.7889L159.232 44.1994C160.397 44.9038 161.452 45.7763 162.362 46.7886L161.849 47.2492C162.279 47.7276 162.676 48.2388 163.034 48.7795C163.392 49.3202 163.708 49.8844 163.98 50.467L164.604 50.1751C165.181 51.408 165.573 52.7195 165.767 54.0669L165.085 54.165C165.177 54.8012 165.222 55.4457 165.219 56.0937C165.215 56.5242 165.19 56.9525 165.145 57.3769Z" stroke="#01AEC4" stroke-width="1.37792" stroke-dasharray="2.76 2.76"/>
<path d="M96.0471 15.8827L96.7324 15.9537C96.6388 16.8575 96.4568 17.7455 96.1915 18.6057L95.5331 18.4027C95.2798 19.2238 94.9466 20.0183 94.5384 20.7744L95.1446 21.1017C94.7169 21.8938 94.211 22.646 93.6318 23.3461L93.101 22.907C92.8284 23.2365 92.5388 23.5538 92.2327 23.8577C91.9266 24.1616 91.6072 24.4489 91.2757 24.719L91.711 25.2531C91.0066 25.8271 90.2508 26.3276 89.4556 26.7495L89.1327 26.1409C88.3736 26.5436 87.5767 26.8711 86.7538 27.1184L86.952 27.7782C86.0899 28.0372 85.2006 28.2127 84.2961 28.2997L84.2301 27.6139C83.805 27.6548 83.3763 27.6752 82.9454 27.6743C82.299 27.6715 81.6564 27.6209 81.0227 27.5241L80.9186 28.2051C79.5771 28.0002 78.273 27.5985 77.0487 27.0131L77.3459 26.3915C76.7675 26.1149 76.2077 25.7951 75.6717 25.4337C75.1357 25.0723 74.6294 24.6733 74.1561 24.2407L73.6913 24.7493C72.6896 23.8338 71.8282 22.7754 71.1353 21.6086L71.7276 21.2568C71.4002 20.7055 71.1124 20.1287 70.8674 19.5305C70.6224 18.9322 70.423 18.3192 70.2696 17.6966L69.6007 17.8613C69.2761 16.5437 69.1477 15.1852 69.2195 13.83L69.9075 13.8665C69.9415 13.2262 70.0225 12.5867 70.151 11.9531C70.2796 11.3195 70.4542 10.699 70.6725 10.0961L70.0247 9.86153C70.4867 8.58554 71.1345 7.3845 71.9469 6.29749L72.4987 6.70994C72.8826 6.19633 73.3051 5.70951 73.7639 5.25405C74.2227 4.79858 74.7126 4.37958 75.229 3.99947L74.8206 3.44462C75.9135 2.64015 77.1192 2.00117 78.3985 1.54846L78.6283 2.19796C79.2328 1.98406 79.8546 1.81393 80.4891 1.69C81.1236 1.56607 81.7637 1.48973 82.4042 1.46045L82.3727 0.772206C83.7284 0.710245 85.0859 0.848562 86.4012 1.18266L86.2316 1.85042C86.8531 2.00828 87.4646 2.21214 88.0611 2.46149C88.6575 2.71084 89.2322 3.00288 89.7811 3.3343L90.1372 2.7445C91.2989 3.44593 92.351 4.31495 93.2592 5.32331L92.7473 5.78439C93.1764 6.26084 93.5717 6.77003 93.9292 7.30866C94.2867 7.8473 94.6024 8.40934 94.8748 8.98981L95.4985 8.69714C96.075 9.92567 96.4672 11.2327 96.6623 12.5756L95.9805 12.6747C96.0727 13.3089 96.1186 13.9515 96.1168 14.5976C96.1145 15.0287 96.0911 15.4576 96.0471 15.8827Z" stroke="#01AEC4" stroke-width="1.37792" stroke-dasharray="2.76 2.76"/>
<path d="M69.1895 165.307C69.279 164.403 69.4568 163.515 69.718 162.654L70.3772 162.854C70.6266 162.032 70.9558 161.237 71.3602 160.48L70.7524 160.155C71.176 159.362 71.678 158.608 72.2533 157.905L72.7863 158.342C73.057 158.011 73.3448 157.693 73.6492 157.387C73.9536 157.082 74.2714 156.794 74.6012 156.522L74.1633 155.99C74.8642 155.413 75.6169 154.909 76.4093 154.483L76.7353 155.09C77.4918 154.684 78.2863 154.353 79.1073 154.101L78.9056 153.442C79.7656 153.179 80.6533 152.999 81.5566 152.907L81.6264 153.592C82.0512 153.549 82.4796 153.526 82.9104 153.525C83.5567 153.524 84.1995 153.571 84.8338 153.665L84.9341 152.983C86.277 153.181 87.5836 153.575 88.8114 154.154L88.5176 154.777C89.0977 155.051 89.6593 155.368 90.1974 155.726C90.7355 156.085 91.244 156.481 91.7198 156.911L92.1818 156.4C93.1887 157.311 94.0559 158.365 94.7552 159.528L94.1647 159.883C94.4951 160.433 94.786 161.008 95.0342 161.605C95.2824 162.202 95.4851 162.815 95.6417 163.436L96.3098 163.268C96.6413 164.585 96.7768 165.943 96.7119 167.299L96.0237 167.266C95.993 167.906 95.9153 168.546 95.7899 169.181C95.6646 169.815 95.4931 170.437 95.2778 171.041L95.9267 171.272C95.4711 172.551 94.8292 173.755 94.022 174.847L93.4681 174.437C93.0867 174.953 92.6665 175.442 92.2099 175.899C91.7532 176.357 91.2653 176.779 90.7506 177.162L91.1618 177.714C90.0726 178.524 88.8697 179.169 87.5923 179.628L87.3593 178.98C86.7557 179.197 86.1346 179.37 85.5005 179.497C84.8665 179.624 84.2266 179.704 83.5861 179.736L83.6208 180.424C82.2651 180.492 80.9066 180.36 79.5894 180.032L79.7559 179.364C79.1336 179.209 78.5209 179.008 77.9232 178.761C77.3254 178.515 76.7492 178.225 76.1986 177.896L75.8453 178.488C74.68 177.791 73.6237 176.927 72.7107 175.923L73.2206 175.459C72.7892 174.985 72.3915 174.477 72.0315 173.94C71.6714 173.403 71.3531 172.842 71.0781 172.263L70.4557 172.558C69.8736 171.332 69.4755 170.026 69.2744 168.684L69.9557 168.582C69.8608 167.948 69.812 167.305 69.811 166.659C69.8114 166.228 69.833 165.799 69.8751 165.374L69.1895 165.307Z" stroke="#01AEC4" stroke-width="1.37792" stroke-dasharray="2.76 2.76"/>
</g>
<defs>
<clipPath id="clip0_1424_20443">
<rect width="165.908" height="179.684" fill="white" transform="translate(0 0.757812)"/>
</clipPath>
</defs>
</svg>
