<svg width="233" height="233" viewBox="0 0 233 233" fill="none" xmlns="http://www.w3.org/2000/svg">
<g filter="url(#filter0_b_1524_20447)">
<circle cx="116.021" cy="116.021" r="116.021" fill="white" fill-opacity="0.04"/>
<circle cx="116.021" cy="116.021" r="115.767" stroke="#01AEC4" stroke-width="0.509184"/>
</g>
<path d="M95.6753 102.738V98.5833H95.8665C97.4243 98.5833 98.9923 98.4783 100.299 98.268V102.605C100.299 104.086 101.457 105.421 103.116 105.421L172.174 105.416C173.655 105.416 174.99 104.258 174.99 102.6V61.2998C174.99 59.8186 173.832 58.4835 172.174 58.4835H103.11C101.629 58.4835 100.294 59.6411 100.294 61.2998V79.2472C100.271 79.2546 100.253 79.2605 100.236 79.2652C100.229 79.2669 100.224 79.2682 100.22 79.2691H100.181L100.123 79.2837C99.0617 79.5477 97.3228 79.814 95.7275 79.814H95.6752V61.2998C95.6752 57.1966 99.0126 53.8592 103.116 53.8592H172.173C176.277 53.8592 179.614 57.1966 179.614 61.2998L179.619 102.6C179.619 106.703 176.282 110.04 172.179 110.04H104.742L104.743 110.04H103.116C99.0017 110.04 95.6753 106.702 95.6753 102.738Z" stroke="#01AEC4" stroke-width="0.985076"/>
<path d="M62.7135 87.5571V85.9213L61.8103 87.2851C60.9704 88.5534 60.395 89.8291 60.1058 90.9849C59.9904 91.3749 59.8765 92.0763 59.7672 92.9517C59.6551 93.8497 59.5436 94.9682 59.441 96.2034C59.2363 98.6708 59.0663 101.617 58.999 104.224C58.883 105.978 57.4591 107.444 55.7415 107.683L55.7413 107.462L55.2681 107.444L54.9952 107.434C52.9336 107.313 51.3774 105.618 51.4993 103.58L51.4995 103.575C51.5688 102.211 51.7395 99.2097 51.9953 96.1924C52.2528 93.1538 52.5922 90.1636 52.9877 88.7821L52.9877 88.7821L52.9898 88.7745C53.454 87.0499 54.7969 83.6892 56.9946 80.7367C59.1285 77.87 62.0012 75.4737 65.585 75.2096L69.1486 84.5855L69.738 86.1363L70.0903 84.5151L71.4579 78.222L71.5877 77.6249H70.9766H70.8377C70.5648 77.6249 70.374 77.4341 70.374 77.1612V75.5212C70.374 75.2488 70.5641 75.0582 70.8362 75.0575C70.8367 75.0575 70.8372 75.0575 70.8377 75.0575L73.0244 75.0735H73.028C73.3009 75.0735 73.4917 75.2643 73.4917 75.5372V77.1772C73.4917 77.4501 73.3009 77.6409 73.028 77.6409H72.8891H72.2781L72.4078 78.2381L73.7754 84.5312L74.1277 86.1523L74.7171 84.6016L78.2816 75.2234C80.4077 75.3673 82.3552 76.2753 84.162 77.543C86.065 78.8782 87.7754 80.5853 89.3503 82.1602C89.7705 82.6474 90.3228 83.2329 90.8411 83.7336C91.1028 83.9864 91.3599 84.2216 91.5898 84.4133C91.8111 84.5977 92.0357 84.7662 92.2265 84.8616L92.2271 84.8619C92.7179 85.1065 93.3788 85.2413 94.0907 85.311C94.8129 85.3818 95.6322 85.3896 96.4673 85.3546C98.1364 85.2847 99.9094 85.042 101.17 84.7631L101.17 84.7631L101.176 84.7617C103.233 84.2794 105.16 85.4805 105.643 87.5412C106.125 89.5958 104.927 91.5201 102.872 92.0063L102.87 92.0067C102.179 92.1442 99.9941 92.5794 97.3772 92.7137C94.7337 92.8494 91.7162 92.6737 89.3608 91.6263L89.344 91.6188L89.3265 91.6126C88.4498 91.2991 87.6477 90.7588 86.8164 90.043C86.1379 89.4589 85.4605 88.7768 84.7126 88.0238C84.5384 87.8484 84.3603 87.6692 84.1776 87.4864C84.0303 87.3391 83.8613 87.1579 83.6745 86.9576C83.2305 86.4815 82.6858 85.8975 82.0928 85.4045L81.2856 84.7337L81.2854 85.7832L81.28 108.343V108.343C81.28 109.319 80.5253 110.174 79.4488 110.174H64.5448C63.5687 110.174 62.7135 109.42 62.7135 108.343V87.5571Z" stroke="#FCE986" stroke-width="0.985076"/>
<path d="M81.286 61.8509C81.286 67.0172 77.0991 71.2039 71.9329 71.2039C66.7666 71.2039 62.5799 67.0171 62.5799 61.8509C62.5799 56.6842 66.7671 52.4925 71.9329 52.4925C77.0989 52.4925 81.286 56.6843 81.286 61.8509Z" stroke="#FCE986" stroke-width="0.985076"/>
<mask id="path-6-inside-1_1524_20447" fill="white">
<path d="M81.7785 127.083C81.7785 132.522 77.3712 136.929 71.9329 136.929C66.4946 136.929 62.0874 132.522 62.0874 127.083C62.0874 121.645 66.4947 117.238 71.9329 117.238C77.3713 117.238 81.7785 121.645 81.7785 127.083"/>
</mask>
<path d="M80.7934 127.083C80.7934 131.978 76.8271 135.944 71.9329 135.944V137.914C77.9152 137.914 82.7636 133.066 82.7636 127.083H80.7934ZM71.9329 135.944C67.0386 135.944 63.0725 131.978 63.0725 127.083H61.1023C61.1023 133.066 65.9505 137.914 71.9329 137.914V135.944ZM63.0725 127.083C63.0725 122.189 67.0388 118.223 71.9329 118.223V116.253C65.9507 116.253 61.1023 121.101 61.1023 127.083H63.0725ZM71.9329 118.223C76.8273 118.223 80.7934 122.189 80.7934 127.083H82.7636C82.7636 121.101 77.9154 116.253 71.9329 116.253V118.223Z" fill="#FCE986" mask="url(#path-6-inside-1_1524_20447)"/>
<path d="M89.0999 154.302L89.1075 154.328C89.4436 155.545 89.948 157.899 90.3549 160.016C90.5597 161.081 90.7384 162.08 90.8573 162.835C90.9169 163.213 90.9606 163.525 90.9853 163.752C90.9978 163.866 91.0046 163.952 91.0068 164.01C91.0072 164.021 91.0074 164.03 91.0075 164.037L90.9825 164.113L91.0081 164.24C91.3623 166.006 90.19 167.674 88.3865 168.036C86.6271 168.388 84.9656 167.226 84.5953 165.435C84.5926 165.413 84.5899 165.399 84.5897 165.398L84.5897 165.398C84.5859 165.375 84.5809 165.348 84.5751 165.317C84.5633 165.255 84.5463 165.169 84.5251 165.064C84.4824 164.855 84.4212 164.56 84.3462 164.205C84.1962 163.495 83.9907 162.537 83.7682 161.511C83.326 159.471 82.8157 157.157 82.541 155.984C82.459 155.444 82.2337 154.822 81.9599 154.19C81.6807 153.545 81.3338 152.851 80.9946 152.173L80.9908 152.165L80.058 152.402L80.6029 168.673L80.6035 168.69L80.6052 168.707C80.7116 169.755 79.8778 170.627 78.7714 170.627H64.956C64.0193 170.627 63.1279 169.774 63.1247 168.663L63.5412 152.402L62.6083 152.169C61.9163 153.553 61.3529 154.949 61.0693 155.944C60.7207 157.129 60.2043 159.471 59.778 161.517C59.5639 162.544 59.3712 163.503 59.232 164.214C59.1623 164.57 59.1059 164.864 59.0668 165.075C59.0473 165.18 59.0318 165.266 59.0211 165.328C59.0157 165.359 59.0112 165.387 59.0078 165.409C59.0077 165.41 59.0062 165.419 59.0045 165.432C58.635 166.976 57.3411 168.021 55.8197 168.03C55.8149 168.029 55.8078 168.027 55.7981 168.025C55.7722 168.018 55.7483 168.011 55.7164 168.001C55.6965 167.995 55.6736 167.988 55.6451 167.98C55.5324 167.947 55.3613 167.9 55.1719 167.892C53.3916 167.514 52.2396 165.858 52.5911 164.105L52.6007 164.057V164.025C52.6013 164.022 52.6035 164.002 52.6107 163.953C52.6202 163.891 52.6345 163.803 52.6537 163.692C52.6918 163.47 52.7474 163.163 52.8167 162.792C52.9551 162.051 53.147 161.062 53.3602 160.004C53.7882 157.882 54.2977 155.506 54.6341 154.295C55.2994 151.899 56.9068 148.806 58.5508 145.791L58.9568 145.116L58.9645 145.103L58.9715 145.09C60.5364 142.087 62.9748 140.568 65.9175 140.568H77.8144C80.7518 140.568 83.1956 142.088 84.7604 145.09L84.7674 145.103L84.7752 145.116L85.1811 145.791C86.8209 148.799 88.4335 152.037 89.0999 154.302ZM91.0073 164.061C91.007 164.066 91.0068 164.065 91.0073 164.06L91.0073 164.061Z" stroke="#FCE986" stroke-width="0.985076"/>
<mask id="path-9-inside-2_1524_20447" fill="white">
<path d="M126.365 127.083C126.365 132.522 121.952 136.929 116.514 136.929C111.075 136.929 106.668 132.522 106.668 127.083C106.668 121.645 111.076 117.238 116.514 117.238C121.952 117.238 126.365 121.645 126.365 127.083"/>
</mask>
<path d="M125.38 127.083C125.38 131.977 121.409 135.944 116.514 135.944V137.914C122.495 137.914 127.35 133.066 127.35 127.083H125.38ZM116.514 135.944C111.619 135.944 107.653 131.978 107.653 127.083H105.683C105.683 133.066 110.531 137.914 116.514 137.914V135.944ZM107.653 127.083C107.653 122.189 111.62 118.223 116.514 118.223V116.253C110.532 116.253 105.683 121.101 105.683 127.083H107.653ZM116.514 118.223C121.409 118.223 125.38 122.19 125.38 127.083H127.35C127.35 121.1 122.495 116.253 116.514 116.253V118.223Z" fill="#FCE986" mask="url(#path-9-inside-2_1524_20447)"/>
<path d="M133.686 154.302L133.698 154.342C134.034 155.564 134.535 157.906 134.924 160.012C135.121 161.077 135.287 162.073 135.388 162.825C135.438 163.202 135.471 163.509 135.483 163.729C135.489 163.831 135.49 163.905 135.488 163.954L135.427 164.05L135.466 164.244C135.82 166.01 134.648 167.678 132.844 168.04C131.085 168.392 129.423 167.231 129.053 165.439C129.05 165.417 129.048 165.402 129.048 165.402C129.044 165.379 129.039 165.352 129.033 165.321C129.021 165.259 129.004 165.173 128.983 165.069C128.94 164.859 128.879 164.565 128.804 164.21C128.654 163.499 128.449 162.541 128.226 161.515C127.784 159.475 127.274 157.161 126.999 155.988C126.917 155.448 126.692 154.826 126.418 154.194C126.139 153.549 125.792 152.855 125.452 152.177L125.449 152.169L124.516 152.406L125.061 168.677L125.061 168.694L125.063 168.711C125.17 169.759 124.336 170.631 123.229 170.631H109.414C108.478 170.631 107.587 169.779 107.583 168.669L108.127 152.406L107.194 152.169C106.502 153.553 105.939 154.949 105.655 155.944C105.307 157.129 104.79 159.472 104.364 161.517C104.15 162.544 103.957 163.503 103.818 164.214C103.748 164.57 103.692 164.864 103.653 165.075C103.633 165.18 103.618 165.266 103.607 165.328C103.602 165.359 103.597 165.387 103.594 165.409L103.594 165.41C103.593 165.413 103.592 165.421 103.591 165.432C103.221 166.976 101.927 168.021 100.406 168.03C100.401 168.029 100.394 168.027 100.384 168.025C100.358 168.018 100.334 168.011 100.303 168.001C100.283 167.995 100.26 167.988 100.231 167.98C100.118 167.947 99.9474 167.9 99.7581 167.892C97.9777 167.514 96.8257 165.858 97.1772 164.105L97.1868 164.057V164.025C97.1874 164.022 97.1896 164.002 97.1969 163.953C97.2063 163.891 97.2207 163.803 97.2398 163.692C97.278 163.47 97.3336 163.163 97.4028 162.792C97.5412 162.051 97.7331 161.062 97.9464 160.004C98.3743 157.882 98.8839 155.506 99.2202 154.295C99.8855 151.899 101.493 148.806 103.137 145.791L103.543 145.116L103.551 145.103L103.558 145.09C105.123 142.087 107.561 140.568 110.504 140.568H122.401C125.338 140.568 127.782 142.088 129.347 145.09L129.354 145.103L129.361 145.116L129.767 145.791C131.407 148.799 133.02 152.037 133.686 154.302Z" stroke="#FCE986" stroke-width="0.985076"/>
<mask id="path-12-inside-3_1524_20447" fill="white">
<path d="M170.944 127.083C170.944 132.522 166.537 136.929 161.098 136.929C155.66 136.929 151.253 132.522 151.253 127.083C151.253 121.645 155.66 117.238 161.098 117.238C166.537 117.238 170.944 121.645 170.944 127.083"/>
</mask>
<path d="M169.959 127.083C169.959 131.978 165.993 135.944 161.098 135.944V137.914C167.081 137.914 171.929 133.066 171.929 127.083H169.959ZM161.098 135.944C156.204 135.944 152.238 131.978 152.238 127.083H150.268C150.268 133.066 155.116 137.914 161.098 137.914V135.944ZM152.238 127.083C152.238 122.189 156.204 118.223 161.098 118.223V116.253C155.116 116.253 150.268 121.101 150.268 127.083H152.238ZM161.098 118.223C165.993 118.223 169.959 122.189 169.959 127.083H171.929C171.929 121.101 167.081 116.253 161.098 116.253V118.223Z" fill="#FCE986" mask="url(#path-12-inside-3_1524_20447)"/>
<path d="M180.286 163.96C180.293 164.003 180.296 164.023 180.297 164.028V164.539L180.366 164.534C180.486 166.135 179.458 167.585 177.549 168.041C175.793 168.389 174.136 167.228 173.766 165.439C173.763 165.417 173.761 165.403 173.76 165.402L173.76 165.402C173.757 165.379 173.752 165.352 173.746 165.321C173.734 165.259 173.717 165.173 173.696 165.069C173.653 164.859 173.592 164.565 173.517 164.21C173.367 163.499 173.161 162.541 172.939 161.515C172.497 159.475 171.986 157.161 171.712 155.988C171.63 155.448 171.404 154.826 171.131 154.194C170.851 153.549 170.505 152.855 170.165 152.177L170.162 152.169L169.229 152.406L169.774 168.677L169.774 168.694L169.776 168.711C169.882 169.759 169.048 170.631 167.942 170.631H154.127C153.191 170.631 152.3 169.779 152.295 168.669L152.84 152.406L151.907 152.169C151.215 153.553 150.652 154.949 150.368 155.944C150.02 157.129 149.503 159.472 149.077 161.517C148.863 162.544 148.67 163.503 148.531 164.214C148.461 164.57 148.405 164.864 148.366 165.075C148.346 165.18 148.331 165.266 148.32 165.328C148.315 165.359 148.31 165.387 148.307 165.409C148.307 165.41 148.305 165.419 148.303 165.432C147.934 166.976 146.64 168.021 145.119 168.03C145.114 168.029 145.107 168.027 145.097 168.025C145.071 168.018 145.047 168.011 145.015 168.001C144.995 167.995 144.973 167.988 144.944 167.98C144.831 167.947 144.66 167.9 144.471 167.892C142.691 167.514 141.539 165.858 141.89 164.105L141.9 164.057V164.025C141.9 164.022 141.902 164.002 141.91 163.953C141.919 163.891 141.933 163.803 141.953 163.692C141.991 163.47 142.046 163.163 142.116 162.792C142.254 162.051 142.446 161.062 142.659 160.004C143.087 157.882 143.597 155.506 143.933 154.295C144.599 151.896 146.209 148.8 147.855 145.782L147.868 145.757L147.879 145.731L148.148 145.069C149.713 142.08 152.147 140.568 155.083 140.568H166.98C169.917 140.568 172.361 142.088 173.926 145.09L173.933 145.103L173.941 145.116L174.347 145.791C175.982 148.792 177.591 152.022 178.261 154.286C178.533 155.52 179.043 157.899 179.486 160.008C179.708 161.067 179.913 162.057 180.062 162.799C180.137 163.17 180.198 163.477 180.239 163.699C180.26 163.81 180.276 163.898 180.286 163.96Z" stroke="#FCE986" stroke-width="0.985076"/>
<path d="M161.782 72.4314H113.505C112.275 72.4314 111.263 71.4227 111.263 70.1888C111.263 68.9543 112.271 67.9462 113.505 67.9462H161.782C163.017 67.9462 164.025 68.9543 164.025 70.1888C164.025 71.4233 163.017 72.4314 161.782 72.4314Z" stroke="#01AEC4" stroke-width="0.985076"/>
<path d="M161.782 84.1956H113.505C112.276 84.1956 111.263 83.1821 111.263 81.953C111.263 80.7185 112.271 79.7103 113.505 79.7103H161.782C163.017 79.7103 164.025 80.7184 164.025 81.953C164.025 83.1874 163.017 84.1956 161.782 84.1956Z" stroke="#01AEC4" stroke-width="0.985076"/>
<path d="M161.782 95.9529H113.505C112.275 95.9529 111.263 94.9442 111.263 93.7103C111.263 92.4758 112.271 91.4676 113.505 91.4676H161.782C163.017 91.4676 164.025 92.4758 164.025 93.7103C164.025 94.9447 163.017 95.9529 161.782 95.9529Z" stroke="#01AEC4" stroke-width="0.985076"/>
<defs>
<filter id="filter0_b_1524_20447" x="-3.63703" y="-3.63703" width="239.316" height="239.317" filterUnits="userSpaceOnUse" color-interpolation-filters="sRGB">
<feFlood flood-opacity="0" result="BackgroundImageFix"/>
<feGaussianBlur in="BackgroundImage" stdDeviation="1.81851"/>
<feComposite in2="SourceAlpha" operator="in" result="effect1_backgroundBlur_1524_20447"/>
<feBlend mode="normal" in="SourceGraphic" in2="effect1_backgroundBlur_1524_20447" result="shape"/>
</filter>
</defs>
</svg>
