<svg viewBox="0 0 213 213" fill="none" xmlns="http://www.w3.org/2000/svg">
<mask id="path-1-inside-1_1491_20453" fill="white">
<path d="M185.153 115.964C180.101 159.225 140.936 190.199 97.6752 185.147C54.4147 180.094 23.4408 140.929 28.4931 97.6683C33.5454 54.4078 72.7107 23.4339 115.971 28.4862C159.232 33.5385 190.206 72.7038 185.153 115.964Z"/>
</mask>
<path d="M184.79 115.922C179.761 158.982 140.778 189.812 97.7177 184.783L97.6328 185.51C141.094 190.585 180.441 159.468 185.517 116.007L184.79 115.922ZM97.7177 184.783C54.6577 179.754 23.8274 140.771 28.8563 97.7107L28.1299 97.6259C23.0541 141.087 54.1716 180.434 97.6328 185.51L97.7177 184.783ZM28.8563 97.7107C33.8852 54.6508 72.8689 23.8205 115.929 28.8494L116.014 28.1229C72.5525 23.0472 33.2056 54.1647 28.1299 97.6259L28.8563 97.7107ZM115.929 28.8494C158.989 33.8783 189.819 72.862 184.79 115.922L185.517 116.007C190.592 72.5456 159.475 33.1987 116.014 28.1229L115.929 28.8494Z" fill="#407280" mask="url(#path-1-inside-1_1491_20453)"/>
<circle cx="106.906" cy="106.904" r="88.0003" stroke="#FCE986" stroke-width="0.365697" stroke-dasharray="2.93 2.93"/>
<circle cx="106.152" cy="106.153" r="97.4412" stroke="#407280" stroke-width="0.365697"/>
<path fill-rule="evenodd" clip-rule="evenodd" d="M20.1536 46.9089C53.0849 -0.798897 118.456 -12.7775 166.164 20.1538C213.871 53.0851 225.85 118.456 192.919 166.164C159.987 213.872 94.6164 225.85 46.9086 192.919C-0.799126 159.988 -12.7778 94.6166 20.1536 46.9089ZM19.2507 46.2856C52.5262 -1.92078 118.58 -14.0246 166.787 19.2509C214.993 52.5265 227.097 118.581 193.822 166.787C160.546 214.993 94.4918 227.097 46.2854 193.822C-1.92101 160.546 -14.0249 94.492 19.2507 46.2856Z" fill="url(#paint0_linear_1491_20453)"/>
<defs>
<linearGradient id="paint0_linear_1491_20453" x1="48.5" y1="24.5" x2="166.5" y2="185" gradientUnits="userSpaceOnUse">
<stop stop-color="#FFFF95"/>
<stop offset="1" stop-color="#F9E372" stop-opacity="0.38"/>
</linearGradient>
</defs>
</svg>
