<svg width="141" height="141" viewBox="0 0 141 141" fill="none" xmlns="http://www.w3.org/2000/svg">
<path d="M67.482 62.0599C71.802 62.0599 75.162 61.0099 77.562 58.9099C80.022 56.7499 81.252 53.9599 81.252 50.5399V49.3699C81.252 45.8299 80.082 43.0999 77.742 41.1799C75.402 39.2599 72.402 38.2999 68.742 38.2999C65.082 38.2999 62.142 39.0499 59.922 40.5499C57.762 41.9899 56.022 43.9699 54.702 46.4899L50.652 43.6099C51.372 42.2899 52.272 41.0299 53.352 39.8299C54.432 38.5699 55.692 37.4599 57.132 36.4999C58.632 35.5399 60.342 34.7899 62.262 34.2499C64.182 33.7099 66.372 33.4399 68.832 33.4399C71.412 33.4399 73.812 33.7999 76.032 34.5199C78.252 35.2399 80.172 36.2899 81.792 37.6699C83.412 38.9899 84.672 40.6399 85.572 42.6199C86.532 44.5399 87.012 46.7299 87.012 49.1899C87.012 53.4499 85.842 56.7799 83.502 59.1799C81.162 61.5799 78.252 63.1999 74.772 64.0399V64.3999C76.632 64.6999 78.372 65.2699 79.992 66.1099C81.612 66.8899 83.022 67.9399 84.222 69.2599C85.482 70.5799 86.472 72.1699 87.192 74.0299C87.912 75.8899 88.272 77.9899 88.272 80.3299C88.272 83.0299 87.792 85.5199 86.832 87.7999C85.872 90.0199 84.492 91.9099 82.692 93.4699C80.952 95.0299 78.822 96.2599 76.302 97.1599C73.842 97.9999 71.082 98.4199 68.022 98.4199C62.982 98.4199 58.902 97.4599 55.782 95.5399C52.662 93.5599 50.112 91.0999 48.132 88.1599L52.182 85.0999C53.922 87.7999 55.992 89.8999 58.392 91.3999C60.852 92.8399 64.032 93.5599 67.932 93.5599C72.492 93.5599 76.062 92.4499 78.642 90.2299C81.222 87.9499 82.512 84.8299 82.512 80.8699V79.4299C82.512 75.4699 81.252 72.3799 78.732 70.1599C76.212 67.8799 72.612 66.7399 67.932 66.7399H60.012V62.0599H67.482Z" fill="#FCE986"/>
<mask id="path-2-inside-1_1384_20447" fill="white">
<path d="M128.019 110.01C106.111 141.864 62.5293 149.926 30.6759 128.019C-1.17763 106.111 -9.24031 62.5291 12.6673 30.6756C34.575 -1.17787 78.157 -9.24056 110.011 12.6671C141.864 34.5748 149.927 78.1568 128.019 110.01Z"/>
</mask>
<path d="M125.959 108.594C104.834 139.309 62.8084 147.084 32.0925 125.959L29.2592 130.079C62.2503 152.769 107.389 144.418 130.079 111.427L125.959 108.594ZM32.0925 125.959C1.37669 104.834 -6.39805 62.8082 14.7272 32.0923L10.6075 29.2589C-12.0826 62.25 -3.73194 107.389 29.2592 130.079L32.0925 125.959ZM14.7272 32.0923C35.8524 1.37644 77.878 -6.39829 108.594 14.727L111.427 10.6073C78.4361 -12.0828 33.2976 -3.73219 10.6075 29.2589L14.7272 32.0923ZM108.594 14.727C139.31 35.8522 147.084 77.8777 125.959 108.594L130.079 111.427C152.769 78.4359 144.418 33.2973 111.427 10.6073L108.594 14.727Z" fill="url(#paint0_linear_1384_20447)" mask="url(#path-2-inside-1_1384_20447)"/>
<defs>
<linearGradient id="paint0_linear_1384_20447" x1="61.2121" y1="-52.8264" x2="54.4346" y2="182.59" gradientUnits="userSpaceOnUse">
<stop stop-color="#FCE986"/>
<stop offset="0.950576" stop-color="#FCE986" stop-opacity="0"/>
</linearGradient>
</defs>
</svg>
