<svg width="141" height="141" viewBox="0 0 141 141" fill="none" xmlns="http://www.w3.org/2000/svg">
<path d="M90.882 97.3399H50.562V91.8499L72.522 70.7899C75.462 67.9099 77.862 64.9699 79.722 61.9699C81.582 58.9099 82.512 55.7899 82.512 52.6099V50.8999C82.512 47.1799 81.432 44.1499 79.272 41.8099C77.112 39.4699 73.872 38.2999 69.552 38.2999C65.352 38.2999 62.142 39.3499 59.922 41.4499C57.702 43.5499 56.082 46.2799 55.062 49.6399L50.202 47.8399C50.802 45.9199 51.612 44.0899 52.632 42.3499C53.652 40.6099 54.942 39.0799 56.502 37.7599C58.122 36.4399 60.012 35.3899 62.172 34.6099C64.332 33.8299 66.852 33.4399 69.732 33.4399C72.672 33.4399 75.282 33.8899 77.562 34.7899C79.902 35.6299 81.852 36.8299 83.412 38.3899C85.032 39.9499 86.232 41.8399 87.012 44.0599C87.852 46.2199 88.272 48.6499 88.272 51.3499C88.272 53.6299 87.972 55.7899 87.372 57.8299C86.772 59.8099 85.932 61.7299 84.852 63.5899C83.772 65.3899 82.452 67.1899 80.892 68.9899C79.332 70.7299 77.622 72.4699 75.762 74.2099L56.412 92.5699H90.882V97.3399Z" fill="#FCE986"/>
<mask id="path-2-inside-1_1384_20441" fill="white">
<path d="M128.019 110.01C106.111 141.864 62.5293 149.926 30.6759 128.019C-1.17763 106.111 -9.24031 62.5291 12.6673 30.6756C34.575 -1.17787 78.157 -9.24056 110.011 12.6671C141.864 34.5748 149.927 78.1568 128.019 110.01Z"/>
</mask>
<path d="M125.959 108.594C104.834 139.309 62.8084 147.084 32.0925 125.959L29.2592 130.079C62.2503 152.769 107.389 144.418 130.079 111.427L125.959 108.594ZM32.0925 125.959C1.37669 104.834 -6.39805 62.8082 14.7272 32.0923L10.6075 29.2589C-12.0826 62.25 -3.73194 107.389 29.2592 130.079L32.0925 125.959ZM14.7272 32.0923C35.8524 1.37644 77.878 -6.39829 108.594 14.727L111.427 10.6073C78.4361 -12.0828 33.2976 -3.73219 10.6075 29.2589L14.7272 32.0923ZM108.594 14.727C139.31 35.8522 147.084 77.8777 125.959 108.594L130.079 111.427C152.769 78.4359 144.418 33.2973 111.427 10.6073L108.594 14.727Z" fill="url(#paint0_linear_1384_20441)" mask="url(#path-2-inside-1_1384_20441)"/>
<defs>
<linearGradient id="paint0_linear_1384_20441" x1="61.2121" y1="-52.8264" x2="54.4346" y2="182.59" gradientUnits="userSpaceOnUse">
<stop stop-color="#FCE986"/>
<stop offset="0.950576" stop-color="#FCE986" stop-opacity="0"/>
</linearGradient>
</defs>
</svg>
