<svg width="141" height="141" viewBox="0 0 141 141" fill="none" xmlns="http://www.w3.org/2000/svg">
<path d="M51.462 97.3395V92.5695H69.822V38.4795H69.372L52.092 53.8695L49.032 50.4495L66.942 34.5195H75.222V92.5695H92.502V97.3395H51.462Z" fill="#FCE986"/>
<mask id="path-2-inside-1_1384_20444" fill="white">
<path d="M128.019 110.01C106.111 141.864 62.5293 149.926 30.6759 128.019C-1.17763 106.111 -9.24031 62.5291 12.6673 30.6756C34.575 -1.17787 78.157 -9.24056 110.011 12.6671C141.864 34.5748 149.927 78.1568 128.019 110.01Z"/>
</mask>
<path d="M125.959 108.594C104.834 139.309 62.8084 147.084 32.0925 125.959L29.2592 130.079C62.2503 152.769 107.389 144.418 130.079 111.427L125.959 108.594ZM32.0925 125.959C1.37669 104.834 -6.39805 62.8082 14.7272 32.0923L10.6075 29.2589C-12.0826 62.25 -3.73194 107.389 29.2592 130.079L32.0925 125.959ZM14.7272 32.0923C35.8524 1.37644 77.878 -6.39829 108.594 14.727L111.427 10.6073C78.4361 -12.0828 33.2976 -3.73219 10.6075 29.2589L14.7272 32.0923ZM108.594 14.727C139.31 35.8522 147.084 77.8777 125.959 108.594L130.079 111.427C152.769 78.4359 144.418 33.2973 111.427 10.6073L108.594 14.727Z" fill="url(#paint0_linear_1384_20444)" mask="url(#path-2-inside-1_1384_20444)"/>
<defs>
<linearGradient id="paint0_linear_1384_20444" x1="61.2121" y1="-52.8264" x2="54.4346" y2="182.59" gradientUnits="userSpaceOnUse">
<stop stop-color="#FCE986"/>
<stop offset="0.950576" stop-color="#FCE986" stop-opacity="0"/>
</linearGradient>
</defs>
</svg>
