<svg width="58" height="58" viewBox="0 0 58 58" fill="none" xmlns="http://www.w3.org/2000/svg">
<g clip-path="url(#clip0_1257_20551)">
<g filter="url(#filter0_b_1257_20551)">
<rect width="57.0299" height="57.0299" rx="4.11085" fill="white" fill-opacity="0.1"/>
</g>
<mask id="path-2-inside-1_1257_20551" fill="white">
<path fill-rule="evenodd" clip-rule="evenodd" d="M18.0856 17.4176C17.5292 16.8612 16.6271 16.8612 16.0707 17.4176L6.41749 27.0708C5.86109 27.6272 5.86109 28.5293 6.41749 29.0857L16.0707 38.7389C16.6271 39.2953 17.5292 39.2953 18.0856 38.7389L28.7383 28.0862L39.391 38.7389C39.9474 39.2953 40.8495 39.2953 41.4059 38.7389L51.0591 29.0857C51.6155 28.5293 51.6155 27.6272 51.0591 27.0708L41.4059 17.4176C40.8495 16.8612 39.9474 16.8612 39.391 17.4176L28.7383 28.0703L18.0856 17.4176Z"/>
</mask>
<path d="M16.0707 17.4176L15.3341 16.681L15.3341 16.681L16.0707 17.4176ZM18.0856 17.4176L17.349 18.1542L17.349 18.1542L18.0856 17.4176ZM6.41749 27.0708L7.1541 27.8074L7.1541 27.8074L6.41749 27.0708ZM6.41749 29.0857L7.1541 28.3491L7.1541 28.3491L6.41749 29.0857ZM16.0707 38.7389L16.8073 38.0023L16.0707 38.7389ZM18.0856 38.7389L18.8222 39.4755L18.8222 39.4755L18.0856 38.7389ZM28.7383 28.0862L29.4749 27.3496L28.7383 26.6129L28.0017 27.3496L28.7383 28.0862ZM39.391 38.7389L38.6544 39.4755L38.6544 39.4755L39.391 38.7389ZM41.4059 38.7389L42.1425 39.4755L42.1425 39.4755L41.4059 38.7389ZM51.0591 29.0857L50.3225 28.3491L50.3225 28.3491L51.0591 29.0857ZM51.0591 27.0708L51.7957 26.3342L51.7957 26.3342L51.0591 27.0708ZM41.4059 17.4176L42.1425 16.681L42.1425 16.681L41.4059 17.4176ZM39.391 17.4176L38.6544 16.681L38.6544 16.681L39.391 17.4176ZM28.7383 28.0703L28.0017 28.8069L28.7383 29.5435L29.4749 28.8069L28.7383 28.0703ZM16.8073 18.1542C16.9569 18.0046 17.1994 18.0046 17.349 18.1542L18.8222 16.681C17.859 15.7178 16.2973 15.7178 15.3341 16.681L16.8073 18.1542ZM7.1541 27.8074L16.8073 18.1542L15.3341 16.681L5.68087 26.3342L7.1541 27.8074ZM7.1541 28.3491C7.00452 28.1995 7.00452 27.957 7.1541 27.8074L5.68087 26.3342C4.71765 27.2974 4.71766 28.8591 5.68088 29.8223L7.1541 28.3491ZM16.8073 38.0023L7.1541 28.3491L5.68088 29.8223L15.3341 39.4755L16.8073 38.0023ZM17.349 38.0023C17.1994 38.1518 16.9569 38.1518 16.8073 38.0023L15.3341 39.4755C16.2973 40.4387 17.859 40.4387 18.8222 39.4755L17.349 38.0023ZM28.0017 27.3496L17.349 38.0023L18.8222 39.4755L29.4749 28.8228L28.0017 27.3496ZM40.1276 38.0023L29.4749 27.3496L28.0017 28.8228L38.6544 39.4755L40.1276 38.0023ZM40.6693 38.0023C40.5197 38.1518 40.2772 38.1518 40.1276 38.0023L38.6544 39.4755C39.6176 40.4387 41.1793 40.4387 42.1425 39.4755L40.6693 38.0023ZM50.3225 28.3491L40.6693 38.0023L42.1425 39.4755L51.7957 29.8223L50.3225 28.3491ZM50.3225 27.8074C50.472 27.957 50.472 28.1995 50.3225 28.3491L51.7957 29.8223C52.7589 28.8591 52.7589 27.2974 51.7957 26.3342L50.3225 27.8074ZM40.6693 18.1542L50.3225 27.8074L51.7957 26.3342L42.1425 16.681L40.6693 18.1542ZM40.1276 18.1542C40.2772 18.0046 40.5197 18.0046 40.6693 18.1542L42.1425 16.681C41.1793 15.7178 39.6176 15.7178 38.6544 16.681L40.1276 18.1542ZM29.4749 28.8069L40.1276 18.1542L38.6544 16.681L28.0017 27.3337L29.4749 28.8069ZM17.349 18.1542L28.0017 28.8069L29.4749 27.3337L18.8222 16.681L17.349 18.1542Z" fill="#FCE986" mask="url(#path-2-inside-1_1257_20551)"/>
<circle cx="28.3556" cy="27.8976" r="2.34389" fill="#FCE986"/>
</g>
<defs>
<filter id="filter0_b_1257_20551" x="-4.16692" y="-4.16692" width="65.3631" height="65.3641" filterUnits="userSpaceOnUse" color-interpolation-filters="sRGB">
<feFlood flood-opacity="0" result="BackgroundImageFix"/>
<feGaussianBlur in="BackgroundImage" stdDeviation="2.08346"/>
<feComposite in2="SourceAlpha" operator="in" result="effect1_backgroundBlur_1257_20551"/>
<feBlend mode="normal" in="SourceGraphic" in2="effect1_backgroundBlur_1257_20551" result="shape"/>
</filter>
<clipPath id="clip0_1257_20551">
<rect width="57.0299" height="57.0299" fill="white"/>
</clipPath>
</defs>
</svg>
