<svg width="58" height="58" viewBox="0 0 58 58" fill="none" xmlns="http://www.w3.org/2000/svg">
<g clip-path="url(#clip0_1257_20611)">
<g filter="url(#filter0_b_1257_20611)">
<rect x="0.0898438" width="57.0299" height="57.0169" rx="4.11085" fill="white" fill-opacity="0.1"/>
</g>
<path d="M29.7423 18.2107C30.229 18.2107 30.6684 18.4996 30.8996 18.9139C30.3057 18.9578 29.6928 18.9863 29.0103 19.014C28.4255 19.0136 27.8162 18.9712 27.2069 18.9176C27.4335 18.4911 27.8752 18.2107 28.3745 18.2107H28.8457V17.7395V14.0568C28.8457 13.9374 28.9387 13.8442 29.0584 13.8442C29.1781 13.8442 29.2712 13.9374 29.2712 14.0568V17.7395V18.2107H29.7423Z" stroke="#FCE986" stroke-width="0.942327"/>
<path d="M41.7919 21.5655L41.7943 21.5685C43.4735 23.6476 45.1993 27.9291 46.0663 32.2617C46.5547 34.7018 46.7383 36.8979 46.6087 38.7282C46.4785 40.5658 46.036 41.9903 45.3154 42.9329L45.3081 42.9424L45.3014 42.9522C45.0044 43.3844 44.3941 43.6484 43.6851 43.5851C42.8539 43.4979 41.9435 43.1733 40.9527 42.699C40.0176 42.2513 39.0422 41.6862 38.0208 41.0945C37.9611 41.0599 37.9012 41.0252 37.8411 40.9904C37.4891 40.7793 36.6479 40.3688 35.3297 39.7256C35.1291 39.6277 34.9174 39.5244 34.6947 39.4155L34.6905 39.4135C32.9661 38.5921 31.0852 38.0819 29.0843 37.964L29.0705 37.9632H29.0566H28.9795H28.9653L28.9512 37.964C26.9906 38.0819 25.0695 38.59 23.3452 39.4137L23.3451 39.4137L23.3411 39.4157C22.8917 39.6357 22.4776 39.8364 22.1111 40.014C21.7923 40.1685 21.5095 40.3055 21.2708 40.4226C20.7709 40.6679 20.3922 40.8602 20.186 40.9956C20.1268 41.0299 20.0677 41.0641 20.0088 41.0982C18.9898 41.6887 18.017 42.2523 17.0841 42.699C16.0923 43.1739 15.1808 43.4987 14.3478 43.5855L14.3388 43.5864L14.3298 43.5877C13.6911 43.6793 13.0409 43.3972 12.7346 42.952L12.7341 42.9514C12.0808 42.0052 11.6655 40.5726 11.5448 38.7312C11.4247 36.8979 11.5994 34.7001 12.0874 32.2617L12.0874 32.2617C12.9543 27.93 14.6796 23.6495 16.3584 21.5697C17.2987 20.4229 18.6963 19.8315 19.9457 20.0292L19.9823 20.035H20.0193C20.1022 20.035 20.1997 20.0564 20.287 20.0859L20.305 20.0919L20.3234 20.0965C23.0898 20.7884 26.046 21.2096 29.0402 21.325L29.0492 21.3253H29.0583H29.0954H29.0969V20.8931L29.1133 21.325C32.1449 21.2095 35.0642 20.7883 37.8303 20.0965L37.8461 20.0926L37.8615 20.0876C37.8615 20.0876 37.8636 20.0869 37.8685 20.0858C37.8736 20.0846 37.8808 20.0831 37.8907 20.0813C37.9119 20.0775 37.9367 20.0741 37.9732 20.0693L37.9866 20.0675C38.0468 20.0596 38.1347 20.048 38.2267 20.0263C39.4781 19.836 40.8642 20.3977 41.7919 21.5655L41.7919 21.5655ZM28.2749 34.1004L28.2761 34.084V34.0676C28.2761 33.3154 27.6487 32.6857 26.8941 32.6857H25.4892C24.7371 32.6857 24.1071 33.3128 24.1071 34.0676C24.1071 34.8197 24.7345 35.4494 25.4892 35.4494H26.8941C27.6648 35.4494 28.2227 34.8479 28.2749 34.1004ZM34.1246 34.1017L34.1258 34.0846V34.0676C34.1258 33.3154 33.4984 32.6857 32.7438 32.6857H31.3389C30.5868 32.6857 29.9569 33.3128 29.9569 34.0676C29.9569 34.8197 30.5843 35.4494 31.3389 35.4494H32.7438C33.5137 35.4494 34.0704 34.8475 34.1246 34.1017ZM22.0111 32.7388V30.9318H23.8186C24.4025 30.9318 24.8751 30.7083 25.1968 30.3463C25.5108 29.993 25.6576 29.5353 25.6576 29.0931C25.6576 28.1931 24.9945 27.2544 23.8186 27.2544H22.0111V25.4475C22.0111 24.8635 21.7875 24.3911 21.4254 24.0694C21.072 23.7555 20.6143 23.6088 20.1721 23.6088C19.2722 23.6088 18.3331 24.2715 18.3331 25.4475V27.2544H16.5256C15.9417 27.2544 15.4692 27.4779 15.1474 27.8399C14.8334 28.1932 14.6866 28.6509 14.6866 29.0931C14.6866 29.9931 15.3497 30.9318 16.5256 30.9318H18.3331V32.7388C18.3331 33.3227 18.5567 33.7951 18.9188 34.1168C19.2722 34.4308 19.7299 34.5774 20.1721 34.5774C21.072 34.5774 22.0111 33.9147 22.0111 32.7388ZM40.3164 25.9411C40.3164 24.6992 39.3134 23.6471 38.022 23.6471C36.7303 23.6471 35.7276 24.7009 35.7276 25.9411C35.7276 26.3981 35.8635 26.8295 36.0996 27.1922C35.7467 26.9674 35.3262 26.8359 34.8697 26.8359C33.6278 26.8359 32.5753 27.8385 32.5753 29.1299C32.5753 30.3717 33.5783 31.4239 34.8697 31.4239C35.3061 31.4239 35.7179 31.296 36.0689 31.0763C35.8533 31.424 35.7278 31.8356 35.7278 32.2816C35.7278 33.5235 36.7307 34.5756 38.0222 34.5756C39.3136 34.5756 40.3166 33.5235 40.3166 32.2816C40.3166 31.8498 40.1953 31.4409 39.9828 31.0912C40.3277 31.3016 40.7344 31.4239 41.1746 31.4239C42.4661 31.4239 43.4691 30.3717 43.4691 29.1299C43.4691 27.888 42.4661 26.8359 41.1746 26.8359C40.7266 26.8359 40.3033 26.9664 39.9451 27.1938C40.1791 26.8363 40.3164 26.4075 40.3164 25.9411ZM37.1641 29.1299C37.1641 28.6728 37.0282 28.2414 36.7921 27.8787C37.145 28.1036 37.5654 28.235 38.022 28.235C38.47 28.235 38.8934 28.1046 39.2515 27.8771C39.0176 28.2346 38.8802 28.6634 38.8802 29.1299C38.8802 29.5617 39.0015 29.9706 39.214 30.3203C38.8691 30.1099 38.4624 29.9876 38.0222 29.9876C37.5833 29.9876 37.1681 30.1128 36.8147 30.3317C37.0355 29.9802 37.1641 29.5675 37.1641 29.1299Z" stroke="#FCE986" stroke-width="0.942327"/>
</g>
<defs>
<filter id="filter0_b_1257_20611" x="-4.07707" y="-4.16692" width="65.3631" height="65.3504" filterUnits="userSpaceOnUse" color-interpolation-filters="sRGB">
<feFlood flood-opacity="0" result="BackgroundImageFix"/>
<feGaussianBlur in="BackgroundImage" stdDeviation="2.08346"/>
<feComposite in2="SourceAlpha" operator="in" result="effect1_backgroundBlur_1257_20611"/>
<feBlend mode="normal" in="SourceGraphic" in2="effect1_backgroundBlur_1257_20611" result="shape"/>
</filter>
<clipPath id="clip0_1257_20611">
<rect width="57.0299" height="57.0169" fill="white" transform="translate(0.0898438)"/>
</clipPath>
</defs>
</svg>
