<svg width="54" height="54" viewBox="0 0 54 54" fill="none" xmlns="http://www.w3.org/2000/svg">
<rect width="54" height="54" rx="27" fill="#FCE986"/>
<path d="M19.3524 14.6133V7.97763H23.3071V8.68112H20.1509V10.9057H23.0314V11.6092H20.1509V14.6133H19.3524ZM24.6627 14.6133V7.97763H28.7126V8.68112H25.4613V10.9057H28.5224V11.6092H25.4613V13.9098H28.7126V14.6133H24.6627ZM30.2052 7.97763H32.9336C33.485 7.97763 33.916 8.1329 34.2265 8.44345C34.5434 8.75401 34.7018 9.16913 34.7018 9.68883C34.7018 9.936 34.667 10.1451 34.5973 10.3163C34.5275 10.4874 34.4388 10.63 34.3311 10.7441C34.2233 10.8518 34.1061 10.9342 33.9793 10.9912C33.8526 11.0419 33.7353 11.0768 33.6276 11.0958V11.1529C33.748 11.1592 33.8811 11.1909 34.0269 11.2479C34.179 11.305 34.3216 11.3969 34.4547 11.5236C34.5878 11.644 34.6987 11.8025 34.7874 11.9989C34.8825 12.1891 34.93 12.4204 34.93 12.6929C34.93 12.9655 34.8856 13.219 34.7969 13.4535C34.7145 13.688 34.5973 13.8908 34.4452 14.0619C34.2931 14.233 34.1124 14.3693 33.9033 14.4707C33.6941 14.5657 33.466 14.6133 33.2188 14.6133H30.2052V7.97763ZM31.0037 13.9098H32.9716C33.3139 13.9098 33.5832 13.8242 33.7797 13.6531C33.9762 13.4757 34.0744 13.219 34.0744 12.8831V12.5598C34.0744 12.2239 33.9762 11.9704 33.7797 11.7993C33.5832 11.6218 33.3139 11.5331 32.9716 11.5331H31.0037V13.9098ZM31.0037 10.8486H32.8385C33.1554 10.8486 33.4026 10.7694 33.5801 10.611C33.7575 10.4525 33.8462 10.2244 33.8462 9.92649V9.60327C33.8462 9.30539 33.7575 9.07723 33.5801 8.91879C33.4026 8.76034 33.1554 8.68112 32.8385 8.68112H31.0037V10.8486Z" fill="#0A0A0A"/>
<path d="M12.7193 41.0312V37.6137H18.0293V24.3953H17.7751L13.7644 29.6487L11.0529 27.5304L15.7697 21.3166H22.266V37.6137H26.4461V41.0312H12.7193ZM35.4733 41.3702C32.8937 41.3702 30.9825 40.4758 29.7397 38.687C28.497 36.8981 27.8756 34.3938 27.8756 31.1739C27.8756 27.9541 28.497 25.4497 29.7397 23.6609C30.9825 21.8721 32.8937 20.9777 35.4733 20.9777C38.053 20.9777 39.9642 21.8721 41.207 23.6609C42.4497 25.4497 43.0711 27.9541 43.0711 31.1739C43.0711 34.3938 42.4497 36.8981 41.207 38.687C39.9642 40.4758 38.053 41.3702 35.4733 41.3702ZM35.4733 37.7831C36.6031 37.7831 37.3845 37.3689 37.8176 36.5404C38.2507 35.7119 38.4672 34.5444 38.4672 33.0381V29.3098C38.4672 27.8034 38.2507 26.636 37.8176 25.8075C37.3845 24.979 36.6031 24.5647 35.4733 24.5647C34.3436 24.5647 33.5621 24.979 33.129 25.8075C32.696 26.636 32.4794 27.8034 32.4794 29.3098V33.0381C32.4794 34.5444 32.696 35.7119 33.129 36.5404C33.5621 37.3689 34.3436 37.7831 35.4733 37.7831Z" fill="#0A0A0A"/>
</svg>
