<svg width="54" height="54" viewBox="0 0 54 54" fill="none" xmlns="http://www.w3.org/2000/svg">
<rect width="54" height="54" rx="27" fill="#FCE986"/>
<path d="M19.3524 14.6133V7.97763H23.3071V8.68112H20.1509V10.9057H23.0314V11.6092H20.1509V14.6133H19.3524ZM24.6627 14.6133V7.97763H28.7126V8.68112H25.4613V10.9057H28.5224V11.6092H25.4613V13.9098H28.7126V14.6133H24.6627ZM30.2052 7.97763H32.9336C33.485 7.97763 33.916 8.1329 34.2265 8.44345C34.5434 8.75401 34.7018 9.16913 34.7018 9.68883C34.7018 9.936 34.667 10.1451 34.5973 10.3163C34.5275 10.4874 34.4388 10.63 34.3311 10.7441C34.2233 10.8518 34.1061 10.9342 33.9793 10.9912C33.8526 11.0419 33.7353 11.0768 33.6276 11.0958V11.1529C33.748 11.1592 33.8811 11.1909 34.0269 11.2479C34.179 11.305 34.3216 11.3969 34.4547 11.5236C34.5878 11.644 34.6987 11.8025 34.7874 11.9989C34.8825 12.1891 34.93 12.4204 34.93 12.6929C34.93 12.9655 34.8856 13.219 34.7969 13.4535C34.7145 13.688 34.5973 13.8908 34.4452 14.0619C34.2931 14.233 34.1124 14.3693 33.9033 14.4707C33.6941 14.5657 33.466 14.6133 33.2188 14.6133H30.2052V7.97763ZM31.0037 13.9098H32.9716C33.3139 13.9098 33.5832 13.8242 33.7797 13.6531C33.9762 13.4757 34.0744 13.219 34.0744 12.8831V12.5598C34.0744 12.2239 33.9762 11.9704 33.7797 11.7993C33.5832 11.6218 33.3139 11.5331 32.9716 11.5331H31.0037V13.9098ZM31.0037 10.8486H32.8385C33.1554 10.8486 33.4026 10.7694 33.5801 10.611C33.7575 10.4525 33.8462 10.2244 33.8462 9.92649V9.60327C33.8462 9.30539 33.7575 9.07723 33.5801 8.91879C33.4026 8.76034 33.1554 8.68112 32.8385 8.68112H31.0037V10.8486Z" fill="#0A0A0A"/>
<path d="M28.0507 41.031V37.2463H19.3796V33.631L27.0621 21.3164H32.0896V33.9699H34.5751V37.2463H32.0896V41.031H28.0507ZM22.7689 33.9699H28.0507V25.6943H27.7682L22.7689 33.9699Z" fill="#0A0A0A"/>
</svg>
