<svg width="54" height="54" viewBox="0 0 54 54" fill="none" xmlns="http://www.w3.org/2000/svg">
<rect width="54" height="54" rx="27" fill="#FCE986"/>
<path d="M19.3524 14.6133V7.97763H23.3071V8.68112H20.1509V10.9057H23.0314V11.6092H20.1509V14.6133H19.3524ZM24.6627 14.6133V7.97763H28.7126V8.68112H25.4613V10.9057H28.5224V11.6092H25.4613V13.9098H28.7126V14.6133H24.6627ZM30.2052 7.97763H32.9336C33.485 7.97763 33.916 8.1329 34.2265 8.44345C34.5434 8.75401 34.7018 9.16913 34.7018 9.68883C34.7018 9.936 34.667 10.1451 34.5973 10.3163C34.5275 10.4874 34.4388 10.63 34.3311 10.7441C34.2233 10.8518 34.1061 10.9342 33.9793 10.9912C33.8526 11.0419 33.7353 11.0768 33.6276 11.0958V11.1529C33.748 11.1592 33.8811 11.1909 34.0269 11.2479C34.179 11.305 34.3216 11.3969 34.4547 11.5236C34.5878 11.644 34.6987 11.8025 34.7874 11.9989C34.8825 12.1891 34.93 12.4204 34.93 12.6929C34.93 12.9655 34.8856 13.219 34.7969 13.4535C34.7145 13.688 34.5973 13.8908 34.4452 14.0619C34.2931 14.233 34.1124 14.3693 33.9033 14.4707C33.6941 14.5657 33.466 14.6133 33.2188 14.6133H30.2052V7.97763ZM31.0037 13.9098H32.9716C33.3139 13.9098 33.5832 13.8242 33.7797 13.6531C33.9762 13.4757 34.0744 13.219 34.0744 12.8831V12.5598C34.0744 12.2239 33.9762 11.9704 33.7797 11.7993C33.5832 11.6218 33.3139 11.5331 32.9716 11.5331H31.0037V13.9098ZM31.0037 10.8486H32.8385C33.1554 10.8486 33.4026 10.7694 33.5801 10.611C33.7575 10.4525 33.8462 10.2244 33.8462 9.92649V9.60327C33.8462 9.30539 33.7575 9.07723 33.5801 8.91879C33.4026 8.76034 33.1554 8.68112 32.8385 8.68112H31.0037V10.8486Z" fill="#0A0A0A"/>
<path d="M33.2759 25.0166H24.3224L23.8987 31.2587H24.1247C24.313 30.7879 24.5201 30.3643 24.7461 29.9877C24.9908 29.5922 25.2733 29.2627 25.5934 28.9991C25.9135 28.7167 26.2995 28.5001 26.7514 28.3495C27.2033 28.1989 27.74 28.1235 28.3613 28.1235C29.2087 28.1235 29.9995 28.2648 30.7339 28.5472C31.4682 28.8296 32.1084 29.2439 32.6545 29.79C33.2006 30.3172 33.6336 30.9762 33.9537 31.7671C34.2739 32.5391 34.4339 33.4147 34.4339 34.3938C34.4339 35.3918 34.2644 36.3238 33.9255 37.19C33.6054 38.0373 33.1158 38.7717 32.4568 39.3931C31.8166 40.0144 31.0257 40.504 30.0843 40.8618C29.1428 41.2007 28.0695 41.3702 26.8644 41.3702C25.9041 41.3702 25.0567 41.2666 24.3224 41.0595C23.588 40.8524 22.9384 40.5793 22.3735 40.2404C21.8086 39.8826 21.3191 39.4778 20.9048 39.0259C20.4906 38.574 20.1328 38.0938 19.8315 37.5854L22.9102 35.1564C23.3433 35.9284 23.8611 36.5875 24.4636 37.1335C25.0662 37.6607 25.8758 37.9244 26.8926 37.9244C27.9094 37.9244 28.672 37.6325 29.1804 37.0488C29.7077 36.4651 29.9713 35.693 29.9713 34.7327V34.5068C29.9713 33.603 29.7077 32.8874 29.1804 32.3602C28.6532 31.833 27.9283 31.5694 27.0056 31.5694C26.2336 31.5694 25.5934 31.7294 25.085 32.0495C24.5954 32.3508 24.2188 32.6521 23.9552 32.9533L20.4811 32.4732L21.2155 21.3166H33.2759V25.0166Z" fill="#0A0A0A"/>
</svg>
