<svg width="54" height="54" viewBox="0 0 54 54" fill="none" xmlns="http://www.w3.org/2000/svg">
<rect width="54" height="54" rx="27" fill="#FCE986"/>
<path d="M19.3524 14.6133V7.97763H23.3071V8.68112H20.1509V10.9057H23.0314V11.6092H20.1509V14.6133H19.3524ZM24.6627 14.6133V7.97763H28.7126V8.68112H25.4613V10.9057H28.5224V11.6092H25.4613V13.9098H28.7126V14.6133H24.6627ZM30.2052 7.97763H32.9336C33.485 7.97763 33.916 8.1329 34.2265 8.44345C34.5434 8.75401 34.7018 9.16913 34.7018 9.68883C34.7018 9.936 34.667 10.1451 34.5973 10.3163C34.5275 10.4874 34.4388 10.63 34.3311 10.7441C34.2233 10.8518 34.1061 10.9342 33.9793 10.9912C33.8526 11.0419 33.7353 11.0768 33.6276 11.0958V11.1529C33.748 11.1592 33.8811 11.1909 34.0269 11.2479C34.179 11.305 34.3216 11.3969 34.4547 11.5236C34.5878 11.644 34.6987 11.8025 34.7874 11.9989C34.8825 12.1891 34.93 12.4204 34.93 12.6929C34.93 12.9655 34.8856 13.219 34.7969 13.4535C34.7145 13.688 34.5973 13.8908 34.4452 14.0619C34.2931 14.233 34.1124 14.3693 33.9033 14.4707C33.6941 14.5657 33.466 14.6133 33.2188 14.6133H30.2052V7.97763ZM31.0037 13.9098H32.9716C33.3139 13.9098 33.5832 13.8242 33.7797 13.6531C33.9762 13.4757 34.0744 13.219 34.0744 12.8831V12.5598C34.0744 12.2239 33.9762 11.9704 33.7797 11.7993C33.5832 11.6218 33.3139 11.5331 32.9716 11.5331H31.0037V13.9098ZM31.0037 10.8486H32.8385C33.1554 10.8486 33.4026 10.7694 33.5801 10.611C33.7575 10.4525 33.8462 10.2244 33.8462 9.92649V9.60327C33.8462 9.30539 33.7575 9.07723 33.5801 8.91879C33.4026 8.76034 33.1554 8.68112 32.8385 8.68112H31.0037V10.8486Z" fill="#0A0A0A"/>
<path d="M27.1186 41.3702C25.9512 41.3702 24.9061 41.1913 23.9835 40.8335C23.0608 40.4569 22.2794 39.9297 21.6392 39.2519C21.0178 38.5552 20.5376 37.7266 20.1987 36.7663C19.8786 35.806 19.7185 34.7327 19.7185 33.5465C19.7185 32.1719 19.9257 30.8727 20.3399 29.6487C20.773 28.406 21.3191 27.2668 21.9781 26.2312C22.656 25.1767 23.4092 24.2352 24.2377 23.4067C25.085 22.5782 25.9323 21.8815 26.7797 21.3166H32.6263C31.4212 22.1828 30.3385 23.0113 29.3781 23.8021C28.4178 24.5742 27.5799 25.3556 26.8644 26.1464C26.1677 26.9373 25.584 27.7469 25.1132 28.5754C24.6613 29.3851 24.3412 30.2607 24.1529 31.2022L24.4071 31.2869C24.5766 30.9103 24.7743 30.5431 25.0003 30.1854C25.245 29.8276 25.5369 29.5169 25.8758 29.2533C26.2336 28.9709 26.6479 28.7449 27.1186 28.5754C27.5893 28.406 28.1354 28.3212 28.7568 28.3212C29.5664 28.3212 30.3196 28.4719 31.0163 28.7732C31.7319 29.0556 32.3438 29.4604 32.8522 29.9877C33.3794 30.5149 33.7843 31.1645 34.0667 31.9365C34.368 32.6897 34.5186 33.5276 34.5186 34.4503C34.5186 35.4671 34.3398 36.3992 33.982 37.2465C33.6431 38.0938 33.1441 38.8282 32.485 39.4496C31.8448 40.0521 31.0728 40.5229 30.169 40.8618C29.2652 41.2007 28.2484 41.3702 27.1186 41.3702ZM27.1186 38.0656C28.0601 38.0656 28.7944 37.8114 29.3217 37.303C29.8489 36.7758 30.1125 36.032 30.1125 35.0717V34.5633C30.1125 33.603 29.8489 32.8686 29.3217 32.3602C28.7944 31.833 28.0601 31.5694 27.1186 31.5694C26.1771 31.5694 25.4428 31.833 24.9155 32.3602C24.3883 32.8686 24.1247 33.603 24.1247 34.5633V35.0717C24.1247 36.032 24.3883 36.7758 24.9155 37.303C25.4428 37.8114 26.1771 38.0656 27.1186 38.0656Z" fill="#0A0A0A"/>
</svg>
