<svg width="54" height="54" viewBox="0 0 54 54" fill="none" xmlns="http://www.w3.org/2000/svg">
<rect width="54" height="54" rx="27" fill="#FCE986"/>
<path d="M19.3524 14.6133V7.97763H23.3071V8.68112H20.1509V10.9057H23.0314V11.6092H20.1509V14.6133H19.3524ZM24.6627 14.6133V7.97763H28.7126V8.68112H25.4613V10.9057H28.5224V11.6092H25.4613V13.9098H28.7126V14.6133H24.6627ZM30.2052 7.97763H32.9336C33.485 7.97763 33.916 8.1329 34.2265 8.44345C34.5434 8.75401 34.7018 9.16913 34.7018 9.68883C34.7018 9.936 34.667 10.1451 34.5973 10.3163C34.5275 10.4874 34.4388 10.63 34.3311 10.7441C34.2233 10.8518 34.1061 10.9342 33.9793 10.9912C33.8526 11.0419 33.7353 11.0768 33.6276 11.0958V11.1529C33.748 11.1592 33.8811 11.1909 34.0269 11.2479C34.179 11.305 34.3216 11.3969 34.4547 11.5236C34.5878 11.644 34.6987 11.8025 34.7874 11.9989C34.8825 12.1891 34.93 12.4204 34.93 12.6929C34.93 12.9655 34.8856 13.219 34.7969 13.4535C34.7145 13.688 34.5973 13.8908 34.4452 14.0619C34.2931 14.233 34.1124 14.3693 33.9033 14.4707C33.6941 14.5657 33.466 14.6133 33.2188 14.6133H30.2052V7.97763ZM31.0037 13.9098H32.9716C33.3139 13.9098 33.5832 13.8242 33.7797 13.6531C33.9762 13.4757 34.0744 13.219 34.0744 12.8831V12.5598C34.0744 12.2239 33.9762 11.9704 33.7797 11.7993C33.5832 11.6218 33.3139 11.5331 32.9716 11.5331H31.0037V13.9098ZM31.0037 10.8486H32.8385C33.1554 10.8486 33.4026 10.7694 33.5801 10.611C33.7575 10.4525 33.8462 10.2244 33.8462 9.92649V9.60327C33.8462 9.30539 33.7575 9.07723 33.5801 8.91879C33.4026 8.76034 33.1554 8.68112 32.8385 8.68112H31.0037V10.8486Z" fill="#0A0A0A"/>
<path d="M27.0056 41.3702C25.8382 41.3702 24.7931 41.229 23.8705 40.9465C22.9667 40.6452 22.2041 40.2404 21.5827 39.732C20.9613 39.2236 20.4811 38.6211 20.1422 37.9244C19.8221 37.2277 19.6621 36.4651 19.6621 35.6366C19.6621 34.375 20.0104 33.3488 20.7071 32.5579C21.4038 31.7482 22.3453 31.1834 23.5315 30.8632V30.6373C22.5712 30.2795 21.7804 29.7335 21.159 28.9991C20.5565 28.2648 20.2552 27.3233 20.2552 26.1747C20.2552 25.4215 20.3964 24.7248 20.6789 24.0846C20.9801 23.4444 21.4132 22.8983 21.9781 22.4464C22.5618 21.9757 23.2679 21.6179 24.0964 21.3731C24.9438 21.1095 25.9135 20.9777 27.0056 20.9777C28.0977 20.9777 29.058 21.1095 29.8865 21.3731C30.7339 21.6179 31.44 21.9757 32.0049 22.4464C32.5886 22.8983 33.0217 23.4444 33.3041 24.0846C33.6054 24.7248 33.756 25.4215 33.756 26.1747C33.756 27.3233 33.4454 28.2648 32.824 28.9991C32.2214 29.7335 31.44 30.2795 30.4797 30.6373V30.8632C31.6659 31.1834 32.6074 31.7482 33.3041 32.5579C34.0008 33.3488 34.3492 34.375 34.3492 35.6366C34.3492 36.4651 34.1797 37.2277 33.8408 37.9244C33.5207 38.6211 33.0499 39.2236 32.4285 39.732C31.8072 40.2404 31.0352 40.6452 30.1125 40.9465C29.2087 41.229 28.1731 41.3702 27.0056 41.3702ZM27.0056 38.1221C27.9471 38.1221 28.6626 37.9055 29.1522 37.4725C29.6606 37.0205 29.9148 36.3992 29.9148 35.6083V35.0434C29.9148 34.2526 29.6606 33.6406 29.1522 33.2075C28.6626 32.7556 27.9471 32.5297 27.0056 32.5297C26.0641 32.5297 25.3392 32.7556 24.8308 33.2075C24.3412 33.6406 24.0964 34.2526 24.0964 35.0434V35.6083C24.0964 36.3992 24.3412 37.0205 24.8308 37.4725C25.3392 37.9055 26.0641 38.1221 27.0056 38.1221ZM27.0056 29.4228C27.9094 29.4228 28.5967 29.2157 29.0675 28.8014C29.5382 28.3683 29.7736 27.7846 29.7736 27.0502V26.5983C29.7736 25.864 29.5382 25.2897 29.0675 24.8754C28.5967 24.4423 27.9094 24.2258 27.0056 24.2258C26.1018 24.2258 25.4145 24.4423 24.9438 24.8754C24.473 25.2897 24.2377 25.864 24.2377 26.5983V27.0502C24.2377 27.7846 24.473 28.3683 24.9438 28.8014C25.4145 29.2157 26.1018 29.4228 27.0056 29.4228Z" fill="#0A0A0A"/>
</svg>
