<svg width="54" height="54" viewBox="0 0 54 54" fill="none" xmlns="http://www.w3.org/2000/svg">
<rect width="54" height="54" rx="27" fill="#FCE986"/>
<path d="M19.3524 14.6133V7.97763H23.3071V8.68112H20.1509V10.9057H23.0314V11.6092H20.1509V14.6133H19.3524ZM24.6627 14.6133V7.97763H28.7126V8.68112H25.4613V10.9057H28.5224V11.6092H25.4613V13.9098H28.7126V14.6133H24.6627ZM30.2052 7.97763H32.9336C33.485 7.97763 33.916 8.1329 34.2265 8.44345C34.5434 8.75401 34.7018 9.16913 34.7018 9.68883C34.7018 9.936 34.667 10.1451 34.5973 10.3163C34.5275 10.4874 34.4388 10.63 34.3311 10.7441C34.2233 10.8518 34.1061 10.9342 33.9793 10.9912C33.8526 11.0419 33.7353 11.0768 33.6276 11.0958V11.1529C33.748 11.1592 33.8811 11.1909 34.0269 11.2479C34.179 11.305 34.3216 11.3969 34.4547 11.5236C34.5878 11.644 34.6987 11.8025 34.7874 11.9989C34.8825 12.1891 34.93 12.4204 34.93 12.6929C34.93 12.9655 34.8856 13.219 34.7969 13.4535C34.7145 13.688 34.5973 13.8908 34.4452 14.0619C34.2931 14.233 34.1124 14.3693 33.9033 14.4707C33.6941 14.5657 33.466 14.6133 33.2188 14.6133H30.2052V7.97763ZM31.0037 13.9098H32.9716C33.3139 13.9098 33.5832 13.8242 33.7797 13.6531C33.9762 13.4757 34.0744 13.219 34.0744 12.8831V12.5598C34.0744 12.2239 33.9762 11.9704 33.7797 11.7993C33.5832 11.6218 33.3139 11.5331 32.9716 11.5331H31.0037V13.9098ZM31.0037 10.8486H32.8385C33.1554 10.8486 33.4026 10.7694 33.5801 10.611C33.7575 10.4525 33.8462 10.2244 33.8462 9.92649V9.60327C33.8462 9.30539 33.7575 9.07723 33.5801 8.91879C33.4026 8.76034 33.1554 8.68112 32.8385 8.68112H31.0037V10.8486Z" fill="#0A0A0A"/>
<path d="M34.2927 28.8014C34.2927 30.1948 34.0761 31.5035 33.6431 32.7274C33.2288 33.9513 32.6827 35.0905 32.0049 36.145C31.3458 37.1806 30.5927 38.1127 29.7453 38.9412C28.9168 39.7697 28.0789 40.4664 27.2316 41.0312H21.385C22.5901 40.1651 23.6728 39.346 24.6331 38.574C25.5934 37.7831 26.4219 36.9923 27.1186 36.2014C27.8341 35.4106 28.4178 34.6103 28.8698 33.8007C29.3217 32.9722 29.6512 32.0872 29.8583 31.1457L29.6041 31.061C29.4346 31.4376 29.2275 31.8047 28.9827 32.1625C28.7568 32.5203 28.4649 32.8404 28.1071 33.1228C27.7682 33.3864 27.3634 33.603 26.8926 33.7724C26.4219 33.9419 25.8758 34.0266 25.2545 34.0266C24.4448 34.0266 23.6822 33.8854 22.9667 33.603C22.27 33.3017 21.658 32.8874 21.1308 32.3602C20.6224 31.833 20.2175 31.1928 19.9163 30.4396C19.6338 29.6864 19.4926 28.8391 19.4926 27.8976C19.4926 26.8808 19.6621 25.9487 20.001 25.1014C20.3588 24.254 20.8577 23.5291 21.4979 22.9266C22.157 22.3052 22.9384 21.825 23.8422 21.4861C24.7461 21.1472 25.7629 20.9777 26.8926 20.9777C28.0601 20.9777 29.1051 21.166 30.0278 21.5426C30.9504 21.9003 31.7224 22.4276 32.3438 23.1243C32.984 23.8021 33.4642 24.6212 33.7843 25.5815C34.1232 26.5418 34.2927 27.6151 34.2927 28.8014ZM26.8926 30.7785C27.8341 30.7785 28.5685 30.5243 29.0957 30.0159C29.6229 29.4887 29.8865 28.7449 29.8865 27.7846V27.2762C29.8865 26.3159 29.6229 25.5815 29.0957 25.0731C28.5685 24.5459 27.8341 24.2823 26.8926 24.2823C25.9512 24.2823 25.2168 24.5459 24.6896 25.0731C24.1623 25.5815 23.8987 26.3159 23.8987 27.2762V27.7846C23.8987 28.7449 24.1623 29.4887 24.6896 30.0159C25.2168 30.5243 25.9512 30.7785 26.8926 30.7785Z" fill="#0A0A0A"/>
</svg>
