<svg width="58" height="58" viewBox="0 0 58 58" fill="none" xmlns="http://www.w3.org/2000/svg">
<g clip-path="url(#clip0_1257_20654)">
<g filter="url(#filter0_b_1257_20654)">
<rect x="0.150391" width="57.0299" height="57.0169" rx="4.11085" fill="white" fill-opacity="0.1"/>
</g>
<path d="M24.9797 30.2919V24.9794C24.9797 22.721 26.8202 20.8384 29.0808 20.8384C30.1694 20.8384 31.2155 21.2568 31.9673 22.051C32.7617 22.8451 33.1801 23.8502 33.1801 24.9794V28.8703C33.6819 28.9128 34.1428 29.0369 34.5613 29.2461C35.9425 27.8653 36.7793 25.9419 36.7793 23.8504C36.7793 19.5837 33.3485 16.1537 29.0809 16.1537C24.8539 16.1112 21.3809 19.5413 21.3809 23.8081C21.3809 26.5273 22.8454 28.9541 24.9801 30.2924L24.9797 30.2919Z" fill="#FCE986"/>
<path d="M38.1638 34.1435C38.1638 34.4021 38.3343 34.6298 38.5825 34.7025C38.8307 34.7752 39.0971 34.6755 39.2367 34.4577C39.5108 34.03 39.9579 33.7634 40.5034 33.7634C41.3138 33.7634 41.972 34.4234 41.972 35.2265V40.9168C41.972 42.6065 41.3621 44.1286 40.1798 45.3124C38.988 46.4631 37.419 47.1112 35.7761 47.1112H32.5545C30.4238 47.1112 28.4159 46.1831 27.0648 44.5234L27.0648 44.5234L27.062 44.5199L21.8752 38.246C21.8751 38.2458 21.8749 38.2456 21.8748 38.2454C21.6001 37.9112 21.4812 37.4886 21.5409 37.068C21.6041 36.6344 21.8127 36.2857 22.1639 36.05C22.7827 35.6509 23.5634 35.7221 24.0684 36.227L26.1592 38.3172C26.2765 38.4359 26.4357 38.5318 26.6374 38.5546C26.8131 38.5744 26.9637 38.5307 27.0513 38.5011C27.0781 38.492 27.1043 38.481 27.1295 38.4682C27.3283 38.3669 27.6142 38.1195 27.6142 37.6976V24.9808C27.6142 24.1735 28.2735 23.5141 29.0814 23.5141C29.4851 23.5141 29.8768 23.6713 30.1341 23.9286C30.3914 24.1858 30.5486 24.5774 30.5486 24.9808V24.981L30.5503 31.8853C30.5503 32.1439 30.7209 32.3715 30.9691 32.4441C31.2172 32.5168 31.4836 32.4171 31.6231 32.1994C31.8972 31.7716 32.3444 31.5051 32.8898 31.5051C33.6977 31.5051 34.357 32.1645 34.357 32.9718V33.0143C34.357 33.2729 34.5276 33.5006 34.7758 33.5733C35.024 33.646 35.2904 33.5463 35.4299 33.3286C35.704 32.9008 36.1512 32.6343 36.6966 32.6343C37.5045 32.6343 38.1638 33.2936 38.1638 34.101V34.1435Z" stroke="#FCE986" stroke-width="1.16491" stroke-linejoin="round"/>
<path d="M14.1426 23.6904H18.0256" stroke="#FCE986" stroke-width="1.55322" stroke-linecap="round"/>
<path d="M28.8984 8.5498L28.8984 12.4328" stroke="#FCE986" stroke-width="1.55322" stroke-linecap="round"/>
<path d="M18.0254 12.4316L20.7714 15.1771" stroke="#FCE986" stroke-width="1.55322" stroke-linecap="round"/>
<path d="M44.0703 23.6904H40.1873" stroke="#FCE986" stroke-width="1.55322" stroke-linecap="round"/>
<path d="M40.1875 12.4316L37.4415 15.1771" stroke="#FCE986" stroke-width="1.55322" stroke-linecap="round"/>
</g>
<defs>
<filter id="filter0_b_1257_20654" x="-4.01653" y="-4.16692" width="65.3631" height="65.3504" filterUnits="userSpaceOnUse" color-interpolation-filters="sRGB">
<feFlood flood-opacity="0" result="BackgroundImageFix"/>
<feGaussianBlur in="BackgroundImage" stdDeviation="2.08346"/>
<feComposite in2="SourceAlpha" operator="in" result="effect1_backgroundBlur_1257_20654"/>
<feBlend mode="normal" in="SourceGraphic" in2="effect1_backgroundBlur_1257_20654" result="shape"/>
</filter>
<clipPath id="clip0_1257_20654">
<rect width="57.0299" height="57.0169" fill="white" transform="translate(0.150391)"/>
</clipPath>
</defs>
</svg>
