<svg width="58" height="58" viewBox="0 0 58 58" fill="none" xmlns="http://www.w3.org/2000/svg">
<g clip-path="url(#clip0_1257_20594)">
<g filter="url(#filter0_b_1257_20594)">
<rect x="0.0605469" width="57.0299" height="57.0169" rx="4.11085" fill="white" fill-opacity="0.1"/>
</g>
<mask id="path-2-inside-1_1257_20594" fill="white">
<path fill-rule="evenodd" clip-rule="evenodd" d="M35.7433 25.4764L26.7553 28.3631L29.2585 21.0819L38.2465 18.1952L35.7433 25.4764ZM33.8689 35.3337L26.9264 29.2347L35.9846 26.3255L42.9271 32.4244L33.8689 35.3337ZM31.133 11.2264L38.0755 17.3253L29.0173 20.2346L22.0748 14.1356L31.133 11.2264ZM40.5946 40.5756L31.6066 43.4623L34.1099 36.1811L43.0979 33.2944L40.5946 40.5756ZM44.1968 32.4471C44.1816 32.4103 44.1537 32.388 44.1279 32.3564C44.1094 32.3311 44.1144 32.2983 44.0886 32.2771L36.5997 25.6944L39.363 17.6514C39.3747 17.6233 39.3547 17.5933 39.3592 17.5641C39.3664 17.5167 39.371 17.4771 39.3626 17.4294C39.3586 17.4116 39.3718 17.3935 39.3652 17.3731C39.3622 17.3636 39.3492 17.3609 39.3452 17.3483C39.3299 17.3115 39.302 17.2893 39.2762 17.2576C39.2577 17.2323 39.2628 17.1995 39.2369 17.1783L31.525 10.4017C31.5116 10.3869 31.4897 10.3939 31.4726 10.3838C31.4255 10.3503 31.3761 10.3419 31.3173 10.3313C31.2617 10.3197 31.2144 10.3071 31.157 10.3168C31.1388 10.3192 31.1202 10.3044 31.1014 10.3104L21.0679 13.5329C21.0537 13.5374 21.052 13.5536 21.0384 13.5597C21.0018 13.5749 20.9791 13.6013 20.9456 13.626C20.9224 13.6455 20.8913 13.6399 20.8728 13.6632C20.8586 13.6782 20.8641 13.7007 20.8556 13.7173C20.8361 13.7427 20.8202 13.7634 20.809 13.793C20.8042 13.805 20.7864 13.8089 20.7837 13.822L15.3319 31.3037C15.3228 31.3344 15.3434 31.3607 15.3389 31.3899C15.3336 31.4489 15.3384 31.4959 15.355 31.5531C15.3716 31.6102 15.3915 31.6506 15.4281 31.6944C15.4471 31.7213 15.4457 31.7547 15.4711 31.7743L30.6255 44.4893C30.6426 44.5046 30.665 44.5044 30.6831 44.5176C30.7023 44.5288 30.7173 44.5379 30.7375 44.547C30.7494 44.5519 30.7519 44.5649 30.7638 44.5698C30.7732 44.572 30.7821 44.5674 30.793 44.5691C30.873 44.592 30.9594 44.5972 31.041 44.571L41.0745 41.3485C41.203 41.3072 41.2858 41.2095 41.3338 41.0952C41.337 41.0838 41.3506 41.0829 41.3543 41.073L44.2146 32.7505C44.2263 32.7224 44.2063 32.6924 44.2108 32.6632C44.218 32.6158 44.2226 32.5762 44.2142 32.5285C44.2102 32.5107 44.2234 32.4926 44.2168 32.4722C44.2138 32.4627 44.2009 32.4596 44.1968 32.4471Z"/>
</mask>
<path d="M35.7433 25.4764L36.0147 26.3212C36.2811 26.2357 36.4915 26.0295 36.5824 25.765L35.7433 25.4764ZM26.7553 28.3631L25.9161 28.0746C25.8069 28.3922 25.8864 28.7442 26.1215 28.9841C26.3566 29.224 26.7069 29.3106 27.0267 29.2079L26.7553 28.3631ZM29.2585 21.0819L28.9871 20.2371C28.7207 20.3226 28.5103 20.5288 28.4194 20.7933L29.2585 21.0819ZM38.2465 18.1952L39.0857 18.4837C39.1949 18.1661 39.1154 17.8141 38.8803 17.5742C38.6452 17.3343 38.2949 17.2477 37.9751 17.3504L38.2465 18.1952ZM33.8689 35.3337L33.2832 36.0002C33.5177 36.2062 33.8432 36.2739 34.1403 36.1785L33.8689 35.3337ZM26.9264 29.2347L26.6549 28.3899C26.3508 28.4876 26.1226 28.7413 26.0576 29.0541C25.9926 29.3668 26.1007 29.6904 26.3408 29.9013L26.9264 29.2347ZM35.9846 26.3255L36.5703 25.6589C36.3358 25.4529 36.0103 25.3853 35.7132 25.4807L35.9846 26.3255ZM42.9271 32.4244L43.1986 33.2692C43.5028 33.1715 43.7309 32.9179 43.7959 32.6051C43.861 32.2923 43.7528 31.9687 43.5128 31.7579L42.9271 32.4244ZM31.133 11.2264L31.7187 10.5598C31.4842 10.3538 31.1587 10.2861 30.8616 10.3816L31.133 11.2264ZM38.0755 17.3253L38.347 18.1701C38.6511 18.0724 38.8793 17.8188 38.9443 17.506C39.0093 17.1932 38.9012 16.8696 38.6612 16.6587L38.0755 17.3253ZM29.0173 20.2346L28.4316 20.9011C28.6661 21.1071 28.9916 21.1748 29.2887 21.0794L29.0173 20.2346ZM22.0748 14.1356L21.8033 13.2908C21.4992 13.3885 21.271 13.6422 21.206 13.9549C21.1409 14.2677 21.2491 14.5913 21.4891 14.8022L22.0748 14.1356ZM40.5946 40.5756L40.8661 41.4204C41.1324 41.3349 41.3428 41.1287 41.4338 40.8642L40.5946 40.5756ZM31.6066 43.4623L30.7674 43.1738C30.6582 43.4914 30.7377 43.8434 30.9728 44.0833C31.2079 44.3232 31.5583 44.4098 31.878 44.3071L31.6066 43.4623ZM34.1099 36.1811L33.8384 35.3363C33.5721 35.4218 33.3617 35.628 33.2707 35.8925L34.1099 36.1811ZM43.0979 33.2944L43.9371 33.5829C44.0463 33.2654 43.9668 32.9133 43.7317 32.6734C43.4966 32.4335 43.1462 32.3469 42.8264 32.4496L43.0979 33.2944ZM44.1968 32.4471L45.0417 32.1757C45.0342 32.1524 45.0257 32.1294 45.0163 32.1067L44.1968 32.4471ZM44.1279 32.3564L43.4118 32.8803C43.4207 32.8925 43.4299 32.9044 43.4395 32.9162L44.1279 32.3564ZM44.0886 32.2771L43.5028 32.9435C43.5103 32.9501 43.518 32.9566 43.5257 32.963L44.0886 32.2771ZM36.5997 25.6944L35.7605 25.4061C35.6436 25.7462 35.7437 26.1233 36.0139 26.3608L36.5997 25.6944ZM39.363 17.6514L38.5443 17.309C38.5369 17.3268 38.53 17.3448 38.5238 17.363L39.363 17.6514ZM39.3592 17.5641L38.482 17.4302L38.4819 17.4302L39.3592 17.5641ZM39.3626 17.4294L40.2365 17.2757C40.2342 17.2622 40.2315 17.2488 40.2285 17.2354L39.3626 17.4294ZM39.3452 17.3483L40.19 17.0769C40.1825 17.0536 40.174 17.0306 40.1646 17.008L39.3452 17.3483ZM39.2762 17.2576L38.5601 17.7815C38.569 17.7937 38.5782 17.8057 38.5878 17.8174L39.2762 17.2576ZM39.2369 17.1783L38.6512 17.8448C38.6587 17.8514 38.6663 17.8579 38.674 17.8642L39.2369 17.1783ZM31.525 10.4017L30.8675 10.9975C30.89 11.0224 30.914 11.046 30.9393 11.0682L31.525 10.4017ZM31.4726 10.3838L30.9584 11.1069C30.9785 11.1212 30.9991 11.1346 31.0202 11.1471L31.4726 10.3838ZM31.3173 10.3313L31.1358 11.1998C31.1436 11.2015 31.1516 11.203 31.1595 11.2044L31.3173 10.3313ZM31.157 10.3168L31.2725 11.1966C31.2836 11.1952 31.2948 11.1935 31.3059 11.1916L31.157 10.3168ZM21.0384 13.5597L21.3793 14.379C21.3869 14.3758 21.3943 14.3726 21.4018 14.3693L21.0384 13.5597ZM20.9456 13.626L20.4202 12.9108C20.4037 12.9229 20.3877 12.9356 20.3721 12.9488L20.9456 13.626ZM20.8728 13.6632L21.5165 14.2741C21.5346 14.255 21.5518 14.2352 21.5681 14.2146L20.8728 13.6632ZM20.8556 13.7173L21.5587 14.2587C21.5918 14.2157 21.6209 14.1698 21.6456 14.1216L20.8556 13.7173ZM20.809 13.793L21.6323 14.1241C21.6345 14.1186 21.6367 14.1131 21.6388 14.1076L20.809 13.793ZM20.7837 13.822L21.6309 14.0862C21.6393 14.0593 21.6464 14.0319 21.6522 14.0043L20.7837 13.822ZM15.3319 31.3037L14.4847 31.0394L14.4816 31.0499L15.3319 31.3037ZM15.3389 31.3899L14.4617 31.256C14.4589 31.2742 14.4567 31.2925 14.455 31.3108L15.3389 31.3899ZM15.355 31.5531L16.207 31.3052L16.207 31.3052L15.355 31.5531ZM15.4281 31.6944L16.1525 31.182C16.1388 31.1627 16.1244 31.144 16.1093 31.1258L15.4281 31.6944ZM15.4711 31.7743L16.0414 31.0946C16.0326 31.0872 16.0236 31.08 16.0145 31.0729L15.4711 31.7743ZM30.6255 44.4893L31.2195 43.8301C31.2117 43.8231 31.2039 43.8163 31.1959 43.8096L30.6255 44.4893ZM30.6831 44.5176L30.1584 45.2332C30.1832 45.2514 30.2089 45.2682 30.2355 45.2837L30.6831 44.5176ZM30.7375 44.547L30.3727 45.3559C30.383 45.3605 30.3934 45.3649 30.4038 45.3692L30.7375 44.547ZM30.7638 44.5698L30.4302 45.392C30.4726 45.4091 30.5162 45.423 30.5607 45.4335L30.7638 44.5698ZM30.793 44.5691L31.0371 43.716C31.0016 43.7059 30.9656 43.698 30.9292 43.6923L30.793 44.5691ZM41.3338 41.0952L42.1519 41.4389C42.1659 41.4056 42.1778 41.3715 42.1877 41.3367L41.3338 41.0952ZM41.3543 41.073L42.1841 41.3875C42.1874 41.3789 42.1905 41.3702 42.1935 41.3615L41.3543 41.073ZM44.2146 32.7505L43.3959 32.4081C43.3885 32.4258 43.3817 32.4438 43.3754 32.462L44.2146 32.7505ZM44.2108 32.6632L43.3336 32.5293L43.3336 32.5293L44.2108 32.6632ZM44.2142 32.5285L45.0881 32.3748C45.0858 32.3613 45.0831 32.3479 45.0801 32.3345L44.2142 32.5285ZM35.4718 24.6316L26.4838 27.5183L27.0267 29.2079L36.0147 26.3212L35.4718 24.6316ZM27.5944 28.6517L30.0977 21.3704L28.4194 20.7933L25.9161 28.0746L27.5944 28.6517ZM29.53 21.9267L38.518 19.04L37.9751 17.3504L28.9871 20.2371L29.53 21.9267ZM37.4074 17.9066L34.9041 25.1879L36.5824 25.765L39.0857 18.4837L37.4074 17.9066ZM34.4545 34.6671L27.512 28.5682L26.3408 29.9013L33.2832 36.0002L34.4545 34.6671ZM27.1979 30.0796L36.2561 27.1703L35.7132 25.4807L26.6549 28.3899L27.1979 30.0796ZM35.399 26.9921L42.3415 33.091L43.5128 31.7579L36.5703 25.6589L35.399 26.9921ZM42.6557 31.5796L33.5974 34.4889L34.1403 36.1785L43.1986 33.2692L42.6557 31.5796ZM30.5474 11.8929L37.4899 17.9919L38.6612 16.6587L31.7187 10.5598L30.5474 11.8929ZM37.8041 16.4805L28.7458 19.3897L29.2887 21.0794L38.347 18.1701L37.8041 16.4805ZM29.6029 19.568L22.6604 13.4691L21.4891 14.8022L28.4316 20.9011L29.6029 19.568ZM22.3462 14.9804L31.4045 12.0712L30.8616 10.3816L21.8033 13.2908L22.3462 14.9804ZM40.3232 39.7308L31.3351 42.6175L31.878 44.3071L40.8661 41.4204L40.3232 39.7308ZM32.4458 43.7509L34.9491 36.4696L33.2707 35.8925L30.7674 43.1738L32.4458 43.7509ZM34.3813 37.0259L43.3693 34.1392L42.8264 32.4496L33.8384 35.3363L34.3813 37.0259ZM42.2587 33.0059L39.7554 40.2871L41.4338 40.8642L43.9371 33.5829L42.2587 33.0059ZM45.0163 32.1067C44.958 31.9662 44.881 31.8701 44.84 31.8223C44.8299 31.8106 44.8211 31.8008 44.8153 31.7943C44.8123 31.7911 44.8097 31.7881 44.8078 31.7861C44.8055 31.7836 44.8048 31.7828 44.8036 31.7815C44.7991 31.7765 44.8064 31.7844 44.8164 31.7966L43.4395 32.9162C43.4623 32.9443 43.4828 32.9667 43.4912 32.976C43.5043 32.9904 43.4977 32.9832 43.4926 32.9773C43.4759 32.9577 43.4205 32.8911 43.3774 32.7874L45.0163 32.1067ZM44.8441 31.8325C44.9054 31.9163 44.9368 31.9927 44.9515 32.0329C44.9586 32.0524 44.963 32.0672 44.9638 32.07C44.9642 32.0712 44.9646 32.0725 44.9637 32.0694C44.9631 32.0674 44.9615 32.062 44.9596 32.0558C44.9458 32.0108 44.8786 31.7776 44.6515 31.5912L43.5257 32.963C43.4793 32.9249 43.4384 32.8829 43.403 32.8384C43.3678 32.7943 43.341 32.7514 43.3205 32.7132C43.2823 32.6417 43.2646 32.5818 43.2624 32.5746C43.2616 32.5719 43.2611 32.57 43.2615 32.5716C43.2616 32.572 43.2631 32.5768 43.2645 32.5816C43.2675 32.5914 43.2741 32.6132 43.2837 32.6397C43.3035 32.6939 43.3412 32.7838 43.4118 32.8803L44.8441 31.8325ZM44.6744 31.6107L37.1856 25.028L36.0139 26.3608L43.5028 32.9435L44.6744 31.6107ZM37.439 25.9828L40.2022 17.9398L38.5238 17.363L35.7605 25.4061L37.439 25.9828ZM40.1817 17.9939C40.2433 17.8466 40.2561 17.7106 40.2539 17.6109C40.2519 17.5202 40.2368 17.4483 40.2334 17.4315C40.2323 17.426 40.2312 17.4211 40.2309 17.4197C40.2304 17.4173 40.2307 17.4185 40.231 17.4202C40.2317 17.4234 40.2348 17.4385 40.2377 17.4589C40.2435 17.4985 40.2534 17.5866 40.2364 17.6981L38.4819 17.4302C38.4627 17.5563 38.4735 17.6591 38.4813 17.7134C38.4854 17.7412 38.4898 17.7636 38.492 17.7742C38.4931 17.7796 38.4941 17.7845 38.4944 17.7857C38.4949 17.788 38.4946 17.7867 38.4942 17.7849C38.4935 17.7814 38.4904 17.7659 38.4873 17.7448C38.4843 17.7233 38.4804 17.6902 38.4796 17.6492C38.4777 17.5639 38.4886 17.4422 38.5443 17.309L40.1817 17.9939ZM40.2364 17.6981C40.2461 17.6346 40.2715 17.4741 40.2365 17.2757L38.4886 17.5832C38.4801 17.5348 38.4787 17.4908 38.4803 17.4563C38.4816 17.4284 38.4848 17.4112 38.482 17.4302L40.2364 17.6981ZM40.2285 17.2354C40.2576 17.3654 40.2496 17.472 40.2426 17.5278C40.239 17.5556 40.2349 17.5768 40.2332 17.5851C40.2327 17.5875 40.2323 17.5893 40.2321 17.5906C40.2318 17.5917 40.2316 17.5926 40.2316 17.5926C40.2312 17.5945 40.2323 17.5894 40.2328 17.5869C40.2343 17.58 40.2384 17.5607 40.2423 17.5365C40.2463 17.5115 40.251 17.4763 40.2532 17.434C40.2578 17.346 40.2513 17.2301 40.2101 17.1017L38.5204 17.6444C38.5019 17.5868 38.4907 17.5309 38.4849 17.4782C38.4791 17.4261 38.4789 17.3799 38.4808 17.342C38.4828 17.3046 38.4869 17.2741 38.4902 17.2539C38.4918 17.2436 38.4934 17.2352 38.4945 17.2293C38.4957 17.2235 38.4966 17.2191 38.4969 17.2176C38.4971 17.2168 38.4972 17.2163 38.4971 17.2166C38.4971 17.2168 38.4971 17.2168 38.497 17.2173C38.4969 17.2176 38.4968 17.2182 38.4966 17.2188C38.4962 17.221 38.495 17.2265 38.4936 17.2332C38.491 17.2461 38.486 17.2719 38.4819 17.3042C38.4737 17.3691 38.4656 17.4845 38.4967 17.6234L40.2285 17.2354ZM40.2101 17.1017C40.1967 17.06 40.1807 17.0208 40.163 16.9843C40.1453 16.9478 40.1264 16.915 40.1073 16.8857C40.0695 16.8276 40.0312 16.7836 40.0022 16.7533C39.9876 16.738 39.9744 16.7253 39.9637 16.7153C39.953 16.7055 39.9439 16.6975 39.9375 16.692C39.9313 16.6866 39.9263 16.6824 39.9243 16.6808C39.9237 16.6803 39.9233 16.6799 39.923 16.6797C39.9228 16.6796 39.9227 16.6795 39.9226 16.6794C39.9225 16.6793 39.9225 16.6793 39.9224 16.6793C39.9222 16.6791 39.9228 16.6796 39.9237 16.6803C39.9253 16.6816 39.9295 16.6851 39.9349 16.6899C39.9405 16.6947 39.9482 16.7015 39.9572 16.7098C39.9751 16.7265 40.0004 16.7515 40.0281 16.7844C40.0562 16.8178 40.0869 16.8594 40.1159 16.9096C40.1451 16.9603 40.1705 17.0162 40.19 17.0769L38.5003 17.6196C38.5208 17.6835 38.5475 17.7422 38.5782 17.7955C38.6087 17.8484 38.6411 17.8923 38.671 17.9279C38.7006 17.963 38.7279 17.99 38.7478 18.0085C38.7578 18.0178 38.7665 18.0255 38.7731 18.0312C38.7796 18.0368 38.7848 18.0412 38.7875 18.0434C38.7888 18.0446 38.7899 18.0455 38.7902 18.0457C38.7908 18.0462 38.7904 18.0458 38.7899 18.0455C38.789 18.0447 38.7849 18.0413 38.7797 18.0368C38.7743 18.0322 38.7661 18.025 38.7564 18.016C38.7466 18.0069 38.7343 17.9951 38.7205 17.9807C38.6932 17.9522 38.6566 17.91 38.62 17.8539C38.6016 17.8256 38.5832 17.7938 38.5661 17.7585C38.5489 17.723 38.5334 17.685 38.5204 17.6444L40.2101 17.1017ZM40.1646 17.008C40.1063 16.8675 40.0293 16.7714 39.9883 16.7236C39.9782 16.7118 39.9694 16.702 39.9636 16.6956C39.9607 16.6923 39.958 16.6894 39.9561 16.6873C39.9538 16.6848 39.9531 16.6841 39.9519 16.6827C39.9474 16.6778 39.9547 16.6856 39.9647 16.6979L38.5878 17.8174C38.6106 17.8455 38.6311 17.868 38.6395 17.8772C38.6526 17.8916 38.646 17.8845 38.641 17.8785C38.6242 17.859 38.5688 17.7924 38.5257 17.6886L40.1646 17.008ZM39.9924 16.7338C40.0537 16.8176 40.0851 16.8939 40.0998 16.9341C40.1069 16.9536 40.1113 16.9684 40.1122 16.9712C40.1125 16.9724 40.1129 16.9737 40.112 16.9706C40.1114 16.9686 40.1098 16.9632 40.1079 16.957C40.0941 16.912 40.0269 16.6788 39.7998 16.4924L38.674 17.8642C38.6276 17.8261 38.5867 17.7841 38.5513 17.7397C38.5161 17.6955 38.4893 17.6526 38.4689 17.6145C38.4306 17.5429 38.413 17.4831 38.4108 17.4759C38.4099 17.4731 38.4094 17.4713 38.4098 17.4729C38.41 17.4733 38.4114 17.4781 38.4128 17.4828C38.4158 17.4927 38.4224 17.5145 38.4321 17.5409C38.4518 17.5951 38.4895 17.6851 38.5601 17.7815L39.9924 16.7338ZM39.8227 16.5118L32.1107 9.73518L30.9393 11.0682L38.6512 17.8448L39.8227 16.5118ZM32.1825 9.80588C32.0675 9.67893 31.9361 9.60485 31.8247 9.56313C31.7268 9.52644 31.6434 9.51518 31.6277 9.51291C31.6222 9.5121 31.6173 9.51144 31.6167 9.51136C31.6148 9.5111 31.6173 9.51143 31.6203 9.51187C31.6263 9.51274 31.6456 9.51558 31.6708 9.52093C31.7216 9.53175 31.8178 9.55704 31.9249 9.62047L31.0202 11.1471C31.1358 11.2156 31.2413 11.2438 31.3014 11.2567C31.3312 11.263 31.3553 11.2666 31.366 11.2682C31.3714 11.2689 31.3762 11.2696 31.3767 11.2697C31.3784 11.2699 31.3758 11.2695 31.3726 11.2691C31.3665 11.2682 31.3456 11.2651 31.3187 11.2593C31.2911 11.2533 31.2503 11.2429 31.2024 11.225C31.1536 11.2067 31.0966 11.1803 31.0369 11.1416C30.9766 11.1025 30.9191 11.0545 30.8675 10.9975L32.1825 9.80588ZM31.9867 9.66067C31.7521 9.49386 31.5007 9.46276 31.4752 9.45815L31.1595 11.2044C31.1682 11.206 31.1725 11.2068 31.1769 11.2076C31.1808 11.2083 31.1817 11.2085 31.1808 11.2083C31.1796 11.2081 31.1661 11.2053 31.1461 11.1994C31.1005 11.1858 31.0311 11.1587 30.9584 11.1069L31.9867 9.66067ZM31.4989 9.46277C31.4945 9.46185 31.4907 9.46103 31.4822 9.45922C31.4751 9.4577 31.4645 9.45544 31.4529 9.45309C31.4299 9.44844 31.3944 9.44164 31.3523 9.43616C31.2623 9.42444 31.1445 9.4189 31.0082 9.44208L31.3059 11.1916C31.2269 11.205 31.1615 11.2009 31.1233 11.1959C31.1072 11.1938 31.0975 11.1917 31.1009 11.1924C31.1024 11.1927 31.1051 11.1933 31.1114 11.1946C31.1164 11.1957 31.1263 11.1978 31.1358 11.1998L31.4989 9.46277ZM31.0416 9.43706C31.1724 9.4199 31.2758 9.43724 31.3244 9.4474C31.3497 9.45266 31.3687 9.4579 31.3754 9.45977C31.3789 9.46077 31.3815 9.46152 31.3808 9.46131C31.3806 9.46127 31.3805 9.46124 31.3801 9.46113C31.3798 9.46103 31.3793 9.46088 31.3787 9.46071C31.3776 9.46038 31.3757 9.45984 31.3735 9.45921C31.363 9.45621 31.2962 9.43628 31.2106 9.42704C31.116 9.41682 30.9812 9.41702 30.8299 9.46562L31.3728 11.1552C31.2309 11.2008 31.1055 11.2006 31.0202 11.1914C30.9791 11.187 30.946 11.1803 30.9246 11.1754C30.9039 11.1707 30.8884 11.1662 30.8853 11.1653C30.884 11.1649 30.8821 11.1644 30.885 11.1652C30.8866 11.1657 30.8915 11.1671 30.8973 11.1688C30.9087 11.1719 30.9323 11.1784 30.9621 11.1846C31.02 11.1967 31.1325 11.215 31.2725 11.1966L31.0416 9.43706ZM30.8299 9.46562L20.7964 12.6881L21.3393 14.3777L31.3728 11.1552L30.8299 9.46562ZM20.7964 12.6881C20.7226 12.7118 20.6547 12.744 20.5936 12.7821C20.5331 12.8198 20.4846 12.86 20.4468 12.8959C20.4098 12.9312 20.3824 12.9633 20.3651 12.9847C20.3487 13.0051 20.3363 13.0223 20.3345 13.0248C20.3289 13.0325 20.3372 13.021 20.345 13.0108C20.3548 12.998 20.3735 12.9742 20.3997 12.9463C20.4554 12.887 20.5453 12.8084 20.675 12.7502L21.4018 14.3693C21.4681 14.3395 21.5262 14.3039 21.5764 14.2662C21.6259 14.2289 21.6648 14.1918 21.6938 14.1609C21.7223 14.1305 21.7432 14.1041 21.755 14.0887C21.761 14.0809 21.7657 14.0744 21.7682 14.0709C21.7697 14.0689 21.7732 14.0641 21.7714 14.0666C21.7711 14.0671 21.7683 14.0709 21.7645 14.0759C21.7606 14.0812 21.7545 14.0892 21.7467 14.0988C21.7315 14.1177 21.7063 14.1473 21.6716 14.1803C21.6362 14.2141 21.5902 14.2522 21.5326 14.2881C21.4743 14.3244 21.4096 14.3551 21.3393 14.3777L20.7964 12.6881ZM20.6975 12.7405C20.5683 12.7942 20.4785 12.8627 20.4357 12.8971C20.4252 12.9054 20.4163 12.9128 20.411 12.9172C20.4014 12.9253 20.4061 12.9214 20.4012 12.9255C20.3984 12.9278 20.4069 12.9206 20.4202 12.9108L21.471 14.3411C21.501 14.319 21.5249 14.2993 21.537 14.2892C21.5401 14.2866 21.543 14.2842 21.5449 14.2826C21.5471 14.2808 21.5481 14.28 21.5491 14.2791C21.551 14.2775 21.5493 14.279 21.546 14.2816C21.5321 14.2928 21.4719 14.3404 21.3793 14.379L20.6975 12.7405ZM20.3721 12.9488C20.4597 12.8747 20.544 12.8343 20.5968 12.8132C20.622 12.8031 20.6418 12.7967 20.6498 12.7942C20.6515 12.7936 20.6657 12.7892 20.6489 12.7944C20.6377 12.7978 20.5635 12.8193 20.4796 12.8629C20.3843 12.9124 20.2736 12.9906 20.1775 13.1118L21.5681 14.2146C21.5265 14.2671 21.4802 14.3125 21.4317 14.351C21.3836 14.3891 21.3374 14.4172 21.2978 14.4378C21.2589 14.458 21.2258 14.4712 21.2041 14.4792C21.1834 14.4868 21.1676 14.4916 21.166 14.492C21.1653 14.4923 21.1649 14.4924 21.1654 14.4922C21.1657 14.4921 21.1659 14.4921 21.1665 14.4919C21.1669 14.4918 21.1676 14.4916 21.1684 14.4913C21.1712 14.4905 21.1773 14.4886 21.1847 14.4863C21.1993 14.4817 21.2256 14.4731 21.2573 14.4604C21.323 14.4341 21.4199 14.3871 21.519 14.3032L20.3721 12.9488ZM20.2291 13.0524C20.0205 13.2721 19.9897 13.5238 19.9848 13.5557C19.9837 13.563 19.9812 13.5806 19.9826 13.5713C19.9828 13.5695 19.9848 13.5551 19.9885 13.5362C19.9954 13.5001 20.0142 13.4136 20.0656 13.3131L21.6456 14.1216C21.7012 14.0128 21.7225 13.9172 21.7312 13.8717C21.7358 13.8482 21.7385 13.829 21.7395 13.8225C21.7415 13.8083 21.7396 13.8211 21.7393 13.8236C21.7375 13.8349 21.7283 13.8986 21.7 13.9768C21.6688 14.0634 21.6135 14.1719 21.5165 14.2741L20.2291 13.0524ZM20.1524 13.176C20.138 13.1947 20.0429 13.3105 19.9792 13.4784L21.6388 14.1076C21.5976 14.2163 21.5341 14.2907 21.5587 14.2587L20.1524 13.176ZM19.9856 13.462C20.0493 13.3037 20.1434 13.2036 20.1932 13.1565C20.2187 13.1323 20.24 13.1152 20.2494 13.1077C20.2554 13.103 20.2671 13.0941 20.2565 13.1022C20.2522 13.1055 20.2348 13.1188 20.214 13.1366C20.1927 13.1548 20.1602 13.1843 20.1247 13.2243C20.0505 13.3078 19.9559 13.4457 19.9152 13.6396L21.6522 14.0043C21.6332 14.0947 21.6013 14.1752 21.5633 14.2444C21.5261 14.3123 21.4854 14.3648 21.4515 14.403C21.4181 14.4406 21.388 14.4678 21.3692 14.4839C21.351 14.4995 21.3363 14.5107 21.3346 14.512C21.3339 14.5125 21.3334 14.5129 21.3338 14.5126C21.3338 14.5126 21.3349 14.5118 21.336 14.5109C21.3382 14.5092 21.3434 14.5053 21.3498 14.5003C21.3618 14.4907 21.3857 14.4715 21.4136 14.445C21.4682 14.3934 21.5663 14.2884 21.6323 14.1241L19.9856 13.462ZM19.9365 13.5577L14.4848 31.0394L16.1791 31.5679L21.6309 14.0862L19.9365 13.5577ZM14.4816 31.0499C14.4418 31.1832 14.4379 31.3034 14.4452 31.3957C14.4517 31.4791 14.4685 31.5451 14.4717 31.558C14.4722 31.5604 14.4727 31.5624 14.4731 31.5636C14.4737 31.566 14.4733 31.5647 14.4737 31.5661C14.4739 31.567 14.4733 31.5647 14.4725 31.5613C14.471 31.5549 14.4668 31.5366 14.4628 31.5122C14.4546 31.4625 14.4442 31.3704 14.4617 31.256L16.2161 31.5239C16.2358 31.3949 16.2245 31.2885 16.2141 31.2247C16.2089 31.1932 16.2031 31.1679 16.2 31.1545C16.1983 31.1476 16.1969 31.1418 16.1963 31.1392C16.1952 31.135 16.1956 31.1366 16.1956 31.1367C16.196 31.138 16.1993 31.1516 16.2029 31.1702C16.2066 31.1896 16.2115 31.2193 16.2144 31.2563C16.2174 31.2938 16.2184 31.3397 16.2139 31.3918C16.2093 31.4444 16.1994 31.5001 16.1823 31.5574L14.4816 31.0499ZM14.455 31.3108C14.4398 31.4819 14.4561 31.6398 14.503 31.8009L16.207 31.3052C16.2111 31.3191 16.2181 31.3473 16.2218 31.3847C16.2255 31.4224 16.2243 31.4523 16.2228 31.469L14.455 31.3108ZM14.503 31.8009C14.548 31.9556 14.6196 32.1105 14.7469 32.263L16.1093 31.1258C16.1284 31.1487 16.1524 31.1823 16.1741 31.2247C16.1947 31.2651 16.2044 31.2961 16.207 31.3052L14.503 31.8009ZM14.7037 32.2069C14.6556 32.1389 14.6293 32.0792 14.6175 32.0502C14.6117 32.036 14.608 32.0255 14.6078 32.0251C14.6052 32.0178 14.6115 32.0355 14.6142 32.0428C14.6283 32.0811 14.7042 32.3026 14.9276 32.4757L16.0145 31.0729C16.1123 31.1487 16.1778 31.2341 16.2203 31.3059C16.2584 31.3705 16.2777 31.4244 16.2802 31.4314C16.2803 31.4316 16.2841 31.4421 16.2789 31.4275C16.2762 31.4199 16.2698 31.4021 16.2611 31.3808C16.2434 31.3374 16.2101 31.2633 16.1525 31.182L14.7037 32.2069ZM14.9007 32.454L30.0552 45.169L31.1959 43.8096L16.0414 31.0946L14.9007 32.454ZM30.0316 45.1485C30.1104 45.2194 30.1882 45.2654 30.2487 45.2951C30.3041 45.3222 30.3517 45.3385 30.3596 45.3413C30.3699 45.3449 30.3619 45.3421 30.3596 45.3413C30.3539 45.3392 30.3402 45.3342 30.3225 45.3267C30.2865 45.3114 30.2258 45.2826 30.1584 45.2332L31.2078 43.8021C31.1313 43.7461 31.061 43.7123 31.0152 43.6929C30.9926 43.6833 30.9739 43.6764 30.9632 43.6725C30.9578 43.6705 30.9533 43.669 30.951 43.6682C30.9499 43.6678 30.9488 43.6674 30.9485 43.6673C30.9479 43.6671 30.948 43.6671 30.9483 43.6672C30.9486 43.6673 30.9582 43.6706 30.971 43.6757C30.9844 43.681 31.005 43.6895 31.0296 43.7016C31.0546 43.7138 31.0846 43.7301 31.1173 43.7515C31.1503 43.773 31.1849 43.7989 31.2195 43.8301L30.0316 45.1485ZM30.2355 45.2837C30.2431 45.2882 30.3013 45.3236 30.3727 45.3559L31.1023 43.7382C31.11 43.7417 31.1174 43.7452 31.1243 43.7487C31.131 43.7521 31.1363 43.755 31.1396 43.7568C31.1427 43.7585 31.1442 43.7594 31.1424 43.7584C31.1416 43.7579 31.1404 43.7572 31.1383 43.756C31.1367 43.755 31.1335 43.7532 31.1307 43.7515L30.2355 45.2837ZM30.4038 45.3692C30.3449 45.3452 30.2921 45.3163 30.2457 45.285C30.1999 45.2541 30.1632 45.223 30.1351 45.1964C30.1076 45.1704 30.0873 45.1477 30.0756 45.1341C30.0696 45.1271 30.065 45.1215 30.0624 45.1183C30.06 45.1155 30.0581 45.1131 30.059 45.1142C30.059 45.1142 30.0618 45.1177 30.0651 45.1217C30.0686 45.126 30.0741 45.1327 30.0811 45.1407C30.0947 45.1566 30.1169 45.1814 30.1465 45.2094C30.1767 45.2379 30.2156 45.2709 30.264 45.3035C30.3128 45.3364 30.3682 45.3668 30.4302 45.392L31.0975 43.7476C31.1565 43.7716 31.2092 43.8005 31.2556 43.8318C31.3014 43.8627 31.3381 43.8938 31.3662 43.9203C31.3937 43.9464 31.414 43.9691 31.4257 43.9827C31.4317 43.9897 31.4364 43.9953 31.439 43.9984C31.4413 44.0013 31.4432 44.0037 31.4424 44.0026C31.4423 44.0026 31.4395 43.9991 31.4363 43.9951C31.4327 43.9908 31.4272 43.9841 31.4203 43.9761C31.4067 43.9602 31.3844 43.9354 31.3548 43.9074C31.3247 43.8789 31.2857 43.8459 31.2374 43.8134C31.1885 43.7804 31.1331 43.75 31.0712 43.7248L30.4038 45.3692ZM30.5607 45.4335C30.6621 45.4574 30.7487 45.4593 30.807 45.4569C30.8356 45.4558 30.8589 45.4535 30.8737 45.4518C30.8876 45.4503 30.8992 45.4486 30.9 45.4485C30.904 45.4479 30.8964 45.449 30.8881 45.45C30.8785 45.4512 30.8617 45.4531 30.8407 45.4544C30.7973 45.4571 30.7333 45.4578 30.6568 45.4459L30.9292 43.6923C30.8473 43.6796 30.778 43.6802 30.7297 43.6832C30.7061 43.6847 30.6869 43.6868 30.6748 43.6883C30.6687 43.689 30.6637 43.6897 30.6606 43.6901C30.6591 43.6903 30.6578 43.6905 30.657 43.6906C30.6566 43.6906 30.6563 43.6907 30.6561 43.6907C30.6558 43.6907 30.6558 43.6907 30.6557 43.6907C30.6541 43.691 30.6634 43.6896 30.6749 43.6883C30.6874 43.6869 30.7084 43.6849 30.7346 43.6838C30.7883 43.6816 30.8703 43.6833 30.967 43.7061L30.5607 45.4335ZM30.549 45.4222C30.7507 45.4799 31.0224 45.509 31.3124 45.4158L30.7695 43.7262C30.8965 43.6854 30.9953 43.7041 31.0371 43.716L30.549 45.4222ZM31.3124 45.4158L41.3459 42.1933L40.803 40.5037L30.7695 43.7262L31.3124 45.4158ZM41.3459 42.1933C41.7867 42.0518 42.0338 41.7202 42.1519 41.4389L40.5156 40.7516C40.5264 40.7259 40.5502 40.6797 40.5987 40.63C40.6504 40.577 40.7204 40.5302 40.803 40.5037L41.3459 42.1933ZM42.1877 41.3367C42.166 41.4135 42.1343 41.4851 42.0951 41.55C42.0564 41.6142 42.0142 41.6653 41.9761 41.7048C41.9388 41.7434 41.9049 41.7713 41.8824 41.7886C41.871 41.7974 41.8613 41.8044 41.8547 41.8091C41.8482 41.8137 41.8431 41.8171 41.8416 41.8181C41.8409 41.8186 41.8403 41.819 41.8408 41.8187C41.841 41.8185 41.8423 41.8177 41.8438 41.8166C41.8468 41.8146 41.8533 41.8102 41.8614 41.8044C41.8769 41.7934 41.9067 41.7716 41.9413 41.7407C41.9766 41.7092 42.0212 41.6644 42.0654 41.6047C42.1106 41.5438 42.1523 41.4714 42.1841 41.3875L40.5245 40.7585C40.5554 40.677 40.5959 40.6068 40.6395 40.5479C40.6823 40.4902 40.7252 40.4472 40.7587 40.4173C40.7913 40.3881 40.8192 40.3678 40.8326 40.3583C40.8397 40.3532 40.8452 40.3495 40.8471 40.3482C40.848 40.3476 40.8488 40.3471 40.8485 40.3473C40.8485 40.3473 40.8481 40.3475 40.8477 40.3478C40.8474 40.348 40.8468 40.3484 40.8461 40.3489C40.8421 40.3516 40.8225 40.3648 40.799 40.3829C40.7745 40.4018 40.7386 40.4313 40.6995 40.4718C40.6596 40.5131 40.6159 40.5663 40.5757 40.6327C40.5351 40.7 40.5024 40.774 40.4799 40.8537L42.1877 41.3367ZM42.1935 41.3615L45.0538 33.039L43.3754 32.462L40.5151 40.7845L42.1935 41.3615ZM45.0333 33.0929C45.0949 32.9457 45.1077 32.8097 45.1055 32.71C45.1035 32.6193 45.0884 32.5473 45.085 32.5306C45.0839 32.5251 45.0828 32.5201 45.0826 32.5188C45.082 32.5163 45.0823 32.5176 45.0827 32.5193C45.0833 32.5225 45.0864 32.5376 45.0893 32.558C45.0951 32.5976 45.105 32.6857 45.088 32.7972L43.3336 32.5293C43.3143 32.6554 43.3251 32.7582 43.333 32.8125C43.337 32.8403 43.3414 32.8627 43.3436 32.8733C43.3447 32.8787 43.3457 32.8835 43.346 32.8848C43.3465 32.8871 43.3462 32.8858 43.3458 32.884C43.3451 32.8805 43.342 32.865 43.339 32.8439C43.3359 32.8224 43.3321 32.7892 43.3312 32.7483C43.3293 32.663 43.3402 32.5413 43.3959 32.4081L45.0333 33.0929ZM45.088 32.7972C45.0977 32.7337 45.1231 32.5732 45.0881 32.3748L43.3403 32.6823C43.3317 32.6339 43.3303 32.5899 43.3319 32.5553C43.3332 32.5274 43.3365 32.5103 43.3336 32.5293L45.088 32.7972ZM45.0801 32.3345C45.1092 32.4645 45.1012 32.5711 45.0942 32.6268C45.0906 32.6547 45.0865 32.6759 45.0848 32.6842C45.0843 32.6865 45.0839 32.6884 45.0837 32.6896C45.0834 32.6908 45.0832 32.6916 45.0832 32.6917C45.0828 32.6935 45.0839 32.6885 45.0845 32.686C45.0859 32.6791 45.09 32.6598 45.0939 32.6356C45.0979 32.6106 45.1026 32.5754 45.1048 32.5331C45.1094 32.4451 45.1029 32.3292 45.0617 32.2008L43.372 32.7435C43.3535 32.6859 43.3423 32.63 43.3365 32.5773C43.3307 32.5252 43.3305 32.479 43.3324 32.4411C43.3344 32.4036 43.3385 32.3732 43.3418 32.353C43.3434 32.3427 43.345 32.3343 43.3461 32.3284C43.3473 32.3226 43.3482 32.3182 43.3485 32.3167C43.3487 32.3159 43.3488 32.3154 43.3487 32.3157C43.3487 32.3159 43.3487 32.3159 43.3486 32.3164C43.3485 32.3167 43.3484 32.3173 43.3482 32.3179C43.3478 32.3201 43.3466 32.3256 43.3452 32.3323C43.3426 32.3452 43.3376 32.371 43.3335 32.4033C43.3253 32.4681 43.3172 32.5836 43.3483 32.7225L45.0801 32.3345ZM45.0617 32.2008C45.0349 32.1176 44.9989 32.0469 44.9615 31.9888C44.9249 31.9319 44.888 31.8887 44.8601 31.859C44.846 31.8439 44.8333 31.8314 44.823 31.8216C44.8128 31.8119 44.804 31.804 44.7978 31.7985C44.7918 31.7932 44.787 31.7891 44.7851 31.7874C44.7845 31.787 44.7841 31.7866 44.7838 31.7863C44.7836 31.7862 44.7835 31.7861 44.7834 31.786C44.7833 31.7859 44.7833 31.786 44.7832 31.7859C44.783 31.7857 44.7836 31.7862 44.7844 31.7869C44.7859 31.7882 44.79 31.7917 44.7952 31.7963C44.8005 31.801 44.8079 31.8077 44.8165 31.8159C44.8337 31.8323 44.858 31.8568 44.8847 31.889C44.9117 31.9217 44.9413 31.9624 44.9694 32.0115C44.9977 32.0611 45.0225 32.116 45.0417 32.1757L43.352 32.7184C43.3722 32.7813 43.3983 32.839 43.4281 32.8912C43.4576 32.9429 43.489 32.986 43.5178 33.0209C43.5463 33.0553 43.5726 33.0819 43.5918 33.1001C43.6014 33.1093 43.6098 33.1169 43.6162 33.1226C43.6224 33.1281 43.6275 33.1325 43.63 33.1347C43.6313 33.1358 43.6324 33.1367 43.6327 33.137C43.6333 33.1375 43.6329 33.1371 43.6324 33.1367C43.6315 33.136 43.6277 33.1327 43.6226 33.1282C43.6175 33.1237 43.6097 33.1166 43.6003 33.1078C43.591 33.0989 43.5791 33.0872 43.5659 33.0731C43.5397 33.0452 43.5043 33.0038 43.4691 32.949C43.433 32.8929 43.398 32.8244 43.372 32.7435L45.0617 32.2008Z" fill="#FCE986" mask="url(#path-2-inside-1_1257_20594)"/>
</g>
<defs>
<filter id="filter0_b_1257_20594" x="-4.10637" y="-4.16692" width="65.3631" height="65.3504" filterUnits="userSpaceOnUse" color-interpolation-filters="sRGB">
<feFlood flood-opacity="0" result="BackgroundImageFix"/>
<feGaussianBlur in="BackgroundImage" stdDeviation="2.08346"/>
<feComposite in2="SourceAlpha" operator="in" result="effect1_backgroundBlur_1257_20594"/>
<feBlend mode="normal" in="SourceGraphic" in2="effect1_backgroundBlur_1257_20594" result="shape"/>
</filter>
<clipPath id="clip0_1257_20594">
<rect width="57.0299" height="57.0169" fill="white" transform="translate(0.0605469)"/>
</clipPath>
</defs>
</svg>
