<svg width="429" height="277" viewBox="0 0 429 277" fill="none" xmlns="http://www.w3.org/2000/svg">
<g filter="url(#filter0_b_1005_19580)">
<path fill-rule="evenodd" clip-rule="evenodd" d="M304.486 8.94283C304.486 4.00398 308.489 0.000244141 313.428 0.000244141L419.604 0.000244141C424.542 0.000244141 428.546 4.00397 428.546 8.94282V115.118C428.546 120.057 424.542 124.061 419.604 124.061H313.428C308.489 124.061 304.486 120.057 304.486 115.118V8.94283ZM313.427 152.243C308.488 152.243 304.484 156.247 304.484 161.186V267.361C304.484 272.3 308.488 276.304 313.427 276.304H419.602C424.541 276.304 428.545 272.3 428.545 267.361V161.186C428.545 156.247 424.541 152.243 419.602 152.243H313.427ZM8.9416 152.45C4.00275 152.45 -0.000976562 156.454 -0.000976562 161.393V267.568C-0.000976562 272.507 4.00276 276.511 8.94161 276.511H115.117C120.056 276.511 124.06 272.507 124.06 267.568V161.393C124.06 156.454 120.056 152.45 115.117 152.45H8.9416ZM8.94271 0.000520769C4.00386 0.000520769 0.000129949 4.00425 0.000129949 8.9431V115.119C0.000129949 120.057 4.00386 124.061 8.94271 124.061H115.118C120.057 124.061 124.061 120.057 124.061 115.119V8.9431C124.061 4.00425 120.057 0.000520769 115.118 0.000520769L8.94271 0.000520769ZM152.45 8.94338C152.45 4.00453 156.453 0.000797396 161.392 0.000797396L267.568 0.000797396C272.507 0.000797396 276.51 4.00453 276.51 8.94338V115.119C276.51 120.058 272.507 124.061 267.568 124.061L161.392 124.061C156.454 124.061 152.45 120.058 152.45 115.119V8.94338ZM161.818 152.451C156.88 152.451 152.876 156.454 152.876 161.393V267.569C152.876 272.508 156.88 276.511 161.818 276.511H267.994C272.933 276.511 276.936 272.508 276.936 267.569V161.393C276.936 156.454 272.933 152.451 267.994 152.451H161.818Z" fill="url(#paint0_linear_1005_19580)" fill-opacity="0.1"/>
</g>
<path d="M396.965 189.722V190.572H397.815H401.075C401.79 190.572 402.321 191.145 402.321 191.742V230.868C402.321 231.564 401.771 232.114 401.076 232.114H331.513C330.818 232.114 330.268 231.564 330.268 230.868V191.817C330.268 191.122 330.818 190.572 331.513 190.572C331.513 190.572 331.513 190.572 331.513 190.572L334.773 190.575L335.623 190.576V189.725V186.077C335.623 185.72 335.81 185.334 336.093 185.099L336.093 185.099L336.095 185.097C336.419 184.826 336.77 184.733 337.052 184.803L337.073 184.808L337.094 184.812L354.767 188.275C354.364 188.968 354.109 189.769 354.109 190.656L354.109 190.678L339.222 187.757C338.609 187.636 338.039 188.106 338.039 188.73V223.379C338.039 223.853 338.375 224.261 338.84 224.352L363.867 229.264C364.479 229.384 365.049 228.915 365.049 228.291V202.369C365.32 202.42 365.605 202.45 365.907 202.45C366.489 202.45 367.038 202.33 367.541 202.132L367.544 228.288C367.544 228.912 368.114 229.381 368.727 229.261L393.674 224.349C394.139 224.258 394.475 223.85 394.475 223.376V188.808C394.475 188.185 393.907 187.717 393.296 187.834L383.133 189.785C383.556 188.581 384.294 187.583 385.271 186.871L395.464 184.816C395.873 184.773 396.238 184.882 396.496 185.096C396.779 185.331 396.965 185.718 396.965 186.074V189.722Z" stroke="#FCE986" stroke-width="1.6996"/>
<path d="M370.932 180.953C374.377 179.798 377.074 177.08 378.254 173.581C379.439 177.038 382.144 179.801 385.603 180.959C382.154 182.147 379.397 184.849 378.241 188.302C377.057 184.865 374.369 182.115 370.932 180.953Z" stroke="#FCE986" stroke-width="1.6996"/>
<path d="M360.444 190.739C362.971 189.772 364.96 187.778 365.92 185.248C366.921 187.776 368.909 189.775 371.404 190.742C368.87 191.741 366.866 193.731 365.897 196.232C364.903 193.709 362.927 191.712 360.444 190.739Z" stroke="#FCE986" stroke-width="1.6996"/>
<path d="M361.416 180.989C360.482 178.508 358.484 176.564 356.011 175.605C358.502 174.667 360.45 172.658 361.406 170.174C362.366 172.657 364.321 174.617 366.801 175.584C364.319 176.518 362.375 178.516 361.416 180.989Z" stroke="#FCE986" stroke-width="1.6996"/>
<path d="M333.057 259.836C332.23 259.836 331.524 259.686 330.941 259.385C330.367 259.084 329.874 258.679 329.46 258.172L330.56 257.142C330.908 257.565 331.289 257.885 331.703 258.101C332.126 258.317 332.606 258.425 333.142 258.425C333.772 258.425 334.247 258.284 334.567 258.002C334.887 257.72 335.047 257.339 335.047 256.859C335.047 256.474 334.934 256.168 334.708 255.942C334.482 255.717 334.083 255.547 333.509 255.435L332.634 255.279C331.675 255.101 330.955 254.786 330.476 254.334C329.996 253.883 329.756 253.262 329.756 252.472C329.756 252.039 329.836 251.649 329.996 251.301C330.165 250.943 330.396 250.647 330.687 250.412C330.988 250.167 331.35 249.979 331.774 249.848C332.197 249.716 332.672 249.65 333.198 249.65C333.942 249.65 334.586 249.782 335.131 250.045C335.677 250.299 336.142 250.671 336.528 251.16L335.413 252.147C335.16 251.818 334.849 251.555 334.482 251.357C334.116 251.16 333.659 251.061 333.114 251.061C332.55 251.061 332.112 251.174 331.802 251.4C331.491 251.625 331.336 251.955 331.336 252.387C331.336 252.801 331.463 253.111 331.717 253.318C331.971 253.516 332.366 253.666 332.902 253.77L333.777 253.953C334.765 254.141 335.484 254.461 335.935 254.913C336.396 255.364 336.627 255.985 336.627 256.775C336.627 257.236 336.547 257.654 336.387 258.03C336.227 258.407 335.992 258.731 335.682 259.004C335.381 259.267 335.009 259.474 334.567 259.625C334.125 259.766 333.622 259.836 333.057 259.836ZM340.432 259.667C339.896 259.667 339.491 259.531 339.218 259.258C338.946 258.976 338.809 258.581 338.809 258.073V253.586H337.667V252.331H338.287C338.541 252.331 338.715 252.274 338.809 252.161C338.913 252.049 338.965 251.865 338.965 251.611V250.327H340.347V252.331H341.885V253.586H340.347V258.411H341.772V259.667H340.432ZM346.376 259.836C345.868 259.836 345.403 259.747 344.979 259.568C344.565 259.39 344.213 259.136 343.921 258.806C343.63 258.468 343.404 258.063 343.244 257.593C343.084 257.113 343.004 256.582 343.004 255.999C343.004 255.416 343.084 254.889 343.244 254.419C343.404 253.939 343.63 253.535 343.921 253.205C344.213 252.867 344.565 252.608 344.979 252.429C345.403 252.251 345.868 252.161 346.376 252.161C346.884 252.161 347.345 252.251 347.759 252.429C348.182 252.608 348.539 252.867 348.831 253.205C349.122 253.535 349.348 253.939 349.508 254.419C349.668 254.889 349.748 255.416 349.748 255.999C349.748 256.582 349.668 257.113 349.508 257.593C349.348 258.063 349.122 258.468 348.831 258.806C348.539 259.136 348.182 259.39 347.759 259.568C347.345 259.747 346.884 259.836 346.376 259.836ZM346.376 258.567C346.903 258.567 347.326 258.407 347.646 258.087C347.965 257.758 348.125 257.269 348.125 256.62V255.378C348.125 254.729 347.965 254.245 347.646 253.925C347.326 253.596 346.903 253.431 346.376 253.431C345.849 253.431 345.426 253.596 345.106 253.925C344.786 254.245 344.627 254.729 344.627 255.378V256.62C344.627 257.269 344.786 257.758 345.106 258.087C345.426 258.407 345.849 258.567 346.376 258.567ZM351.461 259.667V252.331H352.999V253.742H353.07C353.173 253.365 353.389 253.036 353.719 252.754C354.048 252.472 354.504 252.331 355.087 252.331H355.496V253.812H354.89C354.278 253.812 353.808 253.911 353.479 254.108C353.159 254.306 352.999 254.597 352.999 254.983V259.667H351.461ZM361.487 252.331H362.968L359.878 261.12C359.794 261.365 359.695 261.572 359.582 261.741C359.479 261.92 359.352 262.061 359.201 262.164C359.06 262.277 358.886 262.357 358.679 262.404C358.472 262.46 358.228 262.489 357.945 262.489H357.057V261.233H358.298L358.721 259.991L356.055 252.331H357.593L359.06 256.648L359.483 258.242H359.554L360.019 256.648L361.487 252.331ZM366.265 259.667C365.729 259.667 365.324 259.531 365.051 259.258C364.779 258.976 364.642 258.581 364.642 258.073V253.586H363.499V252.331H364.12C364.374 252.331 364.548 252.274 364.642 252.161C364.746 252.049 364.797 251.865 364.797 251.611V250.327H366.18V252.331H367.718V253.586H366.18V258.411H367.605V259.667H366.265ZM372.209 259.836C371.682 259.836 371.212 259.747 370.798 259.568C370.384 259.39 370.031 259.136 369.74 258.806C369.448 258.468 369.223 258.063 369.063 257.593C368.912 257.113 368.837 256.582 368.837 255.999C368.837 255.416 368.912 254.889 369.063 254.419C369.223 253.939 369.448 253.535 369.74 253.205C370.031 252.867 370.384 252.608 370.798 252.429C371.212 252.251 371.682 252.161 372.209 252.161C372.745 252.161 373.215 252.255 373.62 252.444C374.033 252.632 374.377 252.895 374.65 253.234C374.922 253.563 375.124 253.948 375.256 254.391C375.397 254.833 375.468 255.308 375.468 255.815V256.394H370.431V256.634C370.431 257.198 370.596 257.664 370.925 258.03C371.264 258.388 371.743 258.567 372.364 258.567C372.815 258.567 373.196 258.468 373.507 258.27C373.817 258.073 374.08 257.805 374.297 257.466L375.2 258.355C374.927 258.806 374.532 259.169 374.015 259.441C373.497 259.705 372.895 259.836 372.209 259.836ZM372.209 253.361C371.945 253.361 371.701 253.408 371.475 253.502C371.259 253.596 371.071 253.727 370.911 253.897C370.76 254.066 370.643 254.268 370.558 254.503C370.474 254.739 370.431 254.997 370.431 255.279V255.378H373.845V255.237C373.845 254.673 373.7 254.221 373.408 253.883C373.116 253.535 372.717 253.361 372.209 253.361ZM378.736 259.667C378.209 259.667 377.814 259.535 377.551 259.272C377.297 258.999 377.17 258.623 377.17 258.143V249.227H378.708V258.411H379.724V259.667H378.736ZM382.677 259.667C382.15 259.667 381.755 259.535 381.491 259.272C381.237 258.999 381.111 258.623 381.111 258.143V249.227H382.648V258.411H383.664V259.667H382.677ZM385.909 251.019C385.59 251.019 385.355 250.943 385.204 250.793C385.063 250.642 384.992 250.45 384.992 250.215V249.975C384.992 249.74 385.063 249.547 385.204 249.396C385.355 249.246 385.59 249.171 385.909 249.171C386.229 249.171 386.46 249.246 386.601 249.396C386.742 249.547 386.812 249.74 386.812 249.975V250.215C386.812 250.45 386.742 250.642 386.601 250.793C386.46 250.943 386.229 251.019 385.909 251.019ZM385.134 252.331H386.671V259.667H385.134V252.331ZM388.867 259.667V252.331H390.405V253.544H390.476C390.635 253.149 390.875 252.82 391.195 252.556C391.524 252.293 391.971 252.161 392.535 252.161C393.288 252.161 393.871 252.411 394.285 252.909C394.708 253.398 394.92 254.099 394.92 255.011V259.667H393.382V255.209C393.382 254.061 392.921 253.488 391.999 253.488C391.802 253.488 391.604 253.516 391.407 253.572C391.219 253.619 391.049 253.695 390.899 253.798C390.748 253.901 390.626 254.033 390.532 254.193C390.447 254.353 390.405 254.541 390.405 254.757V259.667H388.867ZM403.484 260.358C403.484 261.12 403.193 261.694 402.61 262.079C402.027 262.465 401.077 262.658 399.76 262.658C399.158 262.658 398.645 262.616 398.222 262.531C397.808 262.456 397.465 262.343 397.192 262.192C396.929 262.042 396.736 261.858 396.614 261.642C396.491 261.426 396.43 261.177 396.43 260.894C396.43 260.49 396.539 260.175 396.755 259.949C396.981 259.723 397.291 259.568 397.686 259.484V259.328C397.131 259.15 396.854 258.773 396.854 258.2C396.854 257.824 396.981 257.537 397.235 257.339C397.488 257.132 397.794 256.986 398.152 256.902V256.845C397.719 256.638 397.385 256.352 397.15 255.985C396.924 255.609 396.811 255.171 396.811 254.673C396.811 253.92 397.061 253.314 397.559 252.853C398.067 252.392 398.791 252.161 399.732 252.161C400.249 252.161 400.691 252.237 401.058 252.387V252.19C401.058 251.86 401.133 251.607 401.284 251.428C401.443 251.24 401.688 251.146 402.017 251.146H403.146V252.387H401.65V252.683C401.98 252.9 402.234 253.182 402.412 253.53C402.591 253.869 402.68 254.249 402.68 254.673C402.68 255.416 402.426 256.018 401.918 256.479C401.411 256.93 400.686 257.156 399.746 257.156C399.388 257.156 399.069 257.118 398.786 257.043C398.598 257.109 398.434 257.203 398.293 257.325C398.152 257.438 398.081 257.588 398.081 257.776C398.081 257.974 398.17 258.115 398.349 258.2C398.528 258.284 398.782 258.327 399.111 258.327H400.917C401.82 258.327 402.473 258.51 402.878 258.877C403.282 259.234 403.484 259.728 403.484 260.358ZM402.045 260.528C402.045 260.274 401.947 260.071 401.749 259.921C401.561 259.77 401.213 259.695 400.705 259.695H398.222C397.883 259.893 397.714 260.175 397.714 260.542C397.714 260.843 397.832 261.083 398.067 261.261C398.311 261.449 398.721 261.543 399.294 261.543H400.254C401.448 261.543 402.045 261.205 402.045 260.528ZM399.746 256.041C400.197 256.041 400.545 255.942 400.79 255.745C401.044 255.538 401.171 255.223 401.171 254.8V254.518C401.171 254.094 401.044 253.784 400.79 253.586C400.545 253.379 400.197 253.276 399.746 253.276C399.294 253.276 398.942 253.379 398.688 253.586C398.443 253.784 398.321 254.094 398.321 254.518V254.8C398.321 255.223 398.443 255.538 398.688 255.745C398.942 255.942 399.294 256.041 399.746 256.041Z" fill="white"/>
<path d="M22.1061 259.874L18.8753 250.026H20.526L22.092 254.893L23.0372 258.322H23.0937L24.053 254.893L25.619 250.026H27.2274L23.9543 259.874H22.1061ZM29.3567 251.225C29.0369 251.225 28.8018 251.15 28.6513 250.999C28.5102 250.849 28.4397 250.656 28.4397 250.421V250.181C28.4397 249.946 28.5102 249.753 28.6513 249.603C28.8018 249.452 29.0369 249.377 29.3567 249.377C29.6765 249.377 29.9069 249.452 30.048 249.603C30.1891 249.753 30.2596 249.946 30.2596 250.181V250.421C30.2596 250.656 30.1891 250.849 30.048 250.999C29.9069 251.15 29.6765 251.225 29.3567 251.225ZM28.5808 252.537H30.1185V259.874H28.5808V252.537ZM34.6423 260.043C33.9463 260.043 33.3632 259.921 32.8929 259.676C32.4226 259.431 32.0135 259.093 31.6655 258.66L32.6531 257.757C32.9258 258.086 33.2268 258.345 33.556 258.533C33.8946 258.712 34.2849 258.801 34.727 258.801C35.1784 258.801 35.5123 258.717 35.7286 258.547C35.9544 258.369 36.0672 258.124 36.0672 257.814C36.0672 257.579 35.9873 257.381 35.8274 257.221C35.6769 257.052 35.4089 256.944 35.0232 256.897L34.346 256.812C33.5936 256.718 33.0011 256.502 32.5684 256.163C32.1452 255.815 31.9335 255.302 31.9335 254.625C31.9335 254.268 31.9994 253.953 32.1311 253.68C32.2627 253.398 32.4461 253.163 32.6813 252.975C32.9258 252.777 33.2127 252.627 33.5419 252.523C33.8805 252.42 34.252 252.368 34.6564 252.368C35.3148 252.368 35.8509 252.471 36.2648 252.678C36.688 252.885 37.0642 253.172 37.3934 253.539L36.4482 254.442C36.2601 254.216 36.0108 254.023 35.7004 253.863C35.3995 253.694 35.0515 253.61 34.6564 253.61C34.2332 253.61 33.9181 253.694 33.7112 253.863C33.5137 254.033 33.4149 254.254 33.4149 254.527C33.4149 254.809 33.5043 255.02 33.683 255.161C33.8617 255.302 34.1485 255.406 34.5436 255.472L35.2207 255.556C36.0296 255.679 36.6175 255.919 36.9843 256.276C37.3605 256.624 37.5486 257.094 37.5486 257.687C37.5486 258.044 37.4781 258.369 37.337 258.66C37.2053 258.942 37.0125 259.187 36.7585 259.394C36.5046 259.601 36.1989 259.761 35.8415 259.874C35.4841 259.986 35.0844 260.043 34.6423 260.043ZM43.73 258.66H43.6735C43.6077 258.839 43.5183 259.013 43.4055 259.182C43.302 259.352 43.1656 259.502 42.9963 259.634C42.8364 259.756 42.6389 259.855 42.4038 259.93C42.1781 260.005 41.9147 260.043 41.6137 260.043C40.8519 260.043 40.2594 259.798 39.8361 259.309C39.4223 258.82 39.2153 258.119 39.2153 257.207V252.537H40.7531V257.01C40.7531 258.148 41.2234 258.717 42.164 258.717C42.3615 258.717 42.5543 258.693 42.7424 258.646C42.9305 258.59 43.0951 258.51 43.2362 258.406C43.3867 258.303 43.5042 258.171 43.5889 258.011C43.6829 257.851 43.73 257.663 43.73 257.447V252.537H45.2678V259.874H43.73V258.66ZM52.8449 259.874C52.4405 259.874 52.1301 259.761 51.9138 259.535C51.6975 259.3 51.5658 259.004 51.5188 258.646H51.4482C51.3072 259.107 51.0485 259.455 50.6723 259.69C50.2961 259.925 49.8399 260.043 49.3038 260.043C48.542 260.043 47.9541 259.845 47.5403 259.45C47.1358 259.055 46.9336 258.524 46.9336 257.856C46.9336 257.122 47.197 256.572 47.7237 256.205C48.2598 255.839 49.0404 255.655 50.0656 255.655H51.3918V255.034C51.3918 254.583 51.2695 254.235 51.025 253.99C50.7804 253.746 50.3995 253.624 49.8822 253.624C49.4496 253.624 49.0969 253.718 48.8241 253.906C48.5514 254.094 48.3209 254.334 48.1328 254.625L47.2158 253.793C47.4603 253.379 47.8036 253.04 48.2457 252.777C48.6877 252.504 49.2662 252.368 49.981 252.368C50.9309 252.368 51.6599 252.589 52.1678 253.031C52.6756 253.473 52.9296 254.108 52.9296 254.936V258.618H53.7055V259.874H52.8449ZM49.7411 258.872C50.2208 258.872 50.6159 258.768 50.9262 258.561C51.2366 258.345 51.3918 258.058 51.3918 257.701V256.643H50.0939C49.031 256.643 48.4996 256.972 48.4996 257.63V257.884C48.4996 258.213 48.6078 258.463 48.8241 258.632C49.0498 258.792 49.3555 258.872 49.7411 258.872ZM56.7787 259.874C56.252 259.874 55.857 259.742 55.5936 259.479C55.3397 259.206 55.2127 258.83 55.2127 258.35V249.433H56.7505V258.618H57.7663V259.874H56.7787ZM62.6828 250.026H66.1675C66.7976 250.026 67.3667 250.129 67.8746 250.336C68.3919 250.543 68.8292 250.854 69.1866 251.268C69.5534 251.672 69.8356 252.185 70.0331 252.805C70.2306 253.417 70.3294 254.132 70.3294 254.95C70.3294 255.768 70.2306 256.488 70.0331 257.108C69.8356 257.72 69.5534 258.232 69.1866 258.646C68.8292 259.051 68.3919 259.356 67.8746 259.563C67.3667 259.77 66.7976 259.874 66.1675 259.874H62.6828V250.026ZM66.1675 258.463C66.9011 258.463 67.4936 258.232 67.9451 257.771C68.3966 257.311 68.6223 256.633 68.6223 255.74V254.16C68.6223 253.266 68.3966 252.589 67.9451 252.128C67.4936 251.667 66.9011 251.437 66.1675 251.437H64.277V258.463H66.1675ZM75.0784 260.043C74.5517 260.043 74.0815 259.953 73.6676 259.775C73.2538 259.596 72.9011 259.342 72.6095 259.013C72.3179 258.674 72.0922 258.27 71.9323 257.8C71.7818 257.32 71.7066 256.789 71.7066 256.205C71.7066 255.622 71.7818 255.096 71.9323 254.625C72.0922 254.146 72.3179 253.741 72.6095 253.412C72.9011 253.073 73.2538 252.815 73.6676 252.636C74.0815 252.457 74.5517 252.368 75.0784 252.368C75.6145 252.368 76.0848 252.462 76.4893 252.65C76.9031 252.838 77.2464 253.102 77.5191 253.44C77.7919 253.769 77.9941 254.155 78.1258 254.597C78.2669 255.039 78.3374 255.514 78.3374 256.022V256.6H73.3008V256.84C73.3008 257.405 73.4654 257.87 73.7946 258.237C74.1332 258.594 74.6129 258.773 75.2336 258.773C75.6851 258.773 76.066 258.674 76.3764 258.477C76.6868 258.279 76.9501 258.011 77.1664 257.673L78.0694 258.561C77.7966 259.013 77.4016 259.375 76.8843 259.648C76.367 259.911 75.765 260.043 75.0784 260.043ZM75.0784 253.567C74.8151 253.567 74.5705 253.614 74.3448 253.708C74.1285 253.802 73.9404 253.934 73.7805 254.103C73.63 254.273 73.5124 254.475 73.4278 254.71C73.3431 254.945 73.3008 255.204 73.3008 255.486V255.585H76.715V255.444C76.715 254.879 76.5692 254.428 76.2776 254.089C75.9861 253.741 75.5863 253.567 75.0784 253.567ZM82.3676 260.043C81.6716 260.043 81.0885 259.921 80.6182 259.676C80.1479 259.431 79.7388 259.093 79.3908 258.66L80.3784 257.757C80.6511 258.086 80.9521 258.345 81.2813 258.533C81.6199 258.712 82.0102 258.801 82.4523 258.801C82.9037 258.801 83.2376 258.717 83.4539 258.547C83.6797 258.369 83.7925 258.124 83.7925 257.814C83.7925 257.579 83.7126 257.381 83.5527 257.221C83.4022 257.052 83.1342 256.944 82.7485 256.897L82.0713 256.812C81.3189 256.718 80.7264 256.502 80.2937 256.163C79.8705 255.815 79.6588 255.302 79.6588 254.625C79.6588 254.268 79.7247 253.953 79.8564 253.68C79.988 253.398 80.1714 253.163 80.4066 252.975C80.6511 252.777 80.938 252.627 81.2672 252.523C81.6058 252.42 81.9773 252.368 82.3817 252.368C83.0401 252.368 83.5762 252.471 83.9901 252.678C84.4133 252.885 84.7895 253.172 85.1187 253.539L84.1735 254.442C83.9854 254.216 83.7361 254.023 83.4257 253.863C83.1248 253.694 82.7768 253.61 82.3817 253.61C81.9585 253.61 81.6434 253.694 81.4365 253.863C81.239 254.033 81.1402 254.254 81.1402 254.527C81.1402 254.809 81.2296 255.02 81.4083 255.161C81.587 255.302 81.8738 255.406 82.2689 255.472L82.9461 255.556C83.7549 255.679 84.3428 255.919 84.7096 256.276C85.0858 256.624 85.2739 257.094 85.2739 257.687C85.2739 258.044 85.2034 258.369 85.0623 258.66C84.9306 258.942 84.7378 259.187 84.4838 259.394C84.2299 259.601 83.9242 259.761 83.5668 259.874C83.2094 259.986 82.8097 260.043 82.3676 260.043ZM87.7871 251.225C87.4674 251.225 87.2322 251.15 87.0817 250.999C86.9406 250.849 86.8701 250.656 86.8701 250.421V250.181C86.8701 249.946 86.9406 249.753 87.0817 249.603C87.2322 249.452 87.4674 249.377 87.7871 249.377C88.1069 249.377 88.3374 249.452 88.4784 249.603C88.6195 249.753 88.6901 249.946 88.6901 250.181V250.421C88.6901 250.656 88.6195 250.849 88.4784 250.999C88.3374 251.15 88.1069 251.225 87.7871 251.225ZM87.0112 252.537H88.549V259.874H87.0112V252.537ZM97.1782 260.565C97.1782 261.327 96.8867 261.9 96.3035 262.286C95.7204 262.672 94.7704 262.864 93.4537 262.864C92.8517 262.864 92.3391 262.822 91.9159 262.737C91.502 262.662 91.1587 262.549 90.886 262.399C90.6226 262.248 90.4298 262.065 90.3076 261.849C90.1853 261.632 90.1241 261.383 90.1241 261.101C90.1241 260.697 90.2323 260.381 90.4486 260.156C90.6744 259.93 90.9847 259.775 91.3798 259.69V259.535C90.8249 259.356 90.5474 258.98 90.5474 258.406C90.5474 258.03 90.6744 257.743 90.9283 257.546C91.1823 257.339 91.4879 257.193 91.8453 257.108V257.052C91.4127 256.845 91.0788 256.558 90.8437 256.191C90.6179 255.815 90.5051 255.378 90.5051 254.879C90.5051 254.127 90.7543 253.52 91.2528 253.059C91.7607 252.598 92.4849 252.368 93.4255 252.368C93.9428 252.368 94.3848 252.443 94.7516 252.594V252.396C94.7516 252.067 94.8269 251.813 94.9774 251.634C95.1373 251.446 95.3818 251.352 95.711 251.352H96.8396V252.594H95.3442V252.89C95.6734 253.106 95.9273 253.388 96.106 253.736C96.2847 254.075 96.3741 254.456 96.3741 254.879C96.3741 255.622 96.1201 256.224 95.6122 256.685C95.1043 257.137 94.3801 257.362 93.4396 257.362C93.0822 257.362 92.7624 257.325 92.4802 257.249C92.2921 257.315 92.1275 257.409 91.9864 257.532C91.8453 257.644 91.7748 257.795 91.7748 257.983C91.7748 258.181 91.8642 258.322 92.0429 258.406C92.2216 258.491 92.4755 258.533 92.8047 258.533H94.6105C95.5135 258.533 96.1671 258.717 96.5716 259.083C96.976 259.441 97.1782 259.935 97.1782 260.565ZM95.7392 260.734C95.7392 260.48 95.6404 260.278 95.4429 260.127C95.2548 259.977 94.9068 259.902 94.3989 259.902H91.9159C91.5773 260.099 91.408 260.381 91.408 260.748C91.408 261.049 91.5256 261.289 91.7607 261.468C92.0052 261.656 92.4144 261.75 92.9881 261.75H93.9475C95.142 261.75 95.7392 261.411 95.7392 260.734ZM93.4396 256.248C93.891 256.248 94.239 256.149 94.4836 255.951C94.7375 255.745 94.8645 255.429 94.8645 255.006V254.724C94.8645 254.301 94.7375 253.99 94.4836 253.793C94.239 253.586 93.891 253.483 93.4396 253.483C92.9881 253.483 92.6354 253.586 92.3815 253.793C92.1369 253.99 92.0146 254.301 92.0146 254.724V255.006C92.0146 255.429 92.1369 255.745 92.3815 255.951C92.6354 256.149 92.9881 256.248 93.4396 256.248ZM98.3225 259.874V252.537H99.8603V253.751H99.9309C100.091 253.356 100.331 253.026 100.65 252.763C100.98 252.5 101.426 252.368 101.991 252.368C102.743 252.368 103.326 252.617 103.74 253.116C104.163 253.605 104.375 254.306 104.375 255.218V259.874H102.837V255.415C102.837 254.268 102.376 253.694 101.455 253.694C101.257 253.694 101.06 253.722 100.862 253.779C100.674 253.826 100.505 253.901 100.354 254.005C100.204 254.108 100.081 254.24 99.9873 254.4C99.9026 254.559 99.8603 254.748 99.8603 254.964V259.874H98.3225Z" fill="white"/>
<path d="M28.2588 202.518L26.8575 201.556L26.2906 202.382L26.7386 203.278L28.2588 202.518ZM28.2588 202.518C26.7386 203.278 26.739 203.279 26.7394 203.28L26.7405 203.282L26.7433 203.288L26.7517 203.304L26.7801 203.359C26.8041 203.406 26.8384 203.471 26.8829 203.554C26.972 203.719 27.1026 203.955 27.2753 204.251C27.6208 204.843 28.1359 205.678 28.8279 206.674C30.2103 208.665 32.3076 211.314 35.1789 213.965C40.9305 219.274 49.8219 224.613 62.2508 224.613C74.7763 224.613 83.669 219.276 89.4 213.962C92.2603 211.31 94.3396 208.659 95.707 206.667C96.3915 205.669 96.8998 204.834 97.2402 204.241C97.4105 203.944 97.539 203.708 97.6268 203.543C97.6707 203.46 97.7044 203.394 97.728 203.348L97.756 203.293L97.7643 203.276L97.7671 203.27L97.7681 203.268C97.7686 203.267 97.769 203.266 96.2429 202.518M28.2588 202.518C26.8575 201.556 26.8579 201.556 26.8583 201.555L26.8594 201.554L26.8626 201.549L26.8728 201.534L26.9086 201.483C26.9393 201.439 26.9835 201.377 27.041 201.297C27.156 201.137 27.3242 200.907 27.5438 200.617C27.9829 200.036 28.6279 199.214 29.4633 198.231C31.1323 196.267 33.5713 193.648 36.6566 191.026C42.7955 185.808 51.6754 180.423 62.2508 180.423C72.9253 180.423 81.8052 185.805 87.9237 191.028C90.9976 193.652 93.4184 196.272 95.0721 198.237C95.8999 199.221 96.538 200.044 96.9721 200.625C97.1893 200.915 97.3555 201.146 97.4692 201.306C97.526 201.386 97.5697 201.448 97.6 201.492L97.6354 201.544L97.6456 201.559L97.6487 201.563L97.6498 201.565C97.6503 201.565 97.6506 201.566 96.2429 202.518M96.2429 202.518L97.769 203.266L98.2026 202.382L97.6506 201.566L96.2429 202.518ZM62.2508 213.795C55.2684 213.795 49.9555 208.692 49.9555 202.518C49.9555 196.345 55.2684 191.241 62.2508 191.241C69.2332 191.241 74.5462 196.345 74.5462 202.518C74.5462 208.692 69.2332 213.795 62.2508 213.795Z" stroke="#FCE986" stroke-width="3.3992"/>
<path d="M67.2188 202.318C67.2188 205.126 64.9445 207.4 62.1363 207.4C59.3281 207.4 57.0539 205.126 57.0539 202.318C57.0539 199.51 59.3281 197.235 62.1363 197.235C64.9445 197.235 67.2188 199.51 67.2188 202.318Z" fill="#FCE986" stroke="#FCE986" stroke-width="1.6996"/>
<path d="M348.75 108.587C347.461 108.587 346.45 108.154 345.717 107.289C344.983 106.414 344.616 105.149 344.616 103.494C344.616 102.666 344.71 101.937 344.898 101.307C345.086 100.677 345.359 100.146 345.717 99.713C346.074 99.2803 346.507 98.9558 347.014 98.7395C347.532 98.5138 348.11 98.4009 348.75 98.4009C349.606 98.4009 350.321 98.589 350.894 98.9652C351.477 99.3415 351.934 99.8964 352.263 100.63L350.922 101.364C350.753 100.893 350.49 100.522 350.132 100.249C349.784 99.9669 349.324 99.8258 348.75 99.8258C347.988 99.8258 347.391 100.084 346.958 100.602C346.525 101.119 346.309 101.834 346.309 102.746V104.242C346.309 105.154 346.525 105.869 346.958 106.386C347.391 106.903 347.988 107.162 348.75 107.162C349.342 107.162 349.822 107.012 350.189 106.711C350.565 106.4 350.843 106.005 351.021 105.526L352.305 106.301C351.976 107.016 351.515 107.576 350.922 107.98C350.33 108.385 349.606 108.587 348.75 108.587ZM356.76 108.587C356.252 108.587 355.787 108.498 355.364 108.319C354.95 108.14 354.597 107.886 354.305 107.557C354.014 107.219 353.788 106.814 353.628 106.344C353.468 105.864 353.388 105.333 353.388 104.75C353.388 104.166 353.468 103.64 353.628 103.169C353.788 102.69 354.014 102.285 354.305 101.956C354.597 101.618 354.95 101.359 355.364 101.18C355.787 101.002 356.252 100.912 356.76 100.912C357.268 100.912 357.729 101.002 358.143 101.18C358.566 101.359 358.924 101.618 359.215 101.956C359.507 102.285 359.732 102.69 359.892 103.169C360.052 103.64 360.132 104.166 360.132 104.75C360.132 105.333 360.052 105.864 359.892 106.344C359.732 106.814 359.507 107.219 359.215 107.557C358.924 107.886 358.566 108.14 358.143 108.319C357.729 108.498 357.268 108.587 356.76 108.587ZM356.76 107.317C357.287 107.317 357.71 107.157 358.03 106.838C358.35 106.508 358.51 106.019 358.51 105.37V104.129C358.51 103.48 358.35 102.995 358.03 102.676C357.71 102.347 357.287 102.182 356.76 102.182C356.234 102.182 355.81 102.347 355.491 102.676C355.171 102.995 355.011 103.48 355.011 104.129V105.37C355.011 106.019 355.171 106.508 355.491 106.838C355.81 107.157 356.234 107.317 356.76 107.317ZM366.459 107.204H366.388C366.229 107.637 365.965 107.976 365.598 108.22C365.241 108.465 364.818 108.587 364.329 108.587C363.397 108.587 362.678 108.253 362.17 107.585C361.662 106.908 361.408 105.963 361.408 104.75C361.408 103.536 361.662 102.596 362.17 101.928C362.678 101.251 363.397 100.912 364.329 100.912C364.818 100.912 365.241 101.034 365.598 101.279C365.965 101.514 366.229 101.853 366.388 102.295H366.459V97.9777H367.997V108.418H366.459V107.204ZM364.794 107.261C365.264 107.261 365.66 107.148 365.979 106.922C366.299 106.687 366.459 106.381 366.459 106.005V103.494C366.459 103.118 366.299 102.817 365.979 102.591C365.66 102.356 365.264 102.238 364.794 102.238C364.258 102.238 363.83 102.412 363.51 102.76C363.191 103.099 363.031 103.55 363.031 104.115V105.384C363.031 105.949 363.191 106.405 363.51 106.753C363.83 107.092 364.258 107.261 364.794 107.261ZM370.971 99.7694C370.651 99.7694 370.416 99.6942 370.265 99.5437C370.124 99.3932 370.054 99.2004 370.054 98.9652V98.7254C370.054 98.4903 370.124 98.2975 370.265 98.147C370.416 97.9965 370.651 97.9212 370.971 97.9212C371.291 97.9212 371.521 97.9965 371.662 98.147C371.803 98.2975 371.874 98.4903 371.874 98.7254V98.9652C371.874 99.2004 371.803 99.3932 371.662 99.5437C371.521 99.6942 371.291 99.7694 370.971 99.7694ZM370.195 101.081H371.733V108.418H370.195V101.081ZM373.928 108.418V101.081H375.466V102.295H375.537C375.697 101.9 375.937 101.571 376.256 101.307C376.586 101.044 377.032 100.912 377.597 100.912C378.349 100.912 378.932 101.161 379.346 101.66C379.769 102.149 379.981 102.85 379.981 103.762V108.418H378.443V103.96C378.443 102.812 377.982 102.238 377.06 102.238C376.863 102.238 376.665 102.267 376.468 102.323C376.28 102.37 376.111 102.445 375.96 102.549C375.81 102.652 375.687 102.784 375.593 102.944C375.509 103.104 375.466 103.292 375.466 103.508V108.418H373.928ZM388.546 109.109C388.546 109.871 388.254 110.445 387.671 110.83C387.088 111.216 386.138 111.409 384.821 111.409C384.219 111.409 383.707 111.366 383.283 111.282C382.869 111.206 382.526 111.094 382.253 110.943C381.99 110.793 381.797 110.609 381.675 110.393C381.553 110.177 381.492 109.927 381.492 109.645C381.492 109.241 381.6 108.926 381.816 108.7C382.042 108.474 382.352 108.319 382.747 108.234V108.079C382.192 107.9 381.915 107.524 381.915 106.95C381.915 106.574 382.042 106.287 382.296 106.09C382.55 105.883 382.855 105.737 383.213 105.653V105.596C382.78 105.389 382.446 105.102 382.211 104.735C381.985 104.359 381.872 103.922 381.872 103.423C381.872 102.671 382.122 102.064 382.62 101.603C383.128 101.143 383.852 100.912 384.793 100.912C385.31 100.912 385.752 100.987 386.119 101.138V100.94C386.119 100.611 386.194 100.357 386.345 100.179C386.505 99.9904 386.749 99.8964 387.078 99.8964H388.207V101.138H386.712V101.434C387.041 101.651 387.295 101.933 387.473 102.281C387.652 102.619 387.741 103 387.741 103.423C387.741 104.166 387.488 104.768 386.98 105.229C386.472 105.681 385.748 105.906 384.807 105.906C384.45 105.906 384.13 105.869 383.848 105.794C383.66 105.859 383.495 105.953 383.354 106.076C383.213 106.189 383.142 106.339 383.142 106.527C383.142 106.725 383.232 106.866 383.41 106.95C383.589 107.035 383.843 107.077 384.172 107.077H385.978C386.881 107.077 387.535 107.261 387.939 107.628C388.343 107.985 388.546 108.479 388.546 109.109ZM387.107 109.278C387.107 109.024 387.008 108.822 386.81 108.672C386.622 108.521 386.274 108.446 385.766 108.446H383.283C382.945 108.643 382.775 108.926 382.775 109.292C382.775 109.593 382.893 109.833 383.128 110.012C383.373 110.2 383.782 110.294 384.356 110.294H385.315C386.509 110.294 387.107 109.956 387.107 109.278ZM384.807 104.792C385.258 104.792 385.606 104.693 385.851 104.496C386.105 104.289 386.232 103.974 386.232 103.55V103.268C386.232 102.845 386.105 102.535 385.851 102.337C385.606 102.13 385.258 102.027 384.807 102.027C384.356 102.027 384.003 102.13 383.749 102.337C383.504 102.535 383.382 102.845 383.382 103.268V103.55C383.382 103.974 383.504 104.289 383.749 104.496C384.003 104.693 384.356 104.792 384.807 104.792Z" fill="white"/>
<path d="M367.527 26.3037C368.405 26.3037 369.197 26.825 369.614 27.5727C368.543 27.6519 367.437 27.7033 366.206 27.7534C365.152 27.7526 364.053 27.676 362.954 27.5794C363.362 26.8097 364.159 26.3037 365.06 26.3037H365.909V25.4539V18.8102C365.909 18.5945 366.078 18.4265 366.293 18.4265C366.509 18.4265 366.677 18.5945 366.677 18.8102V25.4539V26.3037H367.527Z" stroke="#FCE986" stroke-width="1.6996"/>
<path d="M396.969 51.6504L396.969 51.6504C397.85 56.0525 398.182 60.0142 397.948 63.3163C397.713 66.6315 396.915 69.2014 395.615 70.9018L395.602 70.919L395.59 70.9367C395.054 71.7164 393.953 72.1927 392.675 72.0785C391.176 71.9211 389.534 71.3355 387.747 70.4799C386.06 69.6723 384.301 68.6528 382.458 67.5853C382.351 67.5228 382.243 67.4602 382.134 67.3975C381.499 67.0166 379.982 66.2761 377.605 65.1157C377.243 64.9391 376.861 64.7527 376.459 64.5564L376.459 64.5564L376.452 64.5528C373.342 63.071 369.949 62.1505 366.34 61.9377L366.315 61.9363H366.29H366.151H366.126L366.1 61.9378C362.564 62.1505 359.099 63.0672 355.989 64.5532L355.989 64.5531L355.982 64.5567C355.171 64.9535 354.425 65.3155 353.764 65.6358C353.189 65.9146 352.678 66.1619 352.248 66.3732C351.346 66.8158 350.663 67.1627 350.291 67.4069C350.184 67.4687 350.078 67.5304 349.972 67.5919C348.134 68.6571 346.379 69.674 344.696 70.4799C342.908 71.3366 341.264 71.9226 339.761 72.0791L339.745 72.0808L339.729 72.0831C338.577 72.2483 337.404 71.7395 336.852 70.9363L336.851 70.9351C335.673 69.2282 334.923 66.6436 334.706 63.3217C334.489 60.0142 334.804 56.0493 335.684 51.6504L335.684 51.6504C337.248 43.8358 340.36 36.1135 343.388 32.3616C345.084 30.2926 347.604 29.2257 349.858 29.5824L349.924 29.5928H349.991C350.14 29.5928 350.316 29.6315 350.473 29.6846L350.506 29.6956L350.539 29.7039C355.528 30.952 360.86 31.7118 366.261 31.92L366.277 31.9207H366.294H366.36H366.363V31.1411L366.393 31.92C371.861 31.7118 377.126 30.9518 382.115 29.7039L382.143 29.6968L382.171 29.6877C382.171 29.6878 382.175 29.6865 382.184 29.6845C382.193 29.6823 382.206 29.6796 382.224 29.6764C382.262 29.6696 382.307 29.6634 382.373 29.6547L382.397 29.6515C382.505 29.6372 382.664 29.6164 382.83 29.5771C385.087 29.2338 387.587 30.2472 389.26 32.3539L389.264 32.3593C392.293 36.1102 395.406 43.8342 396.969 51.6504ZM364.881 54.9675L364.883 54.9379V54.9083C364.883 53.5516 363.751 52.4156 362.39 52.4156H359.856C358.499 52.4156 357.363 53.547 357.363 54.9083C357.363 56.265 358.495 57.4009 359.856 57.4009H362.39C363.78 57.4009 364.786 56.3157 364.881 54.9675ZM375.431 54.9698L375.433 54.9391V54.9083C375.433 53.5516 374.302 52.4156 372.941 52.4156H370.407C369.05 52.4156 367.914 53.547 367.914 54.9083C367.914 56.265 369.046 57.4009 370.407 57.4009H372.941C374.329 57.4009 375.333 56.315 375.431 54.9698ZM353.583 52.5111V49.251H356.843C357.896 49.251 358.749 48.8478 359.329 48.1948C359.895 47.5574 360.16 46.7318 360.16 45.9342C360.16 44.3109 358.964 42.6174 356.843 42.6174H353.583V39.3573C353.583 38.304 353.18 37.4518 352.527 36.8715C351.889 36.3051 351.064 36.0405 350.266 36.0405C348.643 36.0405 346.949 37.2362 346.949 39.3573V42.6174H343.689C342.636 42.6174 341.784 43.0206 341.203 43.6736C340.637 44.311 340.372 45.1366 340.372 45.9342C340.372 47.5575 341.568 49.251 343.689 49.251H346.949V52.5111C346.949 53.5644 347.353 54.4166 348.006 54.9969C348.643 55.5633 349.469 55.8279 350.266 55.8279C351.889 55.8279 353.583 54.6322 353.583 52.5111ZM386.599 40.2478C386.599 38.0077 384.79 36.1095 382.461 36.1095C380.131 36.1095 378.322 38.0108 378.322 40.2478C378.322 41.0725 378.568 41.8509 378.994 42.5053C378.357 42.0995 377.599 41.8623 376.775 41.8623C374.535 41.8623 372.637 43.6711 372.637 46.0005C372.637 48.2406 374.446 50.1388 376.775 50.1388C377.562 50.1388 378.305 49.908 378.938 49.5116C378.549 50.139 378.323 50.8816 378.323 51.6864C378.323 53.9265 380.131 55.8246 382.461 55.8246C384.79 55.8246 386.599 53.9265 386.599 51.6864C386.599 50.9073 386.38 50.1695 385.997 49.5386C386.619 49.9181 387.353 50.1388 388.147 50.1388C390.476 50.1388 392.285 48.2406 392.285 46.0005C392.285 43.7604 390.476 41.8623 388.147 41.8623C387.339 41.8623 386.575 42.0977 385.929 42.5081C386.351 41.8632 386.599 41.0895 386.599 40.2478ZM380.913 46.0005C380.913 45.1758 380.668 44.3974 380.242 43.743C380.879 44.1488 381.637 44.386 382.461 44.386C383.269 44.386 384.032 44.1506 384.679 43.7402C384.256 44.3851 384.009 45.1588 384.009 46.0005C384.009 46.7796 384.227 47.5174 384.611 48.1483C383.989 47.7688 383.255 47.5481 382.461 47.5481C381.669 47.5481 380.92 47.774 380.283 48.169C380.681 47.5348 380.913 46.7901 380.913 46.0005Z" stroke="#FCE986" stroke-width="1.6996"/>
<path d="M41.9891 98.5697H46.3486C47.1668 98.5697 47.8064 98.8002 48.2673 99.261C48.7375 99.7219 48.9727 100.338 48.9727 101.109C48.9727 101.476 48.921 101.791 48.8175 102.054C48.714 102.308 48.5824 102.52 48.4225 102.689C48.2626 102.849 48.0792 102.971 47.8722 103.056C47.6653 103.131 47.4631 103.178 47.2656 103.197V103.282C47.4631 103.291 47.6794 103.338 47.9146 103.423C48.1591 103.508 48.3848 103.644 48.5918 103.832C48.7987 104.011 48.9727 104.246 49.1138 104.537C49.2548 104.82 49.3254 105.168 49.3254 105.581C49.3254 105.977 49.2596 106.348 49.1279 106.696C49.0056 107.044 48.8316 107.345 48.6059 107.599C48.3801 107.853 48.1121 108.055 47.8017 108.206C47.4913 108.347 47.1527 108.417 46.7859 108.417H41.9891V98.5697ZM43.5834 107.049H46.3203C46.7342 107.049 47.0587 106.941 47.2938 106.724C47.5289 106.508 47.6465 106.198 47.6465 105.793V105.313C47.6465 104.909 47.5289 104.599 47.2938 104.382C47.0587 104.166 46.7342 104.058 46.3203 104.058H43.5834V107.049ZM43.5834 102.732H46.0523C46.4473 102.732 46.753 102.633 46.9693 102.435C47.1856 102.228 47.2938 101.937 47.2938 101.561V101.109C47.2938 100.733 47.1856 100.446 46.9693 100.249C46.753 100.042 46.4473 99.9382 46.0523 99.9382H43.5834V102.732ZM56.5513 108.417C56.1469 108.417 55.8365 108.304 55.6202 108.079C55.4038 107.844 55.2722 107.547 55.2251 107.19H55.1546C55.0135 107.651 54.7549 107.999 54.3787 108.234C54.0024 108.469 53.5463 108.587 53.0102 108.587C52.2483 108.587 51.6605 108.389 51.2466 107.994C50.8422 107.599 50.64 107.068 50.64 106.4C50.64 105.666 50.9033 105.116 51.43 104.749C51.9662 104.382 52.7468 104.199 53.772 104.199H55.0982V103.578C55.0982 103.127 54.9759 102.779 54.7314 102.534C54.4868 102.29 54.1059 102.167 53.5886 102.167C53.1559 102.167 52.8032 102.261 52.5305 102.449C52.2577 102.638 52.0273 102.877 51.8392 103.169L50.9221 102.337C51.1667 101.923 51.51 101.584 51.952 101.321C52.3941 101.048 52.9725 100.912 53.6873 100.912C54.6373 100.912 55.3662 101.133 55.8741 101.575C56.382 102.017 56.636 102.652 56.636 103.479V107.162H57.4119V108.417H56.5513ZM53.4475 107.416C53.9272 107.416 54.3222 107.312 54.6326 107.105C54.943 106.889 55.0982 106.602 55.0982 106.245V105.186H53.8002C52.7374 105.186 52.206 105.516 52.206 106.174V106.428C52.206 106.757 52.3142 107.006 52.5305 107.176C52.7562 107.336 53.0619 107.416 53.4475 107.416ZM61.2469 108.587C60.5509 108.587 59.9678 108.464 59.4975 108.22C59.0272 107.975 58.6181 107.637 58.2701 107.204L59.2577 106.301C59.5304 106.63 59.8314 106.889 60.1606 107.077C60.4992 107.256 60.8895 107.345 61.3316 107.345C61.783 107.345 62.1169 107.26 62.3332 107.091C62.559 106.912 62.6718 106.668 62.6718 106.357C62.6718 106.122 62.5919 105.925 62.432 105.765C62.2815 105.596 62.0134 105.487 61.6278 105.44L60.9506 105.356C60.1982 105.262 59.6057 105.045 59.173 104.707C58.7498 104.359 58.5381 103.846 58.5381 103.169C58.5381 102.812 58.604 102.497 58.7357 102.224C58.8673 101.942 59.0507 101.706 59.2859 101.518C59.5304 101.321 59.8173 101.17 60.1465 101.067C60.4851 100.963 60.8566 100.912 61.261 100.912C61.9194 100.912 62.4555 101.015 62.8693 101.222C63.2926 101.429 63.6688 101.716 63.998 102.083L63.0528 102.986C62.8646 102.76 62.6154 102.567 62.305 102.407C62.004 102.238 61.656 102.153 61.261 102.153C60.8378 102.153 60.5227 102.238 60.3158 102.407C60.1183 102.576 60.0195 102.797 60.0195 103.07C60.0195 103.352 60.1088 103.564 60.2875 103.705C60.4663 103.846 60.7531 103.95 61.1481 104.015L61.8253 104.1C62.6342 104.222 63.222 104.462 63.5889 104.82C63.9651 105.168 64.1532 105.638 64.1532 106.23C64.1532 106.588 64.0826 106.912 63.9416 107.204C63.8099 107.486 63.6171 107.731 63.3631 107.938C63.1092 108.144 62.8035 108.304 62.4461 108.417C62.0887 108.53 61.689 108.587 61.2469 108.587ZM66.6664 99.7689C66.3466 99.7689 66.1115 99.6937 65.961 99.5432C65.8199 99.3927 65.7494 99.1999 65.7494 98.9648V98.7249C65.7494 98.4898 65.8199 98.297 65.961 98.1465C66.1115 97.996 66.3466 97.9208 66.6664 97.9208C66.9862 97.9208 67.2166 97.996 67.3577 98.1465C67.4988 98.297 67.5693 98.4898 67.5693 98.7249V98.9648C67.5693 99.1999 67.4988 99.3927 67.3577 99.5432C67.2166 99.6937 66.9862 99.7689 66.6664 99.7689ZM65.8905 101.081H67.4283V108.417H65.8905V101.081ZM72.4599 108.587C71.9332 108.587 71.463 108.497 71.0491 108.318C70.6353 108.14 70.2873 107.886 70.0051 107.557C69.7229 107.218 69.5066 106.814 69.3561 106.343C69.2056 105.864 69.1304 105.332 69.1304 104.749C69.1304 104.166 69.2056 103.639 69.3561 103.169C69.5066 102.689 69.7229 102.285 70.0051 101.956C70.2873 101.617 70.6353 101.358 71.0491 101.18C71.463 101.001 71.9332 100.912 72.4599 100.912C73.1936 100.912 73.7955 101.076 74.2658 101.405C74.736 101.735 75.0793 102.172 75.2957 102.718L74.0259 103.31C73.9225 102.971 73.7391 102.703 73.4757 102.506C73.2218 102.299 72.8832 102.196 72.4599 102.196C71.8956 102.196 71.4677 102.374 71.1761 102.732C70.8939 103.08 70.7528 103.536 70.7528 104.1V105.412C70.7528 105.977 70.8939 106.437 71.1761 106.795C71.4677 107.143 71.8956 107.317 72.4599 107.317C72.9114 107.317 73.2688 107.209 73.5322 106.992C73.8049 106.767 74.0212 106.47 74.1811 106.103L75.3521 106.724C75.1076 107.326 74.7408 107.787 74.2517 108.107C73.7626 108.427 73.1653 108.587 72.4599 108.587ZM79.1439 108.587C78.4479 108.587 77.8648 108.464 77.3945 108.22C76.9242 107.975 76.5151 107.637 76.1671 107.204L77.1546 106.301C77.4274 106.63 77.7284 106.889 78.0576 107.077C78.3962 107.256 78.7865 107.345 79.2285 107.345C79.68 107.345 80.0139 107.26 80.2302 107.091C80.456 106.912 80.5688 106.668 80.5688 106.357C80.5688 106.122 80.4889 105.925 80.329 105.765C80.1785 105.596 79.9104 105.487 79.5248 105.44L78.8476 105.356C78.0952 105.262 77.5026 105.045 77.07 104.707C76.6467 104.359 76.4351 103.846 76.4351 103.169C76.4351 102.812 76.501 102.497 76.6326 102.224C76.7643 101.942 76.9477 101.706 77.1829 101.518C77.4274 101.321 77.7143 101.17 78.0435 101.067C78.3821 100.963 78.7536 100.912 79.158 100.912C79.8164 100.912 80.3525 101.015 80.7663 101.222C81.1896 101.429 81.5658 101.716 81.895 102.083L80.9497 102.986C80.7616 102.76 80.5124 102.567 80.202 102.407C79.901 102.238 79.553 102.153 79.158 102.153C78.7348 102.153 78.4197 102.238 78.2128 102.407C78.0152 102.576 77.9165 102.797 77.9165 103.07C77.9165 103.352 78.0058 103.564 78.1845 103.705C78.3632 103.846 78.6501 103.95 79.0451 104.015L79.7223 104.1C80.5312 104.222 81.119 104.462 81.4859 104.82C81.8621 105.168 82.0502 105.638 82.0502 106.23C82.0502 106.588 81.9796 106.912 81.8386 107.204C81.7069 107.486 81.5141 107.731 81.2601 107.938C81.0062 108.144 80.7005 108.304 80.3431 108.417C79.9857 108.53 79.5859 108.587 79.1439 108.587Z" fill="white"/>
<mask id="path-14-inside-1_1005_19580" fill="white">
<path fill-rule="evenodd" clip-rule="evenodd" d="M89.3975 22.7899C88.1871 21.5795 86.2248 21.5795 85.0144 22.7899L61.8396 45.9647L38.6651 22.7901C37.4547 21.5798 35.4923 21.5798 34.2819 22.7901L13.2828 43.7893C12.0724 44.9997 12.0724 46.962 13.2828 48.1724L34.2819 69.1716C35.4923 70.3819 37.4547 70.3819 38.6651 69.1716L61.8399 45.9968L85.0144 69.1713C86.2248 70.3817 88.1871 70.3817 89.3975 69.1713L110.397 48.1721C111.607 46.9618 111.607 44.9994 110.397 43.789L89.3975 22.7899Z"/>
</mask>
<path d="M85.0144 22.7899L86.6168 24.3923V24.3923L85.0144 22.7899ZM89.3975 22.7899L90.9999 21.1875L90.9999 21.1875L89.3975 22.7899ZM61.8396 45.9647L60.2372 47.5671L61.8396 49.1695L63.442 47.5671L61.8396 45.9647ZM38.6651 22.7901L37.0627 24.3925L38.6651 22.7901ZM34.2819 22.7901L35.8843 24.3925V24.3925L34.2819 22.7901ZM13.2828 43.7893L14.8852 45.3917H14.8852L13.2828 43.7893ZM13.2828 48.1724L14.8852 46.57H14.8852L13.2828 48.1724ZM34.2819 69.1716L35.8843 67.5692L34.2819 69.1716ZM38.6651 69.1716L40.2675 70.774L40.2675 70.774L38.6651 69.1716ZM61.8399 45.9968L63.4423 44.3944L61.8399 42.792L60.2375 44.3944L61.8399 45.9968ZM85.0144 69.1713L83.412 70.7737L83.412 70.7737L85.0144 69.1713ZM89.3975 69.1713L87.7951 67.5689V67.5689L89.3975 69.1713ZM110.397 48.1721L108.794 46.5697L108.794 46.5697L110.397 48.1721ZM110.397 43.789L111.999 42.1866V42.1866L110.397 43.789ZM86.6168 24.3923C86.9422 24.0669 87.4697 24.0669 87.7951 24.3923L90.9999 21.1875C88.9046 19.0921 85.5073 19.0921 83.412 21.1875L86.6168 24.3923ZM63.442 47.5671L86.6168 24.3923L83.412 21.1875L60.2372 44.3623L63.442 47.5671ZM37.0627 24.3925L60.2372 47.5671L63.442 44.3623L40.2675 21.1877L37.0627 24.3925ZM35.8843 24.3925C36.2097 24.0671 36.7373 24.0671 37.0627 24.3925L40.2675 21.1877C38.1721 19.0924 34.7749 19.0924 32.6795 21.1877L35.8843 24.3925ZM14.8852 45.3917L35.8843 24.3925L32.6795 21.1877L11.6804 42.1869L14.8852 45.3917ZM14.8852 46.57C14.5598 46.2446 14.5598 45.7171 14.8852 45.3917L11.6804 42.1869C9.58503 44.2822 9.58502 47.6795 11.6804 49.7748L14.8852 46.57ZM35.8843 67.5692L14.8852 46.57L11.6804 49.7748L32.6795 70.774L35.8843 67.5692ZM37.0627 67.5692C36.7373 67.8946 36.2097 67.8946 35.8843 67.5692L32.6795 70.774C34.7749 72.8693 38.1721 72.8693 40.2675 70.774L37.0627 67.5692ZM60.2375 44.3944L37.0627 67.5692L40.2675 70.774L63.4423 47.5992L60.2375 44.3944ZM86.6168 67.5689L63.4423 44.3944L60.2375 47.5992L83.412 70.7737L86.6168 67.5689ZM87.7951 67.5689C87.4697 67.8943 86.9422 67.8943 86.6168 67.5689L83.412 70.7737C85.5073 72.869 88.9046 72.8691 90.9999 70.7737L87.7951 67.5689ZM108.794 46.5697L87.7951 67.5689L90.9999 70.7737L111.999 49.7745L108.794 46.5697ZM108.794 45.3914C109.12 45.7168 109.12 46.2444 108.794 46.5697L111.999 49.7745C114.094 47.6792 114.094 44.282 111.999 42.1866L108.794 45.3914ZM87.7951 24.3923L108.794 45.3914L111.999 42.1866L90.9999 21.1875L87.7951 24.3923Z" fill="#FCE986" mask="url(#path-14-inside-1_1005_19580)"/>
<circle cx="61.6838" cy="45.5886" r="5.09881" fill="#FCE986"/>
<path d="M188.562 108.587C187.922 108.587 187.339 108.478 186.813 108.262C186.295 108.036 185.848 107.712 185.472 107.289C185.105 106.856 184.819 106.325 184.612 105.694C184.414 105.055 184.315 104.321 184.315 103.493C184.315 102.666 184.414 101.937 184.612 101.307C184.819 100.667 185.105 100.136 185.472 99.7125C185.848 99.2798 186.295 98.9554 186.813 98.739C187.339 98.5133 187.922 98.4004 188.562 98.4004C189.202 98.4004 189.78 98.5133 190.297 98.739C190.824 98.9554 191.271 99.2798 191.638 99.7125C192.014 100.136 192.301 100.667 192.498 101.307C192.705 101.937 192.809 102.666 192.809 103.493C192.809 104.321 192.705 105.055 192.498 105.694C192.301 106.325 192.014 106.856 191.638 107.289C191.271 107.712 190.824 108.036 190.297 108.262C189.78 108.478 189.202 108.587 188.562 108.587ZM188.562 107.162C188.938 107.162 189.281 107.096 189.592 106.964C189.912 106.832 190.18 106.644 190.396 106.4C190.622 106.146 190.796 105.84 190.918 105.483C191.04 105.125 191.101 104.721 191.101 104.269V102.718C191.101 102.266 191.04 101.862 190.918 101.504C190.796 101.147 190.622 100.846 190.396 100.601C190.18 100.347 189.912 100.155 189.592 100.023C189.281 99.8912 188.938 99.8254 188.562 99.8254C188.176 99.8254 187.828 99.8912 187.518 100.023C187.208 100.155 186.94 100.347 186.714 100.601C186.497 100.846 186.328 101.147 186.206 101.504C186.084 101.862 186.023 102.266 186.023 102.718V104.269C186.023 104.721 186.084 105.125 186.206 105.483C186.328 105.84 186.497 106.146 186.714 106.4C186.94 106.644 187.208 106.832 187.518 106.964C187.828 107.096 188.176 107.162 188.562 107.162ZM194.684 108.417V101.081H196.221V102.294H196.292C196.452 101.899 196.692 101.57 197.012 101.307C197.341 101.043 197.788 100.912 198.352 100.912C199.104 100.912 199.687 101.161 200.101 101.659C200.524 102.149 200.736 102.849 200.736 103.762V108.417H199.198V103.959C199.198 102.812 198.737 102.238 197.816 102.238C197.618 102.238 197.421 102.266 197.223 102.323C197.035 102.37 196.866 102.445 196.715 102.548C196.565 102.652 196.443 102.783 196.348 102.943C196.264 103.103 196.221 103.291 196.221 103.508V108.417H194.684ZM205.746 108.587C205.219 108.587 204.749 108.497 204.335 108.318C203.921 108.14 203.568 107.886 203.277 107.557C202.985 107.218 202.759 106.814 202.599 106.343C202.449 105.864 202.374 105.332 202.374 104.749C202.374 104.166 202.449 103.639 202.599 103.169C202.759 102.689 202.985 102.285 203.277 101.956C203.568 101.617 203.921 101.358 204.335 101.18C204.749 101.001 205.219 100.912 205.746 100.912C206.282 100.912 206.752 101.006 207.156 101.194C207.57 101.382 207.914 101.645 208.186 101.984C208.459 102.313 208.661 102.699 208.793 103.141C208.934 103.583 209.005 104.058 209.005 104.566V105.144H203.968V105.384C203.968 105.948 204.133 106.414 204.462 106.781C204.8 107.138 205.28 107.317 205.901 107.317C206.352 107.317 206.733 107.218 207.044 107.021C207.354 106.823 207.617 106.555 207.834 106.216L208.737 107.105C208.464 107.557 208.069 107.919 207.551 108.192C207.034 108.455 206.432 108.587 205.746 108.587ZM205.746 102.111C205.482 102.111 205.238 102.158 205.012 102.252C204.796 102.346 204.608 102.478 204.448 102.647C204.297 102.816 204.18 103.019 204.095 103.254C204.01 103.489 203.968 103.747 203.968 104.03V104.128H207.382V103.987C207.382 103.423 207.236 102.971 206.945 102.633C206.653 102.285 206.254 102.111 205.746 102.111ZM210.619 104.904V103.338H214.527V104.904H210.619ZM219.293 108.587C218.466 108.587 217.76 108.436 217.177 108.135C216.603 107.834 216.109 107.43 215.696 106.922L216.796 105.892C217.144 106.315 217.525 106.635 217.939 106.851C218.362 107.068 218.842 107.176 219.378 107.176C220.008 107.176 220.483 107.035 220.803 106.752C221.123 106.47 221.282 106.089 221.282 105.61C221.282 105.224 221.17 104.918 220.944 104.693C220.718 104.467 220.318 104.298 219.745 104.185L218.87 104.03C217.911 103.851 217.191 103.536 216.711 103.084C216.232 102.633 215.992 102.012 215.992 101.222C215.992 100.789 216.072 100.399 216.232 100.051C216.401 99.6937 216.631 99.3974 216.923 99.1623C217.224 98.9177 217.586 98.7296 218.009 98.5979C218.433 98.4663 218.908 98.4004 219.434 98.4004C220.177 98.4004 220.822 98.5321 221.367 98.7955C221.913 99.0494 222.378 99.4209 222.764 99.91L221.649 100.898C221.395 100.568 221.085 100.305 220.718 100.108C220.351 99.91 219.895 99.8112 219.35 99.8112C218.785 99.8112 218.348 99.9241 218.038 100.15C217.727 100.376 217.572 100.705 217.572 101.137C217.572 101.551 217.699 101.862 217.953 102.069C218.207 102.266 218.602 102.417 219.138 102.52L220.013 102.703C221 102.892 221.72 103.211 222.171 103.663C222.632 104.114 222.863 104.735 222.863 105.525C222.863 105.986 222.783 106.404 222.623 106.781C222.463 107.157 222.228 107.481 221.917 107.754C221.616 108.018 221.245 108.224 220.803 108.375C220.361 108.516 219.858 108.587 219.293 108.587ZM224.664 97.9772H226.201V102.294H226.272C226.432 101.899 226.672 101.57 226.991 101.307C227.321 101.043 227.767 100.912 228.332 100.912C229.084 100.912 229.667 101.161 230.081 101.659C230.504 102.149 230.716 102.849 230.716 103.762V108.417H229.178V103.945C229.178 102.807 228.717 102.238 227.796 102.238C227.598 102.238 227.401 102.266 227.203 102.323C227.015 102.37 226.846 102.445 226.695 102.548C226.545 102.652 226.422 102.783 226.328 102.943C226.244 103.103 226.201 103.287 226.201 103.493V108.417H224.664V97.9772ZM235.725 108.587C235.218 108.587 234.752 108.497 234.329 108.318C233.915 108.14 233.562 107.886 233.271 107.557C232.979 107.218 232.753 106.814 232.593 106.343C232.434 105.864 232.354 105.332 232.354 104.749C232.354 104.166 232.434 103.639 232.593 103.169C232.753 102.689 232.979 102.285 233.271 101.956C233.562 101.617 233.915 101.358 234.329 101.18C234.752 101.001 235.218 100.912 235.725 100.912C236.233 100.912 236.694 101.001 237.108 101.18C237.531 101.358 237.889 101.617 238.18 101.956C238.472 102.285 238.698 102.689 238.858 103.169C239.017 103.639 239.097 104.166 239.097 104.749C239.097 105.332 239.017 105.864 238.858 106.343C238.698 106.814 238.472 107.218 238.18 107.557C237.889 107.886 237.531 108.14 237.108 108.318C236.694 108.497 236.233 108.587 235.725 108.587ZM235.725 107.317C236.252 107.317 236.675 107.157 236.995 106.837C237.315 106.508 237.475 106.019 237.475 105.37V104.128C237.475 103.479 237.315 102.995 236.995 102.675C236.675 102.346 236.252 102.181 235.725 102.181C235.199 102.181 234.776 102.346 234.456 102.675C234.136 102.995 233.976 103.479 233.976 104.128V105.37C233.976 106.019 234.136 106.508 234.456 106.837C234.776 107.157 235.199 107.317 235.725 107.317ZM242.801 108.417C242.265 108.417 241.861 108.281 241.588 108.008C241.315 107.726 241.179 107.331 241.179 106.823V102.337H240.036V101.081H240.657C240.911 101.081 241.085 101.025 241.179 100.912C241.282 100.799 241.334 100.615 241.334 100.361V99.0776H242.716V101.081H244.254V102.337H242.716V107.162H244.141V108.417H242.801Z" fill="white"/>
<path d="M208.364 49.5578V41.8051C208.364 38.5094 211.049 35.7622 214.347 35.7622C215.936 35.7622 217.462 36.3727 218.559 37.5316C219.718 38.6906 220.328 40.1573 220.328 41.8051V47.4832C221.06 47.5452 221.733 47.7265 222.343 48.0317C224.359 46.0166 225.58 43.2098 225.58 40.1575C225.58 33.9311 220.574 28.9256 214.348 28.9256C208.18 28.8636 203.113 33.8692 203.113 40.0959C203.113 44.0641 205.25 47.6056 208.365 49.5586L208.364 49.5578Z" fill="#FCE986"/>
<path d="M231.012 54.6216C231.02 54.6216 231.029 54.6215 231.037 54.6212C232.207 54.6351 233.154 55.5931 233.154 56.757V65.061C233.154 67.5268 232.264 69.7482 230.539 71.4757C228.801 73.1551 226.511 74.1007 224.115 74.1007H219.414C216.306 74.1007 213.376 72.7465 211.405 70.3243L211.405 70.3243L211.401 70.3193L203.833 61.1635C203.833 61.1632 203.833 61.1629 203.832 61.1625C203.432 60.6747 203.258 60.0581 203.345 59.4442C203.438 58.8114 203.742 58.3025 204.255 57.9584C205.157 57.3761 206.296 57.4799 207.033 58.2167L210.083 61.2671C210.255 61.4403 210.487 61.5802 210.781 61.6135C211.038 61.6424 211.257 61.5786 211.385 61.5354C211.424 61.5222 211.462 61.5062 211.499 61.4874C211.789 61.3395 212.206 60.9785 212.206 60.363V41.8052C212.206 40.6266 213.168 39.6645 214.347 39.6645C214.936 39.6645 215.507 39.8939 215.883 40.2693C216.258 40.6447 216.488 41.2162 216.488 41.8052V41.8054L216.49 51.881C216.49 52.2583 216.739 52.5904 217.101 52.6964C217.463 52.8024 217.852 52.6569 218.055 52.3392C218.455 51.7149 219.108 51.326 219.903 51.326C221.082 51.326 222.044 52.2881 222.044 53.4666V53.5286C222.044 53.906 222.293 54.2381 222.655 54.3442C223.017 54.4502 223.406 54.3048 223.609 53.987C224.009 53.3627 224.662 52.9738 225.458 52.9738C226.636 52.9738 227.598 53.9359 227.598 55.1144V55.1764C227.598 55.5538 227.847 55.8859 228.209 55.992C228.571 56.098 228.96 55.9526 229.164 55.6349C229.563 55.0105 230.216 54.6216 231.012 54.6216Z" stroke="#FCE986" stroke-width="1.6996" stroke-linejoin="round"/>
<path d="M192.553 39.9233H198.218" stroke="#FCE986" stroke-width="2.26614" stroke-linecap="round"/>
<path d="M214.081 17.8284L214.081 23.4937" stroke="#FCE986" stroke-width="2.26614" stroke-linecap="round"/>
<path d="M198.218 23.4937L202.224 27.4997" stroke="#FCE986" stroke-width="2.26614" stroke-linecap="round"/>
<path d="M236.216 39.9233H230.55" stroke="#FCE986" stroke-width="2.26614" stroke-linecap="round"/>
<path d="M357.98 201.385L344.384 197.986" stroke="#FCE986" stroke-width="2.26614" stroke-linecap="round"/>
<path d="M374.977 201.385L388.573 197.986" stroke="#FCE986" stroke-width="2.26614" stroke-linecap="round"/>
<path d="M357.98 210.45L344.384 207.051" stroke="#FCE986" stroke-width="2.26614" stroke-linecap="round"/>
<path d="M374.977 210.45L388.573 207.051" stroke="#FCE986" stroke-width="2.26614" stroke-linecap="round"/>
<path d="M357.98 219.514L344.384 216.115" stroke="#FCE986" stroke-width="2.26614" stroke-linecap="round"/>
<path d="M374.977 219.514L388.573 216.115" stroke="#FCE986" stroke-width="2.26614" stroke-linecap="round"/>
<path d="M230.551 23.4937L226.545 27.4997" stroke="#FCE986" stroke-width="2.26614" stroke-linecap="round"/>
<path d="M166.743 259.874V250.027H170.976C171.888 250.027 172.593 250.295 173.092 250.831C173.59 251.367 173.84 252.086 173.84 252.989C173.84 253.892 173.59 254.612 173.092 255.148C172.593 255.684 171.888 255.952 170.976 255.952H168.337V259.874H166.743ZM168.337 254.555H170.877C171.281 254.555 171.596 254.452 171.822 254.245C172.048 254.029 172.161 253.723 172.161 253.328V252.651C172.161 252.256 172.048 251.955 171.822 251.748C171.596 251.531 171.281 251.423 170.877 251.423H168.337V254.555ZM175.338 259.874V252.538H176.876V253.949H176.946C177.05 253.572 177.266 253.243 177.595 252.961C177.924 252.679 178.38 252.538 178.964 252.538H179.373V254.019H178.766C178.155 254.019 177.684 254.118 177.355 254.315C177.035 254.513 176.876 254.804 176.876 255.19V259.874H175.338ZM183.548 260.043C183.04 260.043 182.574 259.954 182.151 259.775C181.737 259.597 181.384 259.343 181.093 259.013C180.801 258.675 180.576 258.27 180.416 257.8C180.256 257.32 180.176 256.789 180.176 256.206C180.176 255.623 180.256 255.096 180.416 254.626C180.576 254.146 180.801 253.742 181.093 253.412C181.384 253.074 181.737 252.815 182.151 252.637C182.574 252.458 183.04 252.368 183.548 252.368C184.056 252.368 184.517 252.458 184.93 252.637C185.354 252.815 185.711 253.074 186.003 253.412C186.294 253.742 186.52 254.146 186.68 254.626C186.84 255.096 186.92 255.623 186.92 256.206C186.92 256.789 186.84 257.32 186.68 257.8C186.52 258.27 186.294 258.675 186.003 259.013C185.711 259.343 185.354 259.597 184.93 259.775C184.517 259.954 184.056 260.043 183.548 260.043ZM183.548 258.774C184.074 258.774 184.498 258.614 184.817 258.294C185.137 257.965 185.297 257.476 185.297 256.827V255.585C185.297 254.936 185.137 254.452 184.817 254.132C184.498 253.803 184.074 253.638 183.548 253.638C183.021 253.638 182.598 253.803 182.278 254.132C181.958 254.452 181.798 254.936 181.798 255.585V256.827C181.798 257.476 181.958 257.965 182.278 258.294C182.598 258.614 183.021 258.774 183.548 258.774ZM193.246 258.661H193.176C193.016 259.093 192.753 259.432 192.386 259.677C192.028 259.921 191.605 260.043 191.116 260.043C190.185 260.043 189.465 259.709 188.958 259.042C188.45 258.364 188.196 257.419 188.196 256.206C188.196 254.993 188.45 254.052 188.958 253.384C189.465 252.707 190.185 252.368 191.116 252.368C191.605 252.368 192.028 252.491 192.386 252.735C192.753 252.97 193.016 253.309 193.176 253.751H193.246V249.434H194.784V259.874H193.246V258.661ZM191.582 258.717C192.052 258.717 192.447 258.604 192.767 258.379C193.087 258.143 193.246 257.838 193.246 257.462V254.95C193.246 254.574 193.087 254.273 192.767 254.047C192.447 253.812 192.052 253.695 191.582 253.695C191.046 253.695 190.618 253.869 190.298 254.217C189.978 254.555 189.818 255.007 189.818 255.571V256.841C189.818 257.405 189.978 257.861 190.298 258.209C190.618 258.548 191.046 258.717 191.582 258.717ZM201.426 258.661H201.37C201.304 258.839 201.215 259.013 201.102 259.183C200.998 259.352 200.862 259.503 200.693 259.634C200.533 259.756 200.335 259.855 200.1 259.93C199.874 260.006 199.611 260.043 199.31 260.043C198.548 260.043 197.956 259.799 197.532 259.31C197.119 258.821 196.912 258.12 196.912 257.208V252.538H198.45V257.01C198.45 258.148 198.92 258.717 199.86 258.717C200.058 258.717 200.251 258.694 200.439 258.647C200.627 258.59 200.791 258.51 200.933 258.407C201.083 258.303 201.201 258.172 201.285 258.012C201.379 257.852 201.426 257.664 201.426 257.447V252.538H202.964V259.874H201.426V258.661ZM208.002 260.043C207.475 260.043 207.005 259.954 206.591 259.775C206.177 259.597 205.829 259.343 205.547 259.013C205.265 258.675 205.049 258.27 204.898 257.8C204.748 257.32 204.672 256.789 204.672 256.206C204.672 255.623 204.748 255.096 204.898 254.626C205.049 254.146 205.265 253.742 205.547 253.412C205.829 253.074 206.177 252.815 206.591 252.637C207.005 252.458 207.475 252.368 208.002 252.368C208.735 252.368 209.337 252.533 209.808 252.862C210.278 253.191 210.621 253.629 210.838 254.174L209.568 254.767C209.464 254.428 209.281 254.16 209.018 253.963C208.764 253.756 208.425 253.652 208.002 253.652C207.438 253.652 207.01 253.831 206.718 254.188C206.436 254.536 206.295 254.993 206.295 255.557V256.869C206.295 257.433 206.436 257.894 206.718 258.252C207.01 258.6 207.438 258.774 208.002 258.774C208.453 258.774 208.811 258.665 209.074 258.449C209.347 258.223 209.563 257.927 209.723 257.56L210.894 258.181C210.649 258.783 210.283 259.244 209.794 259.564C209.304 259.883 208.707 260.043 208.002 260.043ZM214.39 259.874C213.853 259.874 213.449 259.738 213.176 259.465C212.903 259.183 212.767 258.788 212.767 258.28V253.793H211.624V252.538H212.245C212.499 252.538 212.673 252.481 212.767 252.368C212.871 252.256 212.922 252.072 212.922 251.818V250.534H214.305V252.538H215.843V253.793H214.305V258.618H215.73V259.874H214.39ZM220.958 250.027H224.442C225.073 250.027 225.642 250.13 226.15 250.337C226.667 250.544 227.104 250.854 227.462 251.268C227.828 251.672 228.111 252.185 228.308 252.806C228.506 253.417 228.604 254.132 228.604 254.95C228.604 255.769 228.506 256.488 228.308 257.109C228.111 257.72 227.828 258.233 227.462 258.647C227.104 259.051 226.667 259.357 226.15 259.564C225.642 259.771 225.073 259.874 224.442 259.874H220.958V250.027ZM224.442 258.463C225.176 258.463 225.769 258.233 226.22 257.772C226.672 257.311 226.897 256.634 226.897 255.74V254.16C226.897 253.267 226.672 252.59 226.22 252.129C225.769 251.668 225.176 251.437 224.442 251.437H222.552V258.463H224.442ZM233.353 260.043C232.827 260.043 232.356 259.954 231.943 259.775C231.529 259.597 231.176 259.343 230.885 259.013C230.593 258.675 230.367 258.27 230.207 257.8C230.057 257.32 229.982 256.789 229.982 256.206C229.982 255.623 230.057 255.096 230.207 254.626C230.367 254.146 230.593 253.742 230.885 253.412C231.176 253.074 231.529 252.815 231.943 252.637C232.356 252.458 232.827 252.368 233.353 252.368C233.89 252.368 234.36 252.463 234.764 252.651C235.178 252.839 235.521 253.102 235.794 253.441C236.067 253.77 236.269 254.156 236.401 254.598C236.542 255.04 236.612 255.515 236.612 256.022V256.601H231.576V256.841C231.576 257.405 231.74 257.871 232.07 258.237C232.408 258.595 232.888 258.774 233.509 258.774C233.96 258.774 234.341 258.675 234.651 258.477C234.962 258.28 235.225 258.012 235.441 257.673L236.344 258.562C236.072 259.013 235.677 259.376 235.159 259.648C234.642 259.912 234.04 260.043 233.353 260.043ZM233.353 253.568C233.09 253.568 232.846 253.615 232.62 253.709C232.404 253.803 232.215 253.934 232.056 254.104C231.905 254.273 231.787 254.475 231.703 254.71C231.618 254.946 231.576 255.204 231.576 255.486V255.585H234.99V255.444C234.99 254.88 234.844 254.428 234.553 254.09C234.261 253.742 233.861 253.568 233.353 253.568ZM240.643 260.043C239.947 260.043 239.364 259.921 238.893 259.677C238.423 259.432 238.014 259.093 237.666 258.661L238.653 257.758C238.926 258.087 239.227 258.346 239.556 258.534C239.895 258.712 240.285 258.802 240.727 258.802C241.179 258.802 241.513 258.717 241.729 258.548C241.955 258.369 242.068 258.125 242.068 257.814C242.068 257.579 241.988 257.382 241.828 257.222C241.677 257.052 241.409 256.944 241.024 256.897L240.346 256.813C239.594 256.718 239.001 256.502 238.569 256.164C238.145 255.816 237.934 255.303 237.934 254.626C237.934 254.268 238 253.953 238.131 253.681C238.263 253.398 238.446 253.163 238.682 252.975C238.926 252.778 239.213 252.627 239.542 252.524C239.881 252.42 240.252 252.368 240.657 252.368C241.315 252.368 241.851 252.472 242.265 252.679C242.688 252.886 243.065 253.173 243.394 253.539L242.448 254.442C242.26 254.217 242.011 254.024 241.701 253.864C241.4 253.695 241.052 253.61 240.657 253.61C240.234 253.61 239.918 253.695 239.712 253.864C239.514 254.033 239.415 254.254 239.415 254.527C239.415 254.809 239.505 255.021 239.683 255.162C239.862 255.303 240.149 255.406 240.544 255.472L241.221 255.557C242.03 255.679 242.618 255.919 242.985 256.276C243.361 256.624 243.549 257.095 243.549 257.687C243.549 258.045 243.478 258.369 243.337 258.661C243.206 258.943 243.013 259.187 242.759 259.394C242.505 259.601 242.199 259.761 241.842 259.874C241.484 259.987 241.085 260.043 240.643 260.043ZM246.062 251.226C245.742 251.226 245.507 251.15 245.357 251C245.216 250.849 245.145 250.657 245.145 250.422V250.182C245.145 249.947 245.216 249.754 245.357 249.603C245.507 249.453 245.742 249.378 246.062 249.378C246.382 249.378 246.612 249.453 246.753 249.603C246.895 249.754 246.965 249.947 246.965 250.182V250.422C246.965 250.657 246.895 250.849 246.753 251C246.612 251.15 246.382 251.226 246.062 251.226ZM245.286 252.538H246.824V259.874H245.286V252.538ZM255.453 260.565C255.453 261.327 255.162 261.901 254.579 262.287C253.995 262.672 253.045 262.865 251.729 262.865C251.127 262.865 250.614 262.823 250.191 262.738C249.777 262.663 249.434 262.55 249.161 262.399C248.898 262.249 248.705 262.065 248.583 261.849C248.46 261.633 248.399 261.384 248.399 261.101C248.399 260.697 248.507 260.382 248.724 260.156C248.949 259.93 249.26 259.775 249.655 259.691V259.535C249.1 259.357 248.822 258.981 248.822 258.407C248.822 258.031 248.949 257.744 249.203 257.546C249.457 257.339 249.763 257.193 250.12 257.109V257.052C249.688 256.845 249.354 256.559 249.119 256.192C248.893 255.816 248.78 255.378 248.78 254.88C248.78 254.127 249.029 253.521 249.528 253.06C250.036 252.599 250.76 252.368 251.7 252.368C252.218 252.368 252.66 252.444 253.027 252.594V252.397C253.027 252.068 253.102 251.814 253.252 251.635C253.412 251.447 253.657 251.353 253.986 251.353H255.115V252.594H253.619V252.89C253.948 253.107 254.202 253.389 254.381 253.737C254.56 254.076 254.649 254.456 254.649 254.88C254.649 255.623 254.395 256.225 253.887 256.686C253.379 257.137 252.655 257.363 251.715 257.363C251.357 257.363 251.037 257.325 250.755 257.25C250.567 257.316 250.403 257.41 250.261 257.532C250.12 257.645 250.05 257.795 250.05 257.984C250.05 258.181 250.139 258.322 250.318 258.407C250.497 258.491 250.751 258.534 251.08 258.534H252.886C253.788 258.534 254.442 258.717 254.847 259.084C255.251 259.441 255.453 259.935 255.453 260.565ZM254.014 260.735C254.014 260.481 253.915 260.278 253.718 260.128C253.53 259.977 253.182 259.902 252.674 259.902H250.191C249.852 260.1 249.683 260.382 249.683 260.749C249.683 261.05 249.801 261.29 250.036 261.468C250.28 261.656 250.689 261.75 251.263 261.75H252.222C253.417 261.75 254.014 261.412 254.014 260.735ZM251.715 256.248C252.166 256.248 252.514 256.149 252.759 255.952C253.013 255.745 253.14 255.43 253.14 255.007V254.725C253.14 254.301 253.013 253.991 252.759 253.793C252.514 253.586 252.166 253.483 251.715 253.483C251.263 253.483 250.91 253.586 250.656 253.793C250.412 253.991 250.29 254.301 250.29 254.725V255.007C250.29 255.43 250.412 255.745 250.656 255.952C250.91 256.149 251.263 256.248 251.715 256.248ZM256.598 259.874V252.538H258.135V253.751H258.206C258.366 253.356 258.606 253.027 258.925 252.764C259.255 252.5 259.701 252.368 260.266 252.368C261.018 252.368 261.601 252.618 262.015 253.116C262.438 253.605 262.65 254.306 262.65 255.218V259.874H261.112V255.416C261.112 254.268 260.651 253.695 259.73 253.695C259.532 253.695 259.335 253.723 259.137 253.779C258.949 253.826 258.78 253.902 258.629 254.005C258.479 254.108 258.356 254.24 258.262 254.4C258.178 254.56 258.135 254.748 258.135 254.964V259.874H256.598Z" fill="white"/>
<mask id="path-32-inside-2_1005_19580" fill="white">
<path fill-rule="evenodd" clip-rule="evenodd" d="M228.388 196.938L211.172 202.468L215.967 188.519L233.182 182.988L228.388 196.938ZM224.798 215.822L211.5 204.138L228.85 198.564L242.147 210.249L224.798 215.822ZM219.557 169.637L232.855 181.322L215.505 186.895L202.207 175.211L219.557 169.637ZM237.68 225.865L220.464 231.395L225.259 217.446L242.475 211.916L237.68 225.865ZM244.579 210.292C244.55 210.222 244.497 210.179 244.447 210.119C244.412 210.07 244.422 210.007 244.372 209.967L230.028 197.355L235.321 181.947C235.343 181.893 235.305 181.835 235.313 181.779C235.327 181.688 235.336 181.613 235.32 181.521C235.312 181.487 235.338 181.452 235.325 181.413C235.319 181.395 235.294 181.39 235.287 181.366C235.257 181.295 235.204 181.253 235.155 181.192C235.119 181.144 235.129 181.081 235.079 181.04L220.308 168.057C220.282 168.029 220.24 168.043 220.208 168.023C220.117 167.959 220.023 167.943 219.91 167.923C219.804 167.9 219.713 167.876 219.603 167.895C219.568 167.899 219.533 167.871 219.497 167.883L200.279 174.056C200.252 174.065 200.248 174.096 200.222 174.108C200.152 174.137 200.109 174.187 200.044 174.235C200 174.272 199.94 174.261 199.905 174.306C199.878 174.335 199.888 174.378 199.872 174.41C199.835 174.458 199.804 174.498 199.783 174.555C199.774 174.577 199.74 174.585 199.734 174.61L189.292 208.102C189.275 208.161 189.314 208.211 189.306 208.267C189.296 208.38 189.305 208.47 189.336 208.579C189.368 208.689 189.406 208.766 189.476 208.85C189.513 208.902 189.51 208.966 189.559 209.003L218.585 233.363C218.618 233.392 218.661 233.392 218.696 233.417C218.732 233.439 218.761 233.456 218.8 233.473C218.823 233.483 218.827 233.508 218.85 233.517C218.868 233.521 218.885 233.513 218.906 233.516C219.059 233.56 219.225 233.57 219.381 233.519L238.599 227.346C238.845 227.267 239.004 227.079 239.096 226.86C239.102 226.839 239.128 226.837 239.135 226.818L244.613 210.874C244.636 210.82 244.598 210.762 244.606 210.706C244.62 210.615 244.629 210.54 244.613 210.448C244.605 210.414 244.63 210.379 244.618 210.34C244.612 210.322 244.587 210.316 244.579 210.292Z"/>
</mask>
<path d="M228.388 196.938L228.907 198.556C229.418 198.392 229.821 197.997 229.995 197.49L228.388 196.938ZM211.172 202.468L209.565 201.916C209.356 202.524 209.508 203.198 209.958 203.658C210.409 204.117 211.08 204.283 211.692 204.086L211.172 202.468ZM215.967 188.519L215.447 186.901C214.937 187.064 214.534 187.459 214.36 187.966L215.967 188.519ZM233.182 182.988L234.79 183.541C234.999 182.932 234.847 182.258 234.396 181.799C233.946 181.339 233.275 181.173 232.663 181.37L233.182 182.988ZM224.798 215.822L223.676 217.099C224.125 217.494 224.748 217.623 225.317 217.441L224.798 215.822ZM211.5 204.138L210.98 202.52C210.398 202.707 209.961 203.193 209.836 203.792C209.711 204.391 209.919 205.011 210.378 205.415L211.5 204.138ZM228.85 198.564L229.972 197.288C229.523 196.893 228.899 196.763 228.33 196.946L228.85 198.564ZM242.147 210.249L242.667 211.867C243.25 211.68 243.687 211.194 243.811 210.595C243.936 209.996 243.729 209.376 243.269 208.972L242.147 210.249ZM219.557 169.637L220.679 168.361C220.23 167.966 219.607 167.836 219.037 168.019L219.557 169.637ZM232.855 181.322L233.375 182.94C233.957 182.753 234.394 182.267 234.519 181.668C234.643 181.069 234.436 180.449 233.977 180.045L232.855 181.322ZM215.505 186.895L214.383 188.172C214.832 188.567 215.455 188.696 216.025 188.513L215.505 186.895ZM202.207 175.211L201.688 173.593C201.105 173.78 200.668 174.266 200.543 174.865C200.419 175.464 200.626 176.084 201.085 176.488L202.207 175.211ZM237.68 225.865L238.2 227.483C238.71 227.319 239.113 226.924 239.287 226.418L237.68 225.865ZM220.464 231.395L218.857 230.843C218.648 231.451 218.8 232.126 219.25 232.585C219.701 233.044 220.372 233.21 220.984 233.014L220.464 231.395ZM225.259 217.446L224.739 215.828C224.229 215.992 223.826 216.387 223.652 216.893L225.259 217.446ZM242.475 211.916L244.082 212.468C244.291 211.86 244.139 211.185 243.688 210.726C243.238 210.267 242.567 210.101 241.955 210.297L242.475 211.916ZM244.579 210.292L246.198 209.772C246.183 209.728 246.167 209.684 246.149 209.64L244.579 210.292ZM244.447 210.119L243.076 211.122C243.093 211.145 243.11 211.168 243.129 211.191L244.447 210.119ZM244.372 209.967L243.25 211.243C243.264 211.256 243.279 211.268 243.294 211.28L244.372 209.967ZM230.028 197.355L228.421 196.803C228.197 197.455 228.389 198.177 228.906 198.632L230.028 197.355ZM235.321 181.947L233.753 181.291C233.739 181.325 233.725 181.359 233.713 181.394L235.321 181.947ZM235.313 181.779L233.633 181.523L233.633 181.523L235.313 181.779ZM235.32 181.521L236.994 181.227C236.989 181.201 236.984 181.175 236.978 181.15L235.32 181.521ZM235.287 181.366L236.905 180.846C236.89 180.801 236.874 180.757 236.856 180.714L235.287 181.366ZM235.155 181.192L233.783 182.196C233.8 182.219 233.818 182.242 233.836 182.264L235.155 181.192ZM235.079 181.04L233.957 182.317C233.972 182.329 233.986 182.342 234.001 182.354L235.079 181.04ZM220.308 168.057L219.049 169.199C219.092 169.246 219.138 169.291 219.186 169.334L220.308 168.057ZM220.208 168.023L219.223 169.408C219.261 169.436 219.301 169.461 219.341 169.485L220.208 168.023ZM219.91 167.923L219.562 169.586C219.577 169.589 219.593 169.592 219.608 169.595L219.91 167.923ZM219.603 167.895L219.824 169.58C219.846 169.577 219.867 169.574 219.888 169.57L219.603 167.895ZM200.222 174.108L200.875 175.677C200.89 175.671 200.904 175.665 200.918 175.658L200.222 174.108ZM200.044 174.235L199.038 172.865C199.007 172.888 198.976 172.912 198.946 172.938L200.044 174.235ZM199.905 174.306L201.138 175.476C201.173 175.439 201.206 175.401 201.237 175.362L199.905 174.306ZM199.872 174.41L201.219 175.446C201.282 175.364 201.338 175.276 201.385 175.184L199.872 174.41ZM199.783 174.555L201.36 175.188C201.364 175.178 201.368 175.167 201.372 175.157L199.783 174.555ZM199.734 174.61L201.357 175.116C201.373 175.064 201.387 175.012 201.398 174.959L199.734 174.61ZM189.292 208.102L187.67 207.596C187.668 207.602 187.666 207.609 187.664 207.616L189.292 208.102ZM189.306 208.267L187.625 208.011C187.62 208.045 187.616 208.08 187.613 208.116L189.306 208.267ZM189.336 208.579L190.968 208.105L190.968 208.105L189.336 208.579ZM189.476 208.85L190.864 207.869C190.838 207.832 190.81 207.796 190.781 207.761L189.476 208.85ZM189.559 209.003L190.651 207.701C190.634 207.687 190.617 207.673 190.6 207.66L189.559 209.003ZM218.585 233.363L219.723 232.1C219.708 232.087 219.693 232.074 219.678 232.061L218.585 233.363ZM218.696 233.417L217.69 234.788C217.738 234.823 217.787 234.855 217.838 234.885L218.696 233.417ZM218.8 233.473L218.101 235.023C218.121 235.032 218.14 235.04 218.16 235.048L218.8 233.473ZM218.85 233.517L218.211 235.092C218.292 235.125 218.376 235.151 218.461 235.171L218.85 233.517ZM218.906 233.516L219.374 231.882C219.306 231.862 219.237 231.847 219.167 231.836L218.906 233.516ZM239.096 226.86L240.663 227.518C240.689 227.455 240.712 227.389 240.731 227.323L239.096 226.86ZM239.135 226.818L240.724 227.42C240.731 227.404 240.737 227.387 240.742 227.37L239.135 226.818ZM244.613 210.874L243.045 210.218C243.031 210.252 243.018 210.286 243.006 210.321L244.613 210.874ZM244.606 210.706L242.926 210.45L242.926 210.45L244.606 210.706ZM244.613 210.448L246.287 210.154C246.282 210.128 246.277 210.102 246.271 210.077L244.613 210.448ZM227.868 195.32L210.652 200.85L211.692 204.086L228.907 198.556L227.868 195.32ZM212.78 203.021L217.574 189.071L214.36 187.966L209.565 201.916L212.78 203.021ZM216.487 190.137L233.702 184.606L232.663 181.37L215.447 186.901L216.487 190.137ZM231.575 182.436L226.78 196.385L229.995 197.49L234.79 183.541L231.575 182.436ZM225.919 214.546L212.622 202.861L210.378 205.415L223.676 217.099L225.919 214.546ZM212.02 205.756L229.37 200.183L228.33 196.946L210.98 202.52L212.02 205.756ZM227.728 199.841L241.026 211.526L243.269 208.972L229.972 197.288L227.728 199.841ZM241.628 208.631L224.278 214.204L225.317 217.441L242.667 211.867L241.628 208.631ZM218.435 170.914L231.733 182.599L233.977 180.045L220.679 168.361L218.435 170.914ZM232.335 179.704L214.985 185.277L216.025 188.513L233.375 182.94L232.335 179.704ZM216.627 185.619L203.329 173.934L201.085 176.488L214.383 188.172L216.627 185.619ZM202.727 176.829L220.077 171.256L219.037 168.019L201.688 173.593L202.727 176.829ZM237.16 224.247L219.945 229.777L220.984 233.014L238.2 227.483L237.16 224.247ZM222.072 231.948L226.866 217.998L223.652 216.893L218.857 230.843L222.072 231.948ZM225.779 219.064L242.994 213.534L241.955 210.297L224.739 215.828L225.779 219.064ZM240.867 211.363L236.072 225.313L239.287 226.418L244.082 212.468L240.867 211.363ZM246.149 209.64C246.037 209.371 245.89 209.187 245.811 209.096C245.792 209.073 245.775 209.054 245.764 209.042C245.758 209.036 245.753 209.03 245.75 209.026C245.745 209.021 245.744 209.02 245.742 209.017C245.733 209.008 245.747 209.023 245.766 209.046L243.129 211.191C243.172 211.245 243.212 211.288 243.228 211.305C243.253 211.333 243.24 211.319 243.231 211.308C243.198 211.27 243.092 211.143 243.01 210.944L246.149 209.64ZM245.819 209.115C245.937 209.276 245.997 209.422 246.025 209.499C246.038 209.536 246.047 209.564 246.049 209.57C246.049 209.572 246.05 209.575 246.048 209.569C246.047 209.565 246.044 209.555 246.04 209.543C246.014 209.456 245.885 209.01 245.45 208.653L243.294 211.28C243.205 211.207 243.127 211.127 243.059 211.042C242.991 210.957 242.94 210.875 242.901 210.802C242.828 210.665 242.794 210.55 242.79 210.537C242.788 210.531 242.787 210.528 242.788 210.531C242.788 210.532 242.791 210.541 242.794 210.55C242.799 210.569 242.812 210.611 242.831 210.661C242.868 210.765 242.941 210.937 243.076 211.122L245.819 209.115ZM245.494 208.69L231.15 196.079L228.906 198.632L243.25 211.243L245.494 208.69ZM231.636 197.908L236.928 182.499L233.713 181.394L228.421 196.803L231.636 197.908ZM236.889 182.602C237.007 182.32 237.031 182.06 237.027 181.869C237.023 181.695 236.994 181.557 236.988 181.525C236.986 181.515 236.984 181.505 236.983 181.503C236.982 181.498 236.983 181.5 236.983 181.503C236.985 181.51 236.991 181.538 236.996 181.578C237.007 181.653 237.026 181.822 236.994 182.036L233.633 181.523C233.596 181.765 233.617 181.961 233.632 182.065C233.64 182.119 233.648 182.161 233.653 182.182C233.655 182.192 233.657 182.201 233.657 182.204C233.658 182.208 233.658 182.206 233.657 182.202C233.655 182.196 233.649 182.166 233.644 182.126C233.638 182.084 233.63 182.021 233.629 181.942C233.625 181.779 233.646 181.546 233.753 181.291L236.889 182.602ZM236.994 182.036C237.012 181.914 237.061 181.607 236.994 181.227L233.646 181.816C233.63 181.723 233.627 181.639 233.63 181.573C233.633 181.519 233.639 181.487 233.633 181.523L236.994 182.036ZM236.978 181.15C237.034 181.399 237.019 181.603 237.005 181.709C236.999 181.763 236.991 181.803 236.987 181.819C236.987 181.824 236.986 181.827 236.985 181.83C236.985 181.832 236.985 181.833 236.984 181.834C236.984 181.837 236.986 181.827 236.987 181.823C236.99 181.809 236.997 181.772 237.005 181.726C237.013 181.678 237.022 181.611 237.026 181.53C237.035 181.361 237.022 181.139 236.943 180.893L233.707 181.933C233.672 181.823 233.65 181.716 233.639 181.615C233.628 181.515 233.627 181.427 233.631 181.354C233.635 181.282 233.643 181.224 233.649 181.185C233.652 181.166 233.655 181.149 233.657 181.138C233.66 181.127 233.661 181.119 233.662 181.116C233.662 181.114 233.662 181.113 233.662 181.114C233.662 181.114 233.662 181.114 233.662 181.115C233.662 181.116 233.662 181.117 233.661 181.118C233.661 181.122 233.658 181.133 233.656 181.146C233.651 181.17 233.641 181.22 233.633 181.282C233.618 181.406 233.602 181.627 233.662 181.893L236.978 181.15ZM236.943 180.893C236.918 180.814 236.887 180.738 236.853 180.669C236.819 180.599 236.783 180.536 236.746 180.48C236.674 180.369 236.601 180.284 236.545 180.226C236.517 180.197 236.492 180.172 236.471 180.153C236.451 180.135 236.434 180.119 236.421 180.109C236.409 180.098 236.4 180.09 236.396 180.087C236.395 180.086 236.394 180.086 236.394 180.085C236.393 180.085 236.393 180.085 236.393 180.085C236.393 180.084 236.393 180.084 236.392 180.084C236.392 180.084 236.393 180.085 236.395 180.086C236.398 180.089 236.406 180.096 236.416 180.105C236.427 180.114 236.442 180.127 236.459 180.143C236.493 180.175 236.542 180.223 236.595 180.286C236.649 180.35 236.707 180.429 236.763 180.526C236.819 180.623 236.867 180.73 236.905 180.846L233.668 181.886C233.708 182.008 233.759 182.12 233.818 182.222C233.876 182.324 233.938 182.408 233.995 182.476C234.052 182.543 234.104 182.595 234.142 182.63C234.161 182.648 234.178 182.663 234.191 182.674C234.203 182.685 234.213 182.693 234.218 182.697C234.221 182.699 234.223 182.701 234.224 182.702C234.225 182.703 234.224 182.702 234.223 182.701C234.221 182.7 234.213 182.693 234.203 182.685C234.193 182.676 234.177 182.662 234.159 182.645C234.14 182.627 234.117 182.605 234.09 182.577C234.038 182.523 233.968 182.442 233.898 182.334C233.862 182.28 233.827 182.219 233.794 182.152C233.762 182.084 233.732 182.011 233.707 181.933L236.943 180.893ZM236.856 180.714C236.744 180.445 236.597 180.261 236.519 180.169C236.499 180.147 236.482 180.128 236.471 180.116C236.466 180.109 236.461 180.104 236.457 180.1C236.453 180.095 236.451 180.094 236.449 180.091C236.44 180.081 236.454 180.096 236.473 180.12L233.836 182.264C233.88 182.318 233.919 182.361 233.935 182.379C233.96 182.407 233.947 182.393 233.938 182.381C233.906 182.344 233.8 182.216 233.717 182.018L236.856 180.714ZM236.526 180.189C236.644 180.349 236.704 180.495 236.732 180.572C236.746 180.61 236.754 180.638 236.756 180.643C236.756 180.646 236.757 180.648 236.755 180.642C236.754 180.638 236.751 180.628 236.748 180.616C236.721 180.53 236.592 180.083 236.158 179.726L234.001 182.354C233.912 182.281 233.834 182.2 233.766 182.115C233.699 182.031 233.647 181.949 233.608 181.876C233.535 181.739 233.501 181.624 233.497 181.61C233.495 181.605 233.494 181.601 233.495 181.604C233.495 181.605 233.498 181.615 233.501 181.624C233.507 181.642 233.519 181.684 233.538 181.735C233.576 181.839 233.648 182.011 233.783 182.196L236.526 180.189ZM236.201 179.764L221.43 166.781L219.186 169.334L233.957 182.317L236.201 179.764ZM221.568 166.916C221.347 166.673 221.096 166.531 220.882 166.451C220.695 166.381 220.535 166.359 220.505 166.355C220.494 166.353 220.485 166.352 220.484 166.352C220.48 166.352 220.485 166.352 220.491 166.353C220.502 166.355 220.539 166.36 220.588 166.37C220.685 166.391 220.869 166.44 221.074 166.561L219.341 169.485C219.562 169.616 219.764 169.671 219.88 169.695C219.937 169.707 219.983 169.714 220.003 169.717C220.014 169.719 220.023 169.72 220.024 169.72C220.027 169.72 220.022 169.72 220.016 169.719C220.004 169.717 219.964 169.711 219.913 169.7C219.86 169.689 219.782 169.669 219.69 169.634C219.597 169.599 219.487 169.549 219.373 169.475C219.257 169.4 219.147 169.308 219.049 169.199L221.568 166.916ZM221.193 166.638C220.743 166.319 220.262 166.259 220.213 166.25L219.608 169.595C219.625 169.598 219.633 169.6 219.641 169.601C219.649 169.602 219.65 169.603 219.649 169.602C219.646 169.602 219.62 169.597 219.582 169.585C219.495 169.559 219.362 169.507 219.223 169.408L221.193 166.638ZM220.258 166.259C220.25 166.257 220.243 166.256 220.226 166.252C220.213 166.249 220.192 166.245 220.17 166.24C220.126 166.231 220.058 166.218 219.978 166.208C219.805 166.186 219.579 166.175 219.318 166.219L219.888 169.57C219.737 169.596 219.612 169.588 219.539 169.579C219.508 169.575 219.489 169.571 219.496 169.572C219.499 169.573 219.504 169.574 219.516 169.576C219.525 169.578 219.544 169.582 219.562 169.586L220.258 166.259ZM219.382 166.21C219.633 166.177 219.831 166.21 219.924 166.229C219.972 166.24 220.009 166.25 220.022 166.253C220.028 166.255 220.033 166.257 220.032 166.256C220.032 166.256 220.032 166.256 220.031 166.256C220.03 166.256 220.029 166.255 220.028 166.255C220.026 166.254 220.022 166.253 220.018 166.252C219.998 166.246 219.87 166.208 219.706 166.19C219.525 166.171 219.267 166.171 218.977 166.264L220.016 169.501C219.745 169.588 219.504 169.588 219.341 169.57C219.262 169.562 219.199 169.549 219.158 169.539C219.118 169.53 219.089 169.522 219.083 169.52C219.08 169.519 219.077 169.518 219.082 169.52C219.085 169.521 219.094 169.524 219.106 169.527C219.127 169.533 219.173 169.545 219.23 169.557C219.341 169.58 219.556 169.615 219.824 169.58L219.382 166.21ZM218.977 166.264L199.759 172.438L200.799 175.674L220.016 169.501L218.977 166.264ZM199.759 172.438C199.617 172.484 199.487 172.545 199.37 172.618C199.254 172.69 199.161 172.767 199.089 172.836C199.018 172.904 198.966 172.965 198.933 173.006C198.901 173.045 198.878 173.078 198.874 173.083C198.863 173.098 198.879 173.076 198.894 173.056C198.913 173.032 198.949 172.986 198.999 172.933C199.106 172.819 199.278 172.669 199.526 172.557L200.918 175.658C201.045 175.601 201.157 175.533 201.253 175.461C201.348 175.389 201.422 175.318 201.478 175.259C201.532 175.201 201.572 175.15 201.595 175.121C201.606 175.106 201.615 175.093 201.62 175.087C201.623 175.083 201.63 175.074 201.626 175.078C201.626 175.079 201.62 175.087 201.613 175.096C201.606 175.106 201.594 175.122 201.579 175.14C201.55 175.176 201.502 175.233 201.435 175.296C201.367 175.361 201.279 175.434 201.169 175.503C201.057 175.572 200.933 175.631 200.799 175.674L199.759 172.438ZM199.569 172.538C199.322 172.641 199.15 172.773 199.068 172.838C199.048 172.855 199.031 172.869 199.021 172.877C199.002 172.893 199.011 172.885 199.002 172.893C198.997 172.897 199.013 172.884 199.038 172.865L201.051 175.604C201.108 175.562 201.154 175.524 201.177 175.505C201.183 175.5 201.189 175.495 201.192 175.492C201.197 175.489 201.198 175.487 201.2 175.485C201.204 175.482 201.201 175.485 201.195 175.49C201.168 175.512 201.053 175.603 200.875 175.677L199.569 172.538ZM198.946 172.938C199.114 172.796 199.275 172.718 199.376 172.678C199.425 172.658 199.463 172.646 199.478 172.641C199.481 172.64 199.509 172.632 199.476 172.642C199.455 172.648 199.313 172.689 199.152 172.773C198.97 172.868 198.757 173.018 198.573 173.25L201.237 175.362C201.157 175.462 201.069 175.549 200.976 175.623C200.883 175.696 200.795 175.75 200.719 175.789C200.645 175.828 200.581 175.854 200.54 175.869C200.5 175.883 200.47 175.893 200.467 175.893C200.465 175.894 200.465 175.894 200.466 175.894C200.466 175.894 200.466 175.894 200.467 175.893C200.468 175.893 200.47 175.893 200.471 175.892C200.477 175.89 200.488 175.887 200.502 175.882C200.53 175.874 200.581 175.857 200.642 175.833C200.767 175.782 200.953 175.692 201.143 175.532L198.946 172.938ZM198.672 173.136C198.273 173.557 198.214 174.039 198.204 174.1C198.202 174.114 198.197 174.148 198.2 174.13C198.2 174.127 198.204 174.099 198.211 174.063C198.225 173.994 198.261 173.828 198.359 173.635L201.385 175.184C201.492 174.975 201.533 174.792 201.549 174.705C201.558 174.66 201.563 174.623 201.565 174.611C201.569 174.584 201.565 174.608 201.565 174.613C201.561 174.635 201.544 174.756 201.49 174.906C201.43 175.072 201.324 175.28 201.138 175.476L198.672 173.136ZM198.525 173.373C198.498 173.409 198.316 173.631 198.194 173.952L201.372 175.157C201.293 175.365 201.172 175.508 201.219 175.446L198.525 173.373ZM198.206 173.921C198.328 173.617 198.508 173.426 198.603 173.335C198.652 173.289 198.693 173.256 198.711 173.242C198.723 173.233 198.745 173.216 198.725 173.232C198.716 173.238 198.683 173.263 198.643 173.297C198.603 173.332 198.54 173.389 198.472 173.465C198.33 173.625 198.149 173.89 198.071 174.261L201.398 174.959C201.362 175.132 201.3 175.286 201.228 175.419C201.156 175.549 201.079 175.65 201.014 175.723C200.95 175.795 200.892 175.847 200.856 175.878C200.821 175.908 200.793 175.929 200.79 175.932C200.788 175.933 200.787 175.933 200.788 175.933C200.788 175.933 200.79 175.931 200.792 175.93C200.797 175.926 200.806 175.919 200.819 175.909C200.842 175.891 200.888 175.854 200.941 175.803C201.045 175.704 201.233 175.503 201.36 175.188L198.206 173.921ZM198.112 174.104L187.67 207.596L190.915 208.608L201.357 175.116L198.112 174.104ZM187.664 207.616C187.587 207.871 187.58 208.101 187.594 208.278C187.606 208.438 187.639 208.564 187.645 208.589C187.646 208.593 187.647 208.597 187.647 208.6C187.648 208.604 187.648 208.602 187.648 208.604C187.649 208.606 187.648 208.602 187.646 208.595C187.643 208.583 187.635 208.548 187.628 208.501C187.612 208.406 187.592 208.23 187.625 208.011L190.986 208.523C191.023 208.276 191.002 208.072 190.982 207.95C190.972 207.89 190.961 207.842 190.955 207.816C190.952 207.803 190.949 207.792 190.948 207.787C190.946 207.779 190.947 207.782 190.947 207.782C190.947 207.784 190.954 207.81 190.96 207.846C190.967 207.883 190.977 207.94 190.983 208.011C190.988 208.083 190.99 208.171 190.981 208.27C190.973 208.371 190.954 208.478 190.921 208.587L187.664 207.616ZM187.613 208.116C187.583 208.443 187.615 208.746 187.705 209.054L190.968 208.105C190.976 208.131 190.99 208.185 190.997 208.257C191.004 208.329 191.001 208.386 190.998 208.418L187.613 208.116ZM187.705 209.054C187.791 209.351 187.928 209.647 188.172 209.939L190.781 207.761C190.818 207.805 190.864 207.869 190.905 207.951C190.945 208.028 190.963 208.087 190.968 208.105L187.705 209.054ZM188.089 209.832C187.997 209.702 187.946 209.587 187.924 209.532C187.913 209.505 187.906 209.485 187.905 209.484C187.9 209.47 187.912 209.504 187.918 209.518C187.945 209.591 188.09 210.015 188.518 210.347L190.6 207.66C190.787 207.805 190.913 207.969 190.994 208.106C191.067 208.23 191.104 208.333 191.109 208.346C191.109 208.347 191.116 208.367 191.106 208.339C191.101 208.324 191.089 208.29 191.072 208.249C191.038 208.166 190.974 208.025 190.864 207.869L188.089 209.832ZM188.466 210.305L217.493 234.665L219.678 232.061L190.651 207.701L188.466 210.305ZM217.448 234.625C217.598 234.761 217.747 234.849 217.863 234.906C217.969 234.958 218.061 234.989 218.076 234.995C218.095 235.002 218.08 234.996 218.076 234.995C218.065 234.991 218.039 234.981 218.005 234.967C217.936 234.938 217.819 234.882 217.69 234.788L219.701 232.047C219.554 231.939 219.42 231.875 219.332 231.837C219.289 231.819 219.253 231.806 219.232 231.798C219.222 231.795 219.213 231.792 219.209 231.79C219.207 231.789 219.205 231.789 219.204 231.788C219.203 231.788 219.203 231.788 219.204 231.788C219.204 231.788 219.223 231.795 219.247 231.804C219.273 231.815 219.312 231.831 219.359 231.854C219.407 231.877 219.465 231.909 219.527 231.95C219.591 231.991 219.657 232.041 219.723 232.1L217.448 234.625ZM217.838 234.885C217.853 234.893 217.964 234.961 218.101 235.023L219.499 231.924C219.513 231.931 219.528 231.938 219.541 231.944C219.554 231.951 219.564 231.956 219.57 231.96C219.576 231.963 219.579 231.965 219.576 231.963C219.574 231.962 219.572 231.961 219.568 231.958C219.565 231.956 219.558 231.953 219.553 231.95L217.838 234.885ZM218.16 235.048C218.047 235.002 217.946 234.947 217.858 234.887C217.77 234.828 217.7 234.768 217.646 234.717C217.593 234.668 217.554 234.624 217.532 234.598C217.52 234.585 217.512 234.574 217.507 234.568C217.502 234.562 217.498 234.558 217.5 234.56C217.5 234.56 217.506 234.567 217.512 234.574C217.518 234.582 217.529 234.595 217.542 234.611C217.568 234.641 217.611 234.689 217.668 234.742C217.725 234.797 217.8 234.86 217.893 234.922C217.986 234.985 218.092 235.044 218.211 235.092L219.489 231.942C219.602 231.988 219.703 232.044 219.792 232.104C219.88 232.163 219.95 232.222 220.004 232.273C220.057 232.323 220.096 232.366 220.118 232.393C220.13 232.406 220.138 232.417 220.143 232.423C220.148 232.428 220.152 232.433 220.15 232.431C220.15 232.431 220.144 232.424 220.138 232.416C220.131 232.408 220.121 232.395 220.108 232.38C220.082 232.35 220.039 232.302 219.982 232.248C219.924 232.194 219.85 232.131 219.757 232.068C219.664 232.005 219.558 231.947 219.439 231.899L218.16 235.048ZM218.461 235.171C218.655 235.217 218.821 235.221 218.933 235.216C218.987 235.214 219.032 235.21 219.06 235.207C219.087 235.204 219.109 235.2 219.111 235.2C219.118 235.199 219.104 235.201 219.088 235.203C219.07 235.205 219.038 235.209 218.997 235.211C218.914 235.217 218.791 235.218 218.645 235.195L219.167 231.836C219.01 231.812 218.878 231.813 218.785 231.819C218.74 231.822 218.703 231.826 218.68 231.829C218.668 231.83 218.658 231.831 218.653 231.832C218.65 231.832 218.647 231.833 218.646 231.833C218.645 231.833 218.644 231.833 218.644 231.833C218.643 231.833 218.643 231.833 218.643 231.833C218.64 231.834 218.658 231.831 218.68 231.829C218.704 231.826 218.744 231.822 218.794 231.82C218.897 231.816 219.054 231.819 219.24 231.863L218.461 235.171ZM218.438 235.15C218.825 235.26 219.345 235.316 219.901 235.138L218.861 231.901C219.104 231.823 219.294 231.859 219.374 231.882L218.438 235.15ZM219.901 235.138L239.119 228.964L238.079 225.728L218.861 231.901L219.901 235.138ZM239.119 228.964C239.963 228.693 240.436 228.057 240.663 227.518L237.529 226.202C237.549 226.153 237.595 226.065 237.688 225.97C237.787 225.868 237.921 225.778 238.079 225.728L239.119 228.964ZM240.731 227.323C240.689 227.47 240.629 227.607 240.554 227.731C240.48 227.854 240.399 227.952 240.326 228.028C240.254 228.102 240.189 228.155 240.146 228.189C240.124 228.205 240.106 228.219 240.093 228.228C240.081 228.237 240.071 228.243 240.068 228.245C240.067 228.246 240.066 228.247 240.067 228.246C240.067 228.246 240.07 228.244 240.072 228.242C240.078 228.238 240.091 228.23 240.106 228.219C240.136 228.198 240.193 228.156 240.259 228.097C240.327 228.036 240.412 227.95 240.497 227.836C240.583 227.72 240.663 227.581 240.724 227.42L237.546 226.216C237.605 226.06 237.682 225.925 237.766 225.812C237.848 225.702 237.93 225.619 237.994 225.562C238.057 225.506 238.11 225.467 238.136 225.449C238.149 225.439 238.16 225.432 238.163 225.43C238.165 225.428 238.167 225.428 238.166 225.428C238.166 225.428 238.165 225.428 238.165 225.429C238.164 225.429 238.163 225.43 238.161 225.431C238.154 225.436 238.116 225.461 238.071 225.496C238.024 225.532 237.956 225.589 237.881 225.667C237.804 225.746 237.721 225.848 237.644 225.975C237.566 226.104 237.503 226.246 237.46 226.398L240.731 227.323ZM240.742 227.37L246.221 211.426L243.006 210.321L237.528 226.266L240.742 227.37ZM246.181 211.529C246.299 211.247 246.324 210.987 246.32 210.796C246.316 210.622 246.287 210.484 246.281 210.452C246.278 210.442 246.276 210.432 246.276 210.43C246.275 210.425 246.275 210.427 246.276 210.43C246.277 210.437 246.283 210.466 246.289 210.505C246.3 210.58 246.319 210.749 246.286 210.963L242.926 210.45C242.889 210.692 242.91 210.888 242.925 210.992C242.933 211.046 242.941 211.089 242.945 211.109C242.947 211.119 242.949 211.129 242.95 211.131C242.951 211.135 242.95 211.133 242.949 211.129C242.948 211.123 242.942 211.093 242.936 211.053C242.93 211.011 242.923 210.948 242.921 210.869C242.918 210.706 242.939 210.473 243.045 210.218L246.181 211.529ZM246.286 210.963C246.305 210.841 246.353 210.534 246.287 210.154L242.939 210.743C242.923 210.65 242.92 210.566 242.923 210.5C242.925 210.446 242.932 210.414 242.926 210.45L246.286 210.963ZM246.271 210.077C246.327 210.326 246.312 210.53 246.298 210.636C246.291 210.69 246.283 210.73 246.28 210.746C246.279 210.751 246.278 210.754 246.278 210.757C246.278 210.759 246.277 210.761 246.277 210.761C246.276 210.764 246.278 210.754 246.28 210.75C246.282 210.736 246.29 210.7 246.298 210.653C246.305 210.605 246.314 210.538 246.319 210.457C246.327 210.288 246.315 210.066 246.236 209.82L243 210.86C242.964 210.75 242.943 210.643 242.932 210.542C242.92 210.442 242.92 210.354 242.924 210.281C242.928 210.209 242.935 210.151 242.942 210.112C242.945 210.093 242.948 210.076 242.95 210.065C242.952 210.054 242.954 210.046 242.955 210.043C242.955 210.041 242.955 210.04 242.955 210.041C242.955 210.041 242.955 210.041 242.955 210.042C242.955 210.043 242.954 210.044 242.954 210.045C242.953 210.049 242.951 210.06 242.948 210.073C242.943 210.097 242.934 210.147 242.926 210.209C242.91 210.333 242.895 210.554 242.954 210.82L246.271 210.077ZM246.236 209.82C246.185 209.661 246.116 209.526 246.044 209.414C245.974 209.306 245.903 209.223 245.85 209.166C245.823 209.137 245.799 209.113 245.779 209.094C245.759 209.076 245.742 209.06 245.731 209.05C245.719 209.04 245.71 209.032 245.706 209.029C245.705 209.028 245.704 209.027 245.704 209.027C245.703 209.026 245.703 209.026 245.703 209.026C245.703 209.026 245.703 209.026 245.703 209.026C245.702 209.026 245.703 209.026 245.705 209.028C245.708 209.03 245.716 209.037 245.726 209.046C245.736 209.055 245.75 209.068 245.766 209.083C245.799 209.115 245.846 209.162 245.897 209.223C245.949 209.286 246.005 209.364 246.059 209.458C246.113 209.553 246.161 209.658 246.198 209.772L242.961 210.812C243 210.933 243.05 211.043 243.107 211.143C243.164 211.242 243.224 211.325 243.279 211.391C243.333 211.457 243.384 211.508 243.42 211.543C243.439 211.561 243.455 211.575 243.467 211.586C243.479 211.597 243.489 211.605 243.494 211.609C243.496 211.611 243.498 211.613 243.499 211.614C243.5 211.615 243.499 211.614 243.498 211.613C243.497 211.612 243.489 211.605 243.479 211.597C243.47 211.588 243.455 211.575 243.437 211.558C243.419 211.541 243.396 211.518 243.371 211.491C243.321 211.438 243.253 211.359 243.185 211.254C243.116 211.146 243.049 211.015 243 210.86L246.236 209.82Z" fill="#FCE986" mask="url(#path-32-inside-2_1005_19580)"/>
<defs>
<filter id="filter0_b_1005_19580" x="-11.3317" y="-11.3304" width="451.208" height="299.172" filterUnits="userSpaceOnUse" color-interpolation-filters="sRGB">
<feFlood flood-opacity="0" result="BackgroundImageFix"/>
<feGaussianBlur in="BackgroundImage" stdDeviation="5.66534"/>
<feComposite in2="SourceAlpha" operator="in" result="effect1_backgroundBlur_1005_19580"/>
<feBlend mode="normal" in="SourceGraphic" in2="effect1_backgroundBlur_1005_19580" result="shape"/>
</filter>
<linearGradient id="paint0_linear_1005_19580" x1="12.0537" y1="4.59523" x2="407.268" y2="343.574" gradientUnits="userSpaceOnUse">
<stop stop-color="white"/>
<stop offset="1" stop-color="white" stop-opacity="0"/>
</linearGradient>
</defs>
</svg>
