<svg width="58" height="58" viewBox="0 0 58 58" fill="none" xmlns="http://www.w3.org/2000/svg">
<g clip-path="url(#clip0_1257_20628)">
<g filter="url(#filter0_b_1257_20628)">
<rect x="0.119141" width="57.0299" height="57.0169" rx="4.11085" fill="white" fill-opacity="0.1"/>
</g>
<path d="M43.2016 23.787V24.1777H43.5922H45.0908C45.4195 24.1777 45.6636 24.4412 45.6636 24.7154V42.6974C45.6636 43.0168 45.4106 43.2699 45.091 43.2699H13.1137C12.794 43.2699 12.541 43.0168 12.541 42.6974V24.75C12.541 24.4307 12.794 24.1776 13.1136 24.1776C13.1136 24.1776 13.1137 24.1776 13.1137 24.1776L14.6119 24.179L15.003 24.1794V23.7883V22.1117C15.003 21.948 15.0888 21.7703 15.2189 21.6623L15.2189 21.6623L15.2198 21.6615C15.3687 21.5369 15.5299 21.494 15.6597 21.5263L15.6693 21.5286L15.6789 21.5305L23.8033 23.1222C23.6177 23.4405 23.5006 23.8085 23.5006 24.2162L23.5006 24.2265L16.6572 22.8837C16.3756 22.8284 16.1136 23.044 16.1136 23.331V39.2555C16.1136 39.4734 16.2678 39.6609 16.4817 39.7028L27.9862 41.9602C28.2679 42.0155 28.5299 41.7998 28.5299 41.5128V29.5993C28.6546 29.6231 28.7854 29.6368 28.9241 29.6368C29.1919 29.6368 29.4441 29.5814 29.6753 29.4904L29.6766 41.5113C29.6766 41.7984 29.9388 42.014 30.2205 41.9586L41.6887 39.7013C41.9024 39.6593 42.0565 39.4718 42.0565 39.254V23.367C42.0565 23.0808 41.7958 22.8653 41.5147 22.9193L36.8431 23.8157C37.0375 23.2627 37.3764 22.8038 37.8255 22.477L42.5113 21.5321C42.6993 21.5124 42.8671 21.5624 42.9857 21.6609C43.1157 21.769 43.2016 21.9466 43.2016 22.1103V23.787Z" stroke="#FCE986" stroke-width="0.781297"/>
<path d="M31.2335 19.7578C32.8172 19.227 34.0568 17.9779 34.5989 16.37C35.1439 17.9586 36.3871 19.2287 37.977 19.7607C36.3917 20.3069 35.1245 21.5485 34.5933 23.1356C34.0488 21.5558 32.8134 20.292 31.2335 19.7578Z" stroke="#FCE986" stroke-width="0.781297"/>
<path d="M26.4124 24.255C27.574 23.8108 28.4882 22.8946 28.9297 21.7317C29.3897 22.8936 30.3034 23.8121 31.4506 24.2566C30.2857 24.7158 29.3645 25.6304 28.9193 26.7795C28.4622 25.6203 27.5539 24.7026 26.4124 24.255Z" stroke="#FCE986" stroke-width="0.781297"/>
<path d="M26.8593 19.7745C26.43 18.6342 25.5116 17.741 24.3753 17.3C25.5199 16.8691 26.4156 15.9458 26.855 14.804C27.2963 15.9453 28.195 16.8462 29.3348 17.2906C28.194 17.7198 27.3005 18.6381 26.8593 19.7745Z" stroke="#FCE986" stroke-width="0.781297"/>
<path d="M25.2793 29.1494L19.0288 27.5872" stroke="#FCE986" stroke-width="1.04173" stroke-linecap="round"/>
<path d="M33.0918 29.1494L39.3423 27.5872" stroke="#FCE986" stroke-width="1.04173" stroke-linecap="round"/>
<path d="M25.2793 33.3145L19.0288 31.7522" stroke="#FCE986" stroke-width="1.04173" stroke-linecap="round"/>
<path d="M33.0918 33.3145L39.3423 31.7522" stroke="#FCE986" stroke-width="1.04173" stroke-linecap="round"/>
<path d="M25.2793 37.4814L19.0288 35.9192" stroke="#FCE986" stroke-width="1.04173" stroke-linecap="round"/>
<path d="M33.0918 37.4814L39.3423 35.9192" stroke="#FCE986" stroke-width="1.04173" stroke-linecap="round"/>
</g>
<defs>
<filter id="filter0_b_1257_20628" x="-4.04778" y="-4.16692" width="65.3631" height="65.3504" filterUnits="userSpaceOnUse" color-interpolation-filters="sRGB">
<feFlood flood-opacity="0" result="BackgroundImageFix"/>
<feGaussianBlur in="BackgroundImage" stdDeviation="2.08346"/>
<feComposite in2="SourceAlpha" operator="in" result="effect1_backgroundBlur_1257_20628"/>
<feBlend mode="normal" in="SourceGraphic" in2="effect1_backgroundBlur_1257_20628" result="shape"/>
</filter>
<clipPath id="clip0_1257_20628">
<rect width="57.0299" height="57.0169" fill="white" transform="translate(0.119141)"/>
</clipPath>
</defs>
</svg>
