<svg width="58" height="58" viewBox="0 0 58 58" fill="none" xmlns="http://www.w3.org/2000/svg">
<g clip-path="url(#clip0_1257_20575)">
<g filter="url(#filter0_b_1257_20575)">
<rect x="0.0292969" width="57.03" height="57.017" rx="4.1087" fill="white" fill-opacity="0.1"/>
</g>
<path d="M12.875 28.5232L12.2134 28.069L11.9456 28.459L12.1572 28.8822L12.875 28.5232ZM12.875 28.5232C12.1572 28.8822 12.1574 28.8826 12.1576 28.883L12.1581 28.884L12.1594 28.8866L12.1634 28.8945L12.1768 28.9205C12.1881 28.9424 12.2043 28.9731 12.2254 29.0122C12.2675 29.0903 12.3291 29.2017 12.4108 29.3416C12.574 29.6213 12.8173 30.0157 13.1443 30.4863C13.7974 31.4266 14.7882 32.6779 16.1448 33.9298C18.8621 36.4375 23.0627 38.9594 28.9346 38.9594C34.8521 38.9594 39.0534 36.4386 41.761 33.9286C43.1123 32.6759 44.0947 31.4238 44.7407 30.4827C45.0641 30.0116 45.3042 29.617 45.4651 29.3369C45.5455 29.1968 45.6063 29.0853 45.6477 29.007C45.6684 28.9679 45.6843 28.937 45.6955 28.9151L45.7087 28.889L45.7127 28.881L45.714 28.8784L45.7145 28.8774C45.7147 28.877 45.7149 28.8766 44.9943 28.5232M12.875 28.5232C12.2134 28.069 12.2135 28.0687 12.2137 28.0685L12.2143 28.0677L12.2158 28.0655L12.2206 28.0585L12.2375 28.0343C12.252 28.0137 12.2729 27.9842 12.3 27.9464C12.3544 27.8709 12.4339 27.7622 12.5376 27.6251C12.745 27.3509 13.0498 26.9626 13.4445 26.4982C14.233 25.5706 15.3853 24.3335 16.8429 23.0949C19.7432 20.6303 23.9384 18.0871 28.9346 18.0871C33.9776 18.0871 38.1728 20.6291 41.0635 23.096C42.5158 24.3353 43.6595 25.5729 44.4408 26.5012C44.8318 26.9658 45.1333 27.3544 45.3384 27.6288C45.441 27.7661 45.5196 27.8749 45.5733 27.9506C45.6001 27.9884 45.6207 28.018 45.6351 28.0387L45.6518 28.0629L45.6566 28.07L45.6581 28.0722L45.6586 28.0729C45.6588 28.0732 45.659 28.0735 44.9943 28.5232M44.9943 28.5232L45.7149 28.8766L45.9197 28.4588L45.659 28.0735L44.9943 28.5232ZM28.9346 33.8502C25.6354 33.8502 23.1253 31.4392 23.1253 28.5232C23.1253 25.6073 25.6354 23.1962 28.9346 23.1962C32.2339 23.1962 34.744 25.6073 34.744 28.5232C34.744 31.4392 32.2339 33.8502 28.9346 33.8502Z" stroke="#FCE986" stroke-width="1.60512"/>
<path d="M31.2823 28.428C31.2823 29.7545 30.2078 30.8288 28.8808 30.8288C27.5539 30.8288 26.4794 29.7545 26.4794 28.428C26.4794 27.1016 27.5539 26.0273 28.8808 26.0273C30.2078 26.0273 31.2823 27.1016 31.2823 28.428Z" fill="#FCE986" stroke="#FCE986" stroke-width="0.802559"/>
</g>
<defs>
<filter id="filter0_b_1257_20575" x="-4.13543" y="-4.16473" width="65.3588" height="65.3461" filterUnits="userSpaceOnUse" color-interpolation-filters="sRGB">
<feFlood flood-opacity="0" result="BackgroundImageFix"/>
<feGaussianBlur in="BackgroundImage" stdDeviation="2.08237"/>
<feComposite in2="SourceAlpha" operator="in" result="effect1_backgroundBlur_1257_20575"/>
<feBlend mode="normal" in="SourceGraphic" in2="effect1_backgroundBlur_1257_20575" result="shape"/>
</filter>
<clipPath id="clip0_1257_20575">
<rect width="57.03" height="57.017" fill="white" transform="translate(0.0292969)"/>
</clipPath>
</defs>
</svg>
