<svg width="70" height="60" viewBox="0 0 80 70" fill="none" xmlns="http://www.w3.org/2000/svg">
<g opacity="0.8">
<path d="M19.0049 0.86377C13.5565 0.86377 9.09027 5.34137 9.09027 10.807C9.09027 16.2732 13.5565 20.7501 19.0049 20.7501C24.4533 20.7501 28.9195 16.2732 28.9195 10.807C28.9195 5.34137 24.4533 0.86377 19.0049 0.86377ZM19.0049 4.50046C22.4914 4.50046 25.2835 7.30972 25.2835 10.807C25.2835 14.3049 22.4914 17.0855 19.0049 17.0855C15.5184 17.0855 12.7263 14.3049 12.7263 10.807C12.7263 7.30972 15.5184 4.50046 19.0049 4.50046ZM60.9935 9.49998C55.5452 9.49998 51.0789 13.9776 51.0789 19.4432C51.0789 24.9094 55.5452 29.3864 60.9935 29.3864C66.4419 29.3864 70.9082 24.9094 70.9082 19.4432C70.9082 13.9776 66.4419 9.49998 60.9935 9.49998ZM60.9935 13.1652C64.4801 13.1652 67.2721 15.9459 67.2721 19.4432C67.2721 22.9411 64.4801 25.7503 60.9935 25.7503C57.507 25.7503 54.715 22.9411 54.715 19.4432C54.715 15.9459 57.507 13.1652 60.9935 13.1652ZM19.0049 25.2105C8.52338 25.2105 0 33.5742 0 43.9313V59.4714C0 60.4753 0.813588 61.2895 1.81802 61.2895H59.034C59.5203 61.2964 59.9896 61.1075 60.3365 60.7657C60.6827 60.4245 60.878 59.9578 60.878 59.4714C60.878 58.9844 60.6827 58.5183 60.3365 58.1765C59.9896 57.8347 59.5203 57.6464 59.034 57.6527H3.6362V43.9314C3.6362 35.5577 10.4411 28.846 19.0057 28.846C27.5703 28.846 34.3752 35.5577 34.3752 43.9314V52.9652C34.3682 53.4522 34.5566 53.9215 34.8984 54.2677C35.2402 54.6146 35.7062 54.8092 36.1933 54.8092C36.6796 54.8092 37.1464 54.6146 37.4882 54.2677C37.83 53.9215 38.0183 53.4522 38.0113 52.9652V43.9314C38.0113 33.5735 29.4866 25.2106 19.0064 25.2106L19.0049 25.2105ZM60.9935 33.8467C50.5127 33.8467 41.9887 42.2104 41.9887 52.5675C41.9817 53.0546 42.17 53.5232 42.5118 53.87C42.8536 54.2163 43.3204 54.4116 43.8067 54.4116C44.2938 54.4116 44.7598 54.2163 45.1016 53.87C45.4434 53.5232 45.6318 53.0546 45.6248 52.5675C45.6248 44.1938 52.4297 37.4821 60.9943 37.4821C69.5589 37.4821 76.3638 44.1938 76.3638 52.5675V66.3174H43.8069C43.3206 66.3111 42.8513 66.4994 42.5044 66.8412C42.1582 67.183 41.9629 67.6491 41.9629 68.1361C41.9629 68.6225 42.1582 69.0892 42.5044 69.4304C42.8513 69.7722 43.3206 69.9611 43.8069 69.9542H78.182C79.1864 69.9542 80 69.1399 80 68.1361V52.5676C80 42.2097 71.476 33.8468 60.9951 33.8468L60.9935 33.8467Z" fill="#01AEC4"/>
</g>
</svg>
